<svg xmlns="http://www.w3.org/2000/svg" viewBox="0 0 434.09 246.12"><defs><style>.cls-1{fill:#fd6651;}</style></defs><g id="Layer_2" data-name="Layer 2"><g id="Layer_1-2" data-name="Layer 1"><ellipse class="cls-1" cx="218.75" cy="32.46" rx="31.5" ry="32.46"/><path class="cls-1" d="M185,217.14,158,245a3.64,3.64,0,0,1-5.26,0L93,183.53,33.38,245a3.64,3.64,0,0,1-5.26,0l-27-27.86a3.92,3.92,0,0,1,0-5.42l89.32-92a3.65,3.65,0,0,1,5.26,0l89.31,92A3.92,3.92,0,0,1,185,217.14Z"/><path class="cls-1" d="M433,217.14,406,245a3.64,3.64,0,0,1-5.26,0l-59.65-61.47L281.4,245a3.64,3.64,0,0,1-5.26,0l-27-27.86a3.91,3.91,0,0,1,0-5.42l89.31-92a3.65,3.65,0,0,1,5.26,0l89.32,92A3.92,3.92,0,0,1,433,217.14Z"/><path class="cls-1" d="M310.67,86.47l-89.25,92a3.64,3.64,0,0,1-5.26,0l-89.32-92a3.92,3.92,0,0,1,0-5.42l27-27.85a3.65,3.65,0,0,1,5.27,0l59.72,61.54L278.44,53.2a3.65,3.65,0,0,1,5.27,0l27,27.85A3.92,3.92,0,0,1,310.67,86.47Z"/></g></g></svg>