<svg xmlns="http://www.w3.org/2000/svg" viewBox="0 0 511.369 512"><g data-name="Layer 2"><g data-name="Layer 1"><path fill="#37b678" d="M304.95672,201.34711a324.97784,324.97784,0,0,1-41.59993-120.697A93.64992,93.64992,0,0,0,241.9323,32.46953a91.36816,91.36816,0,0,0-130.15425-9.74231A93.85492,93.85492,0,0,0,80.83274,80.05183a325.45807,325.45807,0,0,1-7.458,36.857A325.72686,325.72686,0,0,1,38.297,200.436,271.88478,271.88478,0,0,0,.00122,338.23469c-.35343,95.11208,76.12385,172.78139,170.48692,173.132a168.99968,168.99968,0,0,0,74.1914-16.76348l.01,0a172.86624,172.86624,0,0,0,97.56754-155.12679A272.24749,272.24749,0,0,0,304.95672,201.34711Z"/><path fill="#00a653" d="M342.25708,339.47649a172.86624,172.86624,0,0,1-97.56754,155.12679l-.01,0a165.01483,165.01483,0,0,1-108.09762-155.861,262.5873,262.5873,0,0,1,9.65681-69.509,265.74914,265.74914,0,0,1,27.576-64.45829,332.89974,332.89974,0,0,0,35.884-85.46169,330.65536,330.65536,0,0,0,7.631-37.71542A86.09821,86.09821,0,0,1,241.9323,32.46953,93.64992,93.64992,0,0,1,263.35679,80.6501a324.97784,324.97784,0,0,0,41.59993,120.697A272.24749,272.24749,0,0,1,342.25708,339.47649Z"/><path fill="#d4e496" d="M339.62649,504.50442h-.00032c-90.41494-.336-163.43621-74.48273-163.09758-165.6114v-.00025a264.15713,264.15713,0,0,1,37.23825-133.97218A333.20463,333.20463,0,0,0,249.65161,119.464a332.304,332.304,0,0,0,7.63218-37.71659c6.03762-42.29526,41.8039-73.78517,84.19936-73.62763h.00017c42.3651.15742,77.92063,31.86109,83.63769,74.17A332.57953,332.57953,0,0,0,467.67994,205.7806a264.49231,264.49231,0,0,1,36.27053,134.296l-.00012.03311C503.61172,431.23837,430.04142,504.84039,339.62649,504.50442Z"/><path fill="#b28966" d="M441.12455,336.58786c-.20907,56.2633-45.54088,101.7059-101.25142,101.49889s-100.70337-45.98526-100.4943-102.24856S284.99393,214.157,340.70447,214.36406,441.33362,280.32456,441.12455,336.58786Z"/><path fill="#8b6847" d="M269.34169,335.94953c.19-51.12169,37.69493-109.79549,86.33833-119.93827a71.98929,71.98929,0,0,0-14.97551-1.6472c-55.71055-.207-101.1166,65.21086-101.32568,121.47413s44.78379,102.04154,100.49434,102.24856a100.68324,100.68324,0,0,0,14.98559-1.06453C306.28088,429.53255,269.15173,387.07122,269.34169,335.94953Z"/><path fill="#37b678" d="M474.06711,201.97552a324.97385,324.97385,0,0,1-41.59993-120.697,93.6332,93.6332,0,0,0-30.51867-57.503A91.52529,91.52529,0,0,0,342.00811.63089L341.50873.629a91.43325,91.43325,0,0,0-60.6203,22.72659,93.85494,93.85494,0,0,0-30.9453,57.32461,325.45983,325.45983,0,0,1-7.458,36.857,325.72885,325.72885,0,0,1-35.07777,83.52712,271.8847,271.8847,0,0,0-38.29575,137.79873C168.7597,433.56552,244.57875,510.9827,338.39,511.98064c.729.01271,1.46817.01546,2.20725.0182.39947.00149.809.003,1.2085-.0055a169.67025,169.67025,0,0,0,17.84228-1.10219c84.992-9.72192,151.39124-82.4758,151.7194-170.78625A272.24743,272.24743,0,0,0,474.06711,201.97552ZM339.6542,497.0137a154.86488,154.86488,0,0,1-40.64954-5.55458c-66.46031-18.33466-115.33148-79.861-115.0614-152.54092a256.84668,256.84668,0,0,1,36.17985-130.14581,341.01268,341.01268,0,0,0,36.70012-87.38647,343.93772,343.93772,0,0,0,7.80393-38.57359c4.93249-34.54941,32.09907-61.38541,65.3568-66.36568a75.05935,75.05935,0,0,1,11.4691-.83619c38.31249.14237,71.12395,29.24879,76.31459,67.691a340.05424,340.05424,0,0,0,43.52678,126.28718,257.18272,257.18272,0,0,1,35.24133,130.49119C496.213,426.93208,425.83735,497.334,339.6542,497.0137Z"/></g></g></svg>