<svg id="Layer_1" data-name="Layer 1" xmlns="http://www.w3.org/2000/svg" viewBox="0 0 1000 1000"><defs><style>.cls-1{fill:#1a1920;}.cls-2{fill:#fff;}.cls-3{fill:#fd6651;}</style></defs><rect class="cls-1" width="1000" height="1000"/><path class="cls-2" d="M512.8,674.6a16.81,16.81,0,1,1-23.78,0A16.81,16.81,0,0,1,512.8,674.6Z"/><path class="cls-2" d="M482.89,782.15l-14.43,14.43a2,2,0,0,1-2.81,0l-31.84-31.84L402,796.58a2,2,0,0,1-2.81,0l-14.42-14.43a2,2,0,0,1,0-2.81L432.4,731.7a2,2,0,0,1,2.81,0l47.67,47.64A2,2,0,0,1,482.89,782.15Z"/><path class="cls-2" d="M615.27,782.15l-14.42,14.43a2,2,0,0,1-2.81,0l-31.85-31.84-31.84,31.84a2,2,0,0,1-2.81,0l-14.43-14.43a2,2,0,0,1,0-2.81l47.67-47.64a2,2,0,0,1,2.81,0l47.67,47.64A2,2,0,0,1,615.27,782.15Z"/><path class="cls-2" d="M550,714.46l-47.64,47.68a2,2,0,0,1-2.81,0l-47.68-47.68a2,2,0,0,1,0-2.8l14.39-14.43a2,2,0,0,1,2.81,0l31.88,31.88,31.84-31.88a2,2,0,0,1,2.82,0L550,711.66A2,2,0,0,1,550,714.46Z"/><path class="cls-2" d="M269.46,448.39h38.2v13.48H284.72v13.49h19v13.48h-19v23.82H269.46Z"/><path class="cls-2" d="M315.6,466.37h15.09v46.29H315.6Zm.18-18h14.74v12.14H315.78Z"/><path class="cls-2" d="M344.12,479.32h-5.75V467.18h6.19v-13.3h14.65v13.3h9.43v12.14h-9.43v14.2c0,5.21,5.15,5.93,8,5.93a19.64,19.64,0,0,0,2-.09v13.48a28.21,28.21,0,0,1-4.1.27c-7.15,0-21-2-21-17.53Z"/><path class="cls-2" d="M383.2,492.62s7.07,6.65,14.92,6.65c3.14,0,6.54-1.26,6.54-5.12,0-7.65-28.09-7.37-28.09-27.15,0-11.87,9.68-19.68,22.07-19.68,13.43,0,20.06,7.27,20.06,7.27l-6.45,12.86s-6.28-5.66-13.79-5.66c-3.13,0-6.62,1.43-6.62,5,0,8.09,28.08,6.65,28.08,27,0,10.69-7.93,19.95-22,19.95a31.79,31.79,0,0,1-22.76-9.16Z"/><path class="cls-2" d="M430.91,479.32h-5.75V467.18h6.19v-13.3H446v13.3h9.43v12.14H446v14.2c0,5.21,5.15,5.93,8,5.93a19.64,19.64,0,0,0,2-.09v13.48a28.21,28.21,0,0,1-4.1.27c-7.16,0-21-2-21-17.53Z"/><path class="cls-2" d="M487.53,483.81h.61V483c0-3.87-2.88-5.12-6.63-5.12-5.67,0-12.13,4.4-12.13,4.4l-5.23-11a33.34,33.34,0,0,1,18.84-6c12.65,0,20.24,7.1,20.24,18.88v28.49H489.45v-2.78a26,26,0,0,1,.17-2.88h-.17s-3.32,6.74-12.74,6.74c-8.37,0-15.26-5.75-15.26-14.92C461.45,485.34,480.55,483.81,487.53,483.81Zm-6.63,18.06c3.92,0,7.41-4.4,7.41-8.17v-1h-1.39c-4.8,0-10.3,1.44-10.3,5.3C476.62,500.17,477.93,501.87,480.9,501.87Z"/><path class="cls-2" d="M535.41,465.29c12.22,0,17.89,7,17.89,7l-6.37,10.43s-4.36-4.49-10.56-4.49c-7.15,0-10.73,5.57-10.73,11.05s3.67,11.51,11.25,11.51c6.29,0,12.31-5.57,12.31-5.57l5.49,10.87s-6.72,7.64-19.28,7.64c-16,0-25-11.5-25-24.27C510.38,477.07,519.28,465.29,535.41,465.29Z"/><path class="cls-2" d="M561.76,448.39h15.09v33.26h4.27l8.9-15.28h16.4l-13.17,21v.19l15,25.07H591.07l-9.51-18h-4.71v18H561.76Z"/><path class="cls-2" d="M613.49,497.92h14.3v14.74h-14.3Z"/><path class="cls-2" d="M639.65,448.39h15.27v64.27H639.65Z"/><path class="cls-2" d="M697.92,447.32c18.84,0,32.62,14.38,32.62,32.8,0,18.88-13.78,33.62-32.62,33.62S665.3,499,665.3,480.12C665.3,461.7,679.08,447.32,697.92,447.32Zm0,52c9.33,0,16.83-8.27,16.83-19.24,0-10.51-7.5-18.42-16.83-18.42s-16.84,7.91-16.84,18.42C681.08,491.09,688.59,499.36,697.92,499.36Z"/><ellipse class="cls-3" cx="501.71" cy="178.25" rx="31.5" ry="32.46"/><path class="cls-3" d="M467.94,362.93l-27,27.86a3.65,3.65,0,0,1-5.27,0L376,329.32l-59.65,61.47a3.64,3.64,0,0,1-5.26,0l-27-27.86a3.9,3.9,0,0,1,0-5.42l89.31-92a3.65,3.65,0,0,1,5.26,0l89.32,92A3.92,3.92,0,0,1,467.94,362.93Z"/><path class="cls-3" d="M716,362.93l-27,27.86a3.64,3.64,0,0,1-5.26,0L624,329.32l-59.65,61.47a3.65,3.65,0,0,1-5.27,0l-27-27.86a3.92,3.92,0,0,1,0-5.42l89.32-92a3.65,3.65,0,0,1,5.26,0l89.31,92A3.9,3.9,0,0,1,716,362.93Z"/><path class="cls-3" d="M593.63,232.26l-89.25,92.05a3.65,3.65,0,0,1-5.26,0L409.8,232.26a3.92,3.92,0,0,1,0-5.42l27-27.85a3.65,3.65,0,0,1,5.27,0l59.72,61.55L561.4,199a3.64,3.64,0,0,1,5.26,0l27,27.86A3.91,3.91,0,0,1,593.63,232.26Z"/></svg>