<svg xmlns="http://www.w3.org/2000/svg" viewBox="0 0 325.98 841.89">
    <path d="M206.13 50.75c10.17.06 11.26 9.88 8.49 18.95-2.26 7.42-6.27 13.77-13.68 15.85-2.35 9.03-2.46 19.89-3.77 29.78 2.79 3.22 7.44 4.84 11.32 6.96 11.58 6.33 23.29 13.47 34.91 20.11 13.26 1.04 28.2 2.22 38.69 6.19 9.42 3.56 15.83 9.49 21.23 16.63 5.03 6.64 10.84 15.1 11.79 23.97 1.1 10.21-.4 22.66-2.83 31.71-.77 2.85-2.78 6.24-2.83 8.89-.04 2.07 1.51 5.65 2.36 8.51 3.84 12.91 6.16 28.3 4.72 45.63-.51 6.16-2.45 12.76-1.89 18.56.49 5.05 4.06 10.24 6.13 14.69 2.42 5.2 4 10 4.72 15.85 1.43 11.59-.5 23.76-3.3 35.19-3.96 16.13-7.55 33.19-9.44 51.43-.64 6.16-1.67 12.78-1.42 18.56.25 5.76 2.57 11.95 3.77 17.79 1.59 7.7 4.87 16.01 1.89 22.82-.98 2.22-2.29 3.19-4.72 5.41-1.63 1.49-2.57 3.73-4.25 5.41-1.58 1.58-4.06 2.35-6.13 4.25-2.67 2.45-3.65 4.3-5.19 4.64-4.33.97-10.29-.66-14.15-1.55-3.48-.8-8.68-2.04-10.85-3.87-2.53-2.13-2.24-5.27-3.77-7.73-1.81-2.9-4.73-3.12-6.6-5.03-4.84 30.27-10.13 59.79-23.12 84.3-2.36 4.45-5.45 8.87-6.13 14.31-.74 5.91.61 11.98-.47 18.18-.47 2.66-1.97 5.46-1.89 8.12.14 4.76 3.18 10 4.72 15.08 4.3 14.22 8.39 30.89 8.49 48.72.14 23.62-7.87 44.91-15.1 64.96-5.01 13.92-10.29 30.26-13.68 46.79-1.31 6.37-3.71 13.51-2.36 19.33 1.14 4.91 6.06 10.03 10.38 14.69 3.29 3.56 5.81 6.03 10.38 8.89 1.56.98 3.27 2.76 4.72 3.09 7.47 1.72 16.72 3.47 16.51 9.28-.12 3.39-3.11 4.87-10.38 5.03-5.35.11-10.69 0-16.04 0-10.98 0-23.02 1.35-32.08.39-2.52-.27-4.62-1.68-8.02-1.93-7.75-.58-15.21 1.57-17.93-1.93-3.45-4.45 4.43-17.09 4.25-22.43-.11-3.1-1.98-6.22-1.89-9.28.14-4.68 2.94-9.6 3.78-14.69 4.02-24.68 2.72-58.83-2.83-82.37-2.27-9.6-6.78-18.57-7.55-29-1.6 2.25-1.3 4.83-1.89 7.35-1.65 7.11-4.48 14.22-6.13 21.66-5.26 23.67-6.37 57.12-1.89 82.37.47 2.65 1.03 4.76 1.89 7.35.71 2.14 1.77 4.83 1.89 6.96.17 3.25-1.87 6.31-1.89 9.28-.06 7.93 7.06 14.56 4.72 22.81-2.2 3.34-11.25 1.62-17.46 1.93-3.76.19-5.91 1.93-10.38 1.93h-30.67c-10.19 0-24.56 1.25-25.95-3.48-1.6-5.45 5.34-8.4 9.91-9.67 1.62-.45 3.7-.49 5.66-1.16 5.63-1.91 11.92-7.53 15.57-11.6 3.34-3.73 9.42-10.28 10.38-15.47 1-5.4-1.02-12.06-2.36-18.18-3.47-15.88-9.06-33.39-14.16-47.56-7.2-20.04-16.04-40.67-16.04-65.74 0-20.44 5.08-38.56 10.38-55.68.73-2.35 2.25-4.86 2.36-6.96.23-4.37-2.41-9.16-2.83-13.92-.47-5.35.58-12.08-.94-16.63-2.36-7.08-7.46-13.67-10.38-21.27-8.24-21.46-15.68-47.38-18.4-73.09-1.59.19-4.22 1.8-5.66 3.09-2.28 2.03-2.52 7.56-5.19 9.67-2.63 2.07-7.5 2.63-11.32 3.48-5.27 1.17-12.66 3.66-16.51 0-.59-.56-.8-2.13-1.89-3.09-1.72-1.53-4.29-2.44-6.13-4.25-3.81-3.75-7.78-6.66-9.44-10.44-2.47-5.63-.23-14.11 1.42-22.04 1.21-5.85 3.3-11.83 3.77-16.63.57-5.81-.73-12.42-1.42-18.95-1.88-17.99-5.36-35.54-9.44-52.2-2.77-11.32-5.86-22.52-4.25-35.58.72-5.85 2.43-11.03 4.72-16.24 2.13-4.85 5.67-9.88 6.13-14.69.54-5.65-1.92-11.93-2.36-18.18-1.17-16.5.44-32.57 4.25-46.02.79-2.77 2.36-5.79 2.36-8.12 0-2.66-1.57-5.79-2.36-8.51-2.26-7.78-3.87-18.2-3.77-28.23.1-10.69 5.33-19.34 10.85-27.07 5.17-7.24 12.52-14.51 21.7-18.17 7.92-3.16 18.2-4.4 27.83-5.41 3.17-.33 4.29-.03 7.6-.77 3.39-.77 10.23-3.77 13.63-5.8 10.67-6.34 22.41-11.87 33.93-18.18-1.89-10.56-1.44-23.05-4.25-32.87-1.3-1.46-5.6-2.15-7.55-4.25-1.62-1.74-5.13-8.32-6.13-11.21-2.9-8.4-2.38-19.9 8.49-19.33-.77-5.2-2.28-9.76-2.36-14.31-.19-11.98 9.15-22.53 18.87-28.23 6.87-4.03 17.21-7.89 26.88-8.51 21.07-1.36 42.53 12.23 48.17 27.84 2.73 7.55.58 14.69-.94 22.82Zm37.27 236.66c-1.55 2.76-4.41 5.7-4.72 7.73-.27 1.78.61 5.22.94 7.73 1.47 10.9 3.27 23.42.47 33.26 9.44 12.29 6.57 30.18 9.91 46.02 1.05 4.98 2.96 10.04 4.25 14.69 5.73 20.7 5.49 43.49 7.55 66.51 2.45-7.13 8.76-13.16 11.79-20.88 1.75-4.47 2.52-10.28 3.3-15.85.79-5.62 1.94-11.84 1.89-17.4-.08-8.39-4.04-15.63-7.55-23.59-3.21-7.28-5.95-15.26-8.49-22.81-4.59-13.63-4.65-26.67-.95-39.06 1.88-6.28 5.53-15.72 3.77-23.2-1.4-5.95-5.33-11.99-7.08-18.56-1.7-6.4-2.88-15.43-4.25-21.66-2.88 8.81-6.34 19.03-10.85 27.07Zm-176.45-3.86c-1.77 6.81-6.28 12.94-7.08 19.33-1.23 9.84 3.35 15.64 5.19 22.82 3.98 15.49 1.48 30.56-3.77 44.08-2.38 6.14-4.3 12.92-7.08 19.33-2.99 6.9-6.04 13.11-6.13 20.49-.06 5.05 1.08 10.31 1.89 15.47.82 5.2 1.33 10.5 2.83 15.08 2.81 8.61 8.85 15.91 13.21 23.59 1.04-23.07.93-45.2 5.66-63.81 1.63-6.4 4.17-12.8 5.19-18.56 2.22-12.54.97-25.14 4.72-35.58 1.21-3.36 3.93-6.83 4.25-10.05.32-3.25-1.24-6.77-1.42-10.05-.55-10.24 1.34-20.44 2.83-30.55-7.82-9.57-11.53-22.51-16.51-34.42-.96 7.96-1.88 15.54-3.77 22.81Zm95.78 167.44c-.57 37.37-.93 73.74-6.61 106.73-.81 4.72-3.53 9.4-3.3 13.54.16 3.09 2.59 6.39 3.3 9.67 1.73 7.94 1.59 17.22.47 25.14-.65 4.6-2.63 8.59-2.36 13.15.37 6.19 3.5 11.62 5.66 17.4 2.29 6.12 3.65 12.1 4.72 18.18-.46-12.69 10.46-24.02 9.91-37.51-.2-4.92-2.46-9.79-2.83-14.69-.48-6.4-.86-13.48 0-19.72.55-3.99 3.75-8.08 3.78-11.99.03-3.97-2.41-8.53-3.3-13.15-6.36-33.03-6.78-70.52-7.55-107.11-.64.12-.9.55-1.89.39Z" style="fill:#878787;fill-rule:evenodd"/>
    <path d="M130.6 135.44c-2.13-.77-2.34-3.54-2.83-5.41-.61-2.33-1.04-4.74-1.42-6.96-12.38 5.7-27.44 12.87-38.9 19.33 7.48.52 9.93 3.22-1.16 3.87-21.63.84-41.84 3.36-52.84 12.37-7.98 6.54-18.31 20.94-19.34 32.09-.95 10.23 1.02 22.6 3.3 30.55.88 3.08 2.3 6.31 2.36 9.28.11 5.31-2.91 11.21-4.25 17.02-2.76 11.96-3.2 24.89-1.89 38.28.65 6.65 2.92 13.31 1.89 19.33-.95 5.56-5.3 10.68-7.55 16.24-5.6 13.87-3.58 29.5 0 44.08 4.9 19.99 9.21 39.51 11.32 60.71.44 4.44 1.15 9.36.94 13.54-.29 5.64-2.61 11.95-3.77 17.79-.58 2.91-1.36 5.91-1.89 8.89-.57 3.24-1.42 6.92-.95 9.67.89 5.18 7.52 7.36 9.91 12.37 4.45.69 5.95 6.17 9.44 6.96 4.43 1 17.97-2.97 19.81-4.64 2.14-1.94 1.78-5.56 3.3-7.73 2.43-3.47 6.72-3.79 7.55-6.57.86-2.88-.82-9.63-2.83-13.54-3.75-7.28-9.68-13.15-12.27-20.88-1.27-3.82-1.65-8.58-2.36-13.54-.67-4.64-2.02-9.43-2.36-13.92-.78-10.34 1.42-17.41 4.72-24.75 2.24-4.98 4.31-9.82 6.14-14.69 3.64-9.72 8.06-20.46 8.02-32.48-.01-5.14-.7-10.58-1.89-15.47-1.1-4.52-3.57-8.68-4.72-13.15-3.24-12.65 3.49-20.87 6.13-30.55 3.9-14.26 4.93-31.07 4.72-47.95-.03-2.04-1.07-5.03.4-6.97-7.31-10.77-13.9-30.86-11.81-34.06 2.78-8.2 6.38-11.74 11.18-15.37-1.83 3.73-3.66 7.45-5.49 11.18-1.52 3.83-1.77 7.66-.76 11.49 3.7 16.82 12.21 27.64 26.52 31.21 10.8 1.46 22.04.37 33.35-1.09-9.71 3.99-22.69 5.59-41.49 2.95-4.18-.92-5.62-1.62-7.4-2.8-.04 1.3-.24 2.66-.24 3.83 0 3.57-.37 7.72 0 10.44.67 4.92 3.07 10.26 4.72 15.08 4.37 12.76 9.77 24.41 16.04 34.8 1.24 2.05 3.42 4.15 2.83 6.57-1.99 1.73-3.18-3.8-4.25-1.55-3.06 16.11-1.57 33.56 3.3 46.4.84 2.23 3.16 4.69 1.88 6.96-3.1-.49-3.53-3.36-4.72-5.42-1.2-2.08-2.58-4.29-3.77-6.19-2.79 6.1-3.58 12.4-4.25 18.95-.71 7.06-.49 14.64-1.88 21.27-.78 3.72-2.32 7.57-3.3 11.21-3.12 11.6-5.66 23.94-6.13 37.9-.62 18.26-3.07 36.94-.47 54.91 3.54 24.49 10.89 48.24 19.34 69.22 2.87 7.11 8.5 13.54 9.91 20.49.92 4.53-.35 8.46 0 12.76.37 4.52 1.41 9.1 2.36 13.15.98 4.18 3.22 8.05 2.83 11.99-2.22 2.11-4.2-2.39-4.72-.39-11.06 29.76-13.49 63.45-2.83 95.13 8.45 25.09 18.1 48.41 23.59 75.79.84 4.18 2.05 8.58 1.89 12.37-.23 5.41-2.51 8.71-5.19 12.37-4.22 5.78-9.26 10.83-14.62 14.7-.8.58-3.56 2.32-1.89 2.32 2.86-.21 6.25.29 9.43.39 3.11.09 6.83-.69 8.96.77-3.49 1.46-8.37 1.2-13.21 1.55-10.96.79-22.78.27-25.48 6.96 4.15 1.39 8.75.77 13.21.77s9.49-.06 14.15 0c9.13.11 18.41 1.03 26.89 0 2.2-.27 4.04-1.32 6.13-1.55 5.48-.6 10.49.75 15.57-.39.94-7.91-5.29-13.56-5.19-20.88.04-2.97 2.09-5.96 1.89-9.28-.22-3.61-2.45-6.85-3.3-10.44-.92-3.89-.97-8.14-1.42-11.99-2.94-25.68-2.25-50.37 3.3-75.02 1.76-7.82 4.53-14.72 6.13-21.66 3.72-16.17 2.07-33.77-3.3-47.56-2.64-6.77-6.24-14.36-6.13-21.66.07-4.85 2.46-9.43 2.83-13.92.5-6.13.72-12.71 0-18.95-.45-3.92-3.37-7.87-3.77-11.99-.63-6.36 2.39-10.58 3.3-16.24 5.47-33.86 5.9-70.85 6.6-108.27 2.98-.69 9.08-.8 10.85.77-.38 36.92 1.59 74.84 7.08 106.73.79 4.58 2.85 9.11 3.3 13.54.62 6.08-2.34 8.45-3.3 12.76-1.96 8.76-.94 20.21.94 27.84.72 2.9 1.89 5.63 1.89 8.51-.01 7.29-3.52 14.36-6.13 21.27-5.58 14.74-5.72 31.26-2.36 46.79 1.49 6.88 4.28 13.81 6.13 21.66 3.92 16.55 4.98 32.62 5.19 48.72.17 12.98-.22 26.23-2.36 37.51-.69 3.62-2.9 7.07-3.3 10.83-.4 3.81 1.89 6.8 1.88 10.44 0 3.12-1.86 6.85-2.83 10.05-1.02 3.35-2.49 6.59-2.36 10.44 4.88 1.79 10.28-.4 16.51.39 1.9.24 3.67 1.31 5.66 1.55 8.22.98 18.25 0 27.37 0 7.01 0 14.21-.14 19.81-.39 1.88-.08 4.72.73 6.13-.77 1.13-2.39-2.34-3.47-4.25-4.25-6.59-2.7-20.39-2.28-28.31-3.09-1.88-.19-4.73.51-5.66-1.16 5.3-1.07 12.34-.71 18.87-.77-3.53-3.47-8.43-6.8-12.27-11.21-5.25-6.04-10.76-12.14-9.91-22.04 1.29-14.9 6.37-29.83 10.85-44.47 4.26-13.91 9.61-27.78 14.15-42.15 9.56-30.22 7.02-62.49-4.25-93.58-1.43-1.21-.46 1.26-1.89 1.16-1.06.87-2.36-.03-3.3-.39 1.37-7.36 4.43-14.55 5.19-23.2.39-4.4-.65-9.12 0-13.92.93-6.8 6.53-13.79 9.44-20.88 8.69-21.21 15.75-45.42 18.87-70.38 2.3-18.41-.15-36.76-.94-54.91-.61-13.88-3.06-26.44-6.14-37.9-1.07-3.97-3.04-7.67-3.77-11.6-2.38-12.66-.59-26.77-6.14-38.67-1.71.26-1.27 2-1.89 3.09-.57 1.03-1.7 1.98-2.36 3.09-1.14 1.91-1.66 5.61-4.72 5.03.17-3.67 2.48-7.48 3.77-11.6 3.95-12.57 3.84-28.35.94-42.15-1.25-.88-1.79 3.76-4.25 1.93 1.39-4.43 4.18-8.65 6.61-13.15 4.71-8.74 8.46-17.6 11.79-27.45 1.68-4.95 4.09-10.05 4.72-15.08.34-2.69 0-7.03 0-10.83 0-1.33-.26-2.97-.24-4.48-2.33 1.59-3.47 2.37-8.37 3.45-18.8 2.64-31.78 1.04-41.49-2.95 11.31 1.45 22.55 2.54 33.35 1.09 14.31-3.57 22.82-14.39 26.52-31.21 1.01-3.83.76-7.66-.76-11.49-1.83-3.73-3.66-7.45-5.49-11.18 4.8 3.63 8.4 7.18 11.18 15.37 2.02 3.1-4.12 22.11-11.17 33.08 2.34 2.26 1.19 5.81 1.19 8.33 0 18.31 1.2 34.8 5.66 48.72 1.83 5.69 5.07 10.99 6.13 16.24 1.82 9.01-2.27 16.91-4.25 23.59-1.17 3.96-2.06 8.11-2.36 12.37-1.23 17.34 6.34 33.62 11.79 46.79 4.1 9.91 8.51 17.88 7.55 30.55-.75 9.86-2.74 24.21-7.08 32.87-4.09 8.16-14.73 20.11-12.27 28.61 1.06 3.67 6.02 3.94 8.02 6.96 1.47 2.21 1.09 5.89 3.3 7.73 4.46 3.72 13.62 3.15 19.81 4.64 1.75-1.22 2.98-2.77 4.72-4.25 1.67-1.42 3.7-2.38 5.19-3.87.68-.68.77-1.98 1.42-2.71 2.17-2.43 6.14-4.35 7.07-6.96 1.9-5.29-1.06-13.26-2.36-19.72-1.2-6-3.28-12.01-3.77-17.4-.78-8.46.75-18.29 1.89-27.45 1.06-8.54 2.6-17.28 4.25-25.52 3.45-17.29 10.07-33.65 8.49-51.43-.53-5.97-2.6-11.7-5.19-17.4-2.44-5.37-6.26-11.15-6.61-16.24-.37-5.61 1.91-11.93 2.36-18.18.95-13.19.5-26.17-2.36-37.51-1.43-5.68-4.79-11.61-4.72-16.63.04-2.73 1.52-5.63 2.36-8.51 2.45-8.39 4.04-19.28 3.3-29-.57-7.49-3.92-14.16-8.02-20.11-4.1-5.96-8.12-11.34-13.68-15.47-12.33-9.14-31.77-9.16-51.9-11.21-9.78-.63-8.45-3.4-1.88-3.48-13.33-6.86-25-15.08-39.16-21.27-.52 2.29-1.63 4.94-2.36 7.73-.62 2.37.01 6.34-3.3 6.96 1.13-10.29 2.27-20.57 3.3-30.94-7.39 4.86-13.56 13.72-23.12 17.02-6.27 2.16-12.41 2.57-19.86 0-9.8-3.38-14.89-11.18-22.64-17.02-.29.02-.56.06-.47.39.76 10.08 2.89 21.09 2.83 30.55h-.02Zm24.44 185.68c3.72-7.33 11.73-6.63 14.77.09-9.06-6.64-13.91 2.84-14.77-.09Zm-13.28-171.37c2.43.42 4.26.99 6.76.99 3.88 0 7.39 1.44 8.46 4.46.32.92 4.35 8.72-.73 4.06-1.96-1.8-1.72-5.14-5.86-5.73-2.24-.32-10.73-3.97-8.64-3.79Zm40.69 0c-2.43.42-4.26.99-6.76.99-3.88 0-7.39 1.44-8.46 4.46-.32.92-4.35 8.72.73 4.06 1.96-1.8 1.72-5.14 5.86-5.73 2.24-.32 10.73-3.97 8.64-3.79Zm-56.1 413.59c5.19 6.96 17.07 10.6 17.81 7.24.47.68 2.57 3.83-3.7 4.15-2.83 0-8.22-2.65-10.24-4.31-2.77-2.27-3.4-4.72-3.87-7.08Zm-5.85 3.85c-3.78 3.18-5.99 5.08-12.24 5.58 1.25 1.08 2.71 2.4 8.01 1.49 3.94-1.94 4.34-4.46 4.23-7.06Zm-9.14 19.26c1.03 8.57 2.24 19.28 7.89 23.34 2.02 1.74 6.09 2.47 11.07 3.51-4.6 1.55-11.03.69-15.92-1.88-4.36-2.29-6.86-22.63-3.04-24.97Zm33.19-4.75c-.07 4.53.05 20.99-2.33 25.04-1.15 1.96-4.45 3.76-7.1 4.44 4.6 1.55 3.99 1.71 8.89-.85 4.36-2.29 4.36-26.29.54-28.62Zm58.26-18.36c-5.19 6.96-17.07 10.6-17.81 7.24-.47.68-2.57 3.83 3.7 4.15 2.83 0 8.22-2.65 10.24-4.31 2.77-2.27 3.4-4.72 3.87-7.08Zm5.85 3.85c3.78 3.18 5.99 5.08 12.24 5.58-1.25 1.08-2.71 2.4-8.01 1.49-3.94-1.94-4.34-4.46-4.23-7.06Zm9.14 19.26c-1.03 8.57-2.24 19.28-7.89 23.34-2.02 1.74-6.09 2.47-11.07 3.51 4.6 1.55 11.03.69 15.92-1.88 4.36-2.29 6.86-22.63 3.04-24.97Zm-33.19-4.75c.07 4.53-.05 20.99 2.33 25.04 1.15 1.96 4.45 3.76 7.1 4.44-4.6 1.55-3.99 1.71-8.89-.85-4.36-2.29-4.36-26.29-.54-28.62Zm17.75-528.63c.52-4.44 1.19-8.47 1.42-12.76.61-11.29-3.97-18.35-10.38-23.97-6.76-5.93-19.45-11.74-31.14-12.37-13.27-.72-25.34 4.77-34.01 12.37-5 4.39-9.68 10.62-10.38 18.18-.65 6.99.85 13.28 1.42 18.95.16 1.67 1.92 4.56-.94 5.8-3.13-.01-.54-4.72-4.25-4.25-3.62.13-4.17 4.85-3.77 8.89.65 6.58 5.09 14.94 9.44 17.02-.18-1.82.04-3.32 2.36-3.09 3.27 5.85 2.51 12.48 5.19 18.18 2.5 5.29 7.59 9.58 12.27 13.54 5.76 4.87 11.92 9.63 21.23 10.05 11.22.51 15.48-5.15 21.27-10.05 7.85-6.65 12.35-12.09 14.63-22.82.7-3.32.76-7.31 3.3-8.89 1.92-.03 2.03 1.43 1.88 3.09 4.51-2.13 11.55-14.56 9.44-22.43-.47-1.75-2.36-4-4.25-3.48-3.02.83-.4 3.61-4.25 4.25-1.99-1.77-.69-4.31-.47-6.19Z" style="fill:#c6c6c6;fill-rule:evenodd"/>
    <path d="M102.19 153.13c-24.2 8.75-46.61 26.74-61.83 57.8-2.91 1.23-7.27-.61-4.31-16.22 4.26-13.01 2.33-20.5 18.69-39.22 13.41-11.66 50.71-6.81 47.45-2.36Z" style="fill:#ededed;fill-rule:evenodd"/>
    <path d="M54.53 153.41c-17.95 14.47-26.48 43.75-21.52 63.56-3.68 11.01-7.91 17.88-10.76 11.32-11.05-35.57-2.1-57.22 18.48-71.05 2.56-1.56 12.42-5.34 13.79-3.82ZM55.34 211.56c-2.18-9-5-14.5-12.34 4.43-13.92 26.26-11.76 52.02-12.34 77.43 1.39 18.61 11.3 16.16 19.67 6.64 9.75-13.81 19.09-56.56 5.01-88.49Z" style="fill:#ededed;fill-rule:evenodd"/>
    <path d="M27.68 232.91c6.07-6.42 7.35-5.24 3.84 3.54-3.64 18.44-5.94 36.73-3.11 59.39 0 7.29-7.11 9.6-9.35 3.74-4.79-27.49-5.8-52.32 8.63-66.67ZM16.06 315.75c6.31-15.62 27-8.65 25.5 12.47 4.64 32.12-3.65 60.67 0 94.38-1.23 10.22-3.84 11.01-6.17 2.36-5.1-42.2-28.74-85.93-19.33-109.21ZM8.1 343.76c2.59-14.82 3.79-1.39 5.52 6.69 5.36 27.31 17.38 53.68 19.67 80.5-.16 5.94-7.12 7.32-9.84 5.12.22-26.85-17.16-82.51-15.36-92.32ZM51.78 312.1c-5.42-3.99-7.91-1.96-7.45 6.11 2.32 21.08 4.58 42.15-.55 62.62-.37 8.74 1.1 9.95 4.41 3.62 10.77-23.62 16.38-47.51 3.59-72.35ZM222.55 153.13c24.2 8.75 46.61 26.74 61.83 57.8 2.91 1.23 7.27-.61 4.31-16.22-4.26-13.01-2.33-20.5-18.69-39.22-13.41-11.66-50.71-6.81-47.45-2.36Z" style="fill:#ededed;fill-rule:evenodd"/>
    <path d="M270.21 153.41c17.95 14.47 26.48 43.75 21.52 63.56 3.68 11.01 7.91 17.88 10.76 11.32 11.05-35.57 2.1-57.22-18.48-71.05-2.56-1.56-12.42-5.34-13.79-3.82ZM271.08 211.56c2.18-9 5-14.5 12.34 4.43 13.92 26.26 11.76 52.02 12.34 77.43-1.39 18.61-11.3 16.16-19.67 6.64-9.75-13.81-19.09-56.56-5.01-88.49Z" style="fill:#ededed;fill-rule:evenodd"/>
    <path d="M298.74 232.91c-6.07-6.42-7.35-5.24-3.84 3.54 3.64 18.44 5.93 36.73 3.11 59.39 0 7.29 7.11 9.6 9.35 3.74 4.79-27.49 5.8-52.32-8.63-66.67ZM310.36 315.75c-6.31-15.62-27-8.65-25.5 12.47-4.64 32.12 3.65 60.67 0 94.38 1.23 10.22 3.84 11.01 6.17 2.36 5.1-42.2 28.74-85.93 19.33-109.21ZM318.31 343.76c-2.59-14.82-3.79-1.39-5.52 6.69-5.36 27.31-17.38 53.68-19.67 80.5.16 5.94 7.12 7.32 9.84 5.12-.22-26.85 17.16-82.51 15.36-92.32ZM274.64 312.1c5.42-3.99 7.91-1.96 7.45 6.11-2.32 21.08-4.58 42.15.55 62.62.37 8.74-1.1 9.95-4.41 3.62-10.77-23.62-16.38-47.51-3.59-72.35ZM125.65 136.54c3.84 9.41 6.01 8-7.22 7.25-27.35-1.56-26.41-1.04-3.65-11.19 10.8-4.82 7.41-4.55 10.88 3.95ZM132.29 114.43c.53 8.84 5.79 22.2 10.57 28.2 6.99 8.76 15.44 7.63 14.31 3.56-8.41-9.73-9.33-20.98-12.09-24.38-6.7-3.51-11.92-12.19-12.79-7.37ZM112.48 153.57c9.72-2.55 47.53 10.01 41.35 11.61-25.99 6.86-51.24 11.49-80.18 27.22-10.02 4.35-10.83 2.36-7.26-5.67 7.22-18.53 25.03-26.74 46.09-33.16Z" style="fill:#ededed;fill-rule:evenodd"/>
    <path d="M81.6 190.59c-5.44 2.37-10.22 4.6-12.97 6.12-4.75 2.62-4.34 3.99 1.3 2.96 5.8-1.05 12.02-1.04 17.92-.76 31.41 1.51 57.46 10.67 68.87 9.48 4.04.42 3.11-37.37-3.42-37.46-28.68 3.1-49.65 9.08-71.7 19.65Z" style="fill:#ededed;fill-rule:evenodd"/>
    <path d="M75.3 200.98c-10.79.55-10.86 1.81-10.05 8.4 3.42 10.09 10.73 19.14 21.92 21 24.13 4 57.1-5.47 61.36-6.08 5.73-1.54 12.78-6.44 3.7-10.71-22.3-8.75-64.15-13.93-76.93-12.6ZM120.41 238c-4.21 2.79-7.45 15.53-1.94 15.53 4.73-.27 7.74-2.93 16.22-3.7 7.02-.64 14.62-.11 19.01-.68 7.53-3.05 6.8-19.85-.24-20.31-12.31.51-24.77 1.49-33.04 9.16ZM118.36 257.34c7.68-4.24 26.78-6.32 36.54-4.05 4.57 1.78 4.47 18.46 1.6 24.59-3.22 4.59-22.19 1.8-35.79 4.79-9.54 3.01-10.41-20.52-2.34-25.32ZM118.86 287.73c6.52-3.22 23.84-4.2 32.25-3.45 9.98.61 7.66 24.57 3.57 26.57-4.63 3.22-3.57 5.92-8.2 9.83-3.64 2.01-13.18 2.64-18.72 4.66-11.84 2.76-15.35-35.37-8.91-37.61ZM126 332.19c8.5-4 17.01-6.75 25.51-5.97 5.53 1.2 6.41 3.72 6.32 6.17.74 19.66.67 38.65.73 57.75-.49 6.97-9.47 12.74-15.55 2.59-12.8-17.26-26.08-57.22-17.01-60.54ZM196.05 136.54c-3.84 9.41-6.01 8 7.22 7.25 27.35-1.56 26.41-1.04 3.65-11.19-10.8-4.82-7.41-4.55-10.88 3.95ZM190.52 114.43c-.53 8.84-5.79 22.2-10.57 28.2-6.99 8.76-15.44 7.63-14.31 3.56 8.41-9.73 9.33-20.98 12.09-24.38 6.7-3.51 11.92-12.19 12.79-7.37ZM211.44 153.57c-9.72-2.55-47.53 10.01-41.35 11.61 25.99 6.86 51.24 11.49 80.18 27.22 10.02 4.35 10.83 2.36 7.26-5.67-7.22-18.53-25.03-26.74-46.09-33.16Z" style="fill:#ededed;fill-rule:evenodd"/>
    <path d="M242.32 190.59c5.44 2.37 10.22 4.6 12.97 6.12 4.75 2.62 4.34 3.99-1.3 2.96-5.8-1.05-12.02-1.04-17.92-.76-31.41 1.51-57.46 10.67-68.87 9.48-4.04.42-3.11-37.37 3.42-37.46 28.68 3.1 49.65 9.08 71.7 19.65Z" style="fill:#ededed;fill-rule:evenodd"/>
    <path d="M248.62 200.98c10.79.55 10.86 1.81 10.05 8.4-3.42 10.09-10.73 19.14-21.92 21-24.13 4-57.1-5.47-61.36-6.08-5.73-1.54-12.78-6.44-3.7-10.71 22.3-8.75 64.15-13.93 76.93-12.6ZM203.51 238c4.21 2.79 7.45 15.53 1.94 15.53-4.73-.27-7.74-2.93-16.22-3.7-7.02-.64-14.62-.11-19.01-.68-7.53-3.05-6.8-19.85.24-20.31 12.31.51 24.77 1.49 33.04 9.16ZM205.56 257.34c-7.68-4.24-26.78-6.32-36.54-4.05-4.57 1.78-4.47 18.46-1.6 24.59 3.22 4.59 22.19 1.8 35.79 4.79 9.54 3.01 10.41-20.52 2.34-25.32ZM205.06 287.73c-6.52-3.22-23.84-4.2-32.25-3.45-9.98.61-7.66 24.57-3.57 26.57 4.63 3.22 3.57 5.92 8.2 9.83 3.64 2.01 13.18 2.64 18.72 4.66 11.84 2.76 15.35-35.37 8.91-37.61ZM197.92 332.19c-8.5-4-17.01-6.75-25.51-5.97-5.53 1.2-6.41 3.72-6.32 6.17-.74 19.66-.67 38.65-.73 57.75.49 6.97 9.47 12.74 15.55 2.59 12.8-17.26 26.08-57.22 17.01-60.54ZM77.02 236.44c-4.66-.76-4.27 3.76-1.12 5.27 9.04 7.53 23.45 18.08 32.95 19.95 2.74.66.29-7.01 1.24-13.02 1.01-6.39 4.32-12.03 1.14-11.39-9.57 2.28-23.11 1.54-34.21-.82ZM76.31 245.75c9.69 7.72 21.03 16.29 31.55 19.41 3.49.34 1.02 13.45 2.16 23.78 1.13 10.32 5.04 25.35 1.79 23.4-10.9-4.68-24.53-23.13-34.87-55.52-3.82-10.19-3.33-11.65-.62-11.07ZM99.89 308.53c-6.66-5.08-7.68-3.19-8.05 5.69-.83 18.2 5.27 29.57 18.32 40.26 8.69 8.87 12.58 8.41 9.44-2.73-3.23-13.47 0-24.35-19.7-43.21ZM247.22 236.44c4.66-.76 4.27 3.76 1.12 5.27-9.04 7.53-23.45 18.08-32.95 19.95-2.74.66-.29-7.01-1.24-13.02-1.01-6.39-4.32-12.03-1.14-11.39 9.57 2.28 23.11 1.54 34.21-.82ZM247.93 245.75c-9.69 7.72-21.03 16.29-31.55 19.41-3.49.34-1.02 13.45-2.16 23.78-1.13 10.32-5.04 25.35-1.79 23.4 10.9-4.68 24.53-23.13 34.87-55.52 3.82-10.19 3.33-11.65.62-11.07ZM224.35 308.53c6.66-5.08 7.68-3.19 8.05 5.69.83 18.2-5.27 29.57-18.32 40.26-8.69 8.87-12.58 8.41-9.44-2.73 3.23-13.47 0-24.35 19.7-43.21ZM86.4 357.63c1.8-15.84 17.13 9.07 12.21 18.86-2.1 5.69-5.06 11.04-6.3 17.09-2.01 8.23-8.63 5.83-7.76-4.37 1.14-9.7-.24-21.64 1.85-31.57ZM117.32 376.77c23.77 33.13 23.03 45.55 7.27 105.45-2.15 13.73-4.57 22.74-8.88-1.32-4.4-34.12-27.9-60.08-13.19-102.36 2.78-5.88 3.41-18.38 14.8-1.76Z" style="fill:#ededed;fill-rule:evenodd"/>
    <path d="M81.52 415.77c3.01-16.45 6.56-16.98 10.62-1.61 14.83 47.66 27.31 94.55 26.36 137.04-2.34 12.72-6.01 21.99-18.88 7.09-23.03-40.13-30.73-86.91-18.1-142.52ZM140.54 440.28c5.9-14.3 9.7-12.25 11.41 6.13 2.36 36.54 1.31 74.38-4.33 109.63-1.57 15.15-23.6 5.8-24.78-17.41-1.79-26.48 6.87-61.53 17.7-98.35ZM102.97 627.79c5.68-22 19.89-9.13 26.59 24.91 6.84 33.32-9.08 69.23 11.33 138.42 2.88 8.33-1.02 10.97-3.48 11.75-3.61 1.14-8.68-3.01-9.39-6.27-13.51-63.96-48.18-108.49-25.04-168.82ZM139.27 626.62c-1.43-15.02 6.69-16.33 11.47 6.66 14.71 42.07.67 57.22-3.82 83.86-1.59 14.63-6.53 14.24-5.74-5.09-.64-28.47 4.94-53.42-1.91-85.43ZM240.5 357.63c-1.8-15.84-17.13 9.07-12.21 18.86 2.1 5.69 5.06 11.04 6.3 17.09 2.01 8.23 8.63 5.83 7.76-4.37-1.14-9.7.24-21.64-1.85-31.57ZM210.7 376.77c-23.77 33.13-23.03 45.55-7.27 105.45 2.15 13.73 4.57 22.74 8.88-1.32 4.4-34.12 27.9-60.08 13.19-102.36-2.78-5.88-3.41-18.38-14.8-1.76ZM246.5 415.77c-3.02-16.45-6.56-16.98-10.62-1.61-14.83 47.66-27.31 94.55-26.36 137.04 2.34 12.72 6.01 21.99 18.88 7.09 23.03-40.13 30.73-86.91 18.1-142.52ZM187.49 440.28c-5.9-14.3-9.7-12.25-11.41 6.13-2.36 36.54-1.31 74.38 4.33 109.63 1.57 15.15 23.6 5.8 24.78-17.41 1.79-26.48-6.87-61.53-17.7-98.35ZM225.05 627.79c-5.68-22-19.89-9.13-26.59 24.91-6.84 33.32 9.08 69.23-11.33 138.42-2.88 8.33 1.02 10.97 3.48 11.75 3.61 1.14 8.68-3.01 9.39-6.27 13.51-63.96 48.18-108.49 25.04-168.82ZM190.42 626.62c1.43-15.02-6.69-16.33-11.47 6.66-14.71 42.07-.67 57.22 3.82 83.86 1.59 14.63 6.53 14.24 5.74-5.09.64-28.47-4.94-53.42 1.91-85.43Z" style="fill:#ededed;fill-rule:evenodd"/>
</svg>
