<?xml version="1.0" encoding="UTF-8" standalone="no"?>
<svg
   xmlns:dc="http://purl.org/dc/elements/1.1/"
   xmlns:cc="http://creativecommons.org/ns#"
   xmlns:rdf="http://www.w3.org/1999/02/22-rdf-syntax-ns#"
   xmlns:svg="http://www.w3.org/2000/svg"
   xmlns="http://www.w3.org/2000/svg"
   xmlns:sodipodi="http://sodipodi.sourceforge.net/DTD/sodipodi-0.dtd"
   xmlns:inkscape="http://www.inkscape.org/namespaces/inkscape"
   width="115.00001mm"
   height="297mm"
   viewBox="0 0 115.00001 297"
   version="1.1"
   id="svg8"
   inkscape:version="1.0 (4035a4f, 2020-05-01)"
   sodipodi:docname="muscle_front_inkscape_1.svg">
  <defs
     id="defs2">
    <style
       id="style1866">.cls-1{fill:#878787;}.cls-1,.cls-2,.cls-3{fill-rule:evenodd;}.cls-2{fill:#c6c6c6;}.cls-3{fill:#ededed;}</style>
  </defs>
  <sodipodi:namedview
     id="base"
     pagecolor="#ffffff"
     bordercolor="#666666"
     borderopacity="1.0"
     inkscape:pageopacity="0.0"
     inkscape:pageshadow="2"
     inkscape:zoom="0.9336066"
     inkscape:cx="36.478919"
     inkscape:cy="228.95216"
     inkscape:document-units="mm"
     inkscape:current-layer="_ÎÓÈ_1"
     inkscape:document-rotation="0"
     showgrid="false"
     inkscape:window-width="1728"
     inkscape:window-height="1080"
     inkscape:window-x="0"
     inkscape:window-y="37"
     inkscape:window-maximized="0"
     fit-margin-top="0"
     fit-margin-left="0"
     fit-margin-right="0"
     fit-margin-bottom="0" />
  <metadata
     id="metadata5">
    <rdf:RDF>
      <cc:Work
         rdf:about="">
        <dc:format>image/svg+xml</dc:format>
        <dc:type
           rdf:resource="http://purl.org/dc/dcmitype/StillImage" />
        <dc:title></dc:title>
      </cc:Work>
    </rdf:RDF>
  </metadata>
  <g
     transform="translate(0,0)"
     inkscape:label="Layer 1"
     inkscape:groupmode="layer"
     id="layer1">
    <g
       id="_ÎÓÈ_1"
       transform="matrix(0.10386289,0,0,0.08513003,0.03635585,0.00104337)">
      <path
         id="outline"
         d="m 700.19,210.31 c 34.56,0.25 38.23,40.96 28.84,78.52 -7.67,30.74 -21.29,57.05 -46.47,65.7 -7.99,37.41 -8.37,82.43 -12.82,123.39 9.49,13.33 25.28,20.06 38.46,28.84 39.33,26.23 79.1,55.83 118.59,83.33 45.05,4.31 95.77,9.22 131.4,25.64 31.98,14.74 53.76,39.34 72.11,68.91 17.09,27.53 36.83,62.58 40.06,99.35 3.72,42.33 -1.37,93.89 -9.61,131.4 -2.6,11.83 -9.44,25.85 -9.61,36.86 -0.13,8.57 5.13,23.43 8.01,35.26 13.03,53.48 20.93,117.28 16.03,189.09 -1.74,25.54 -8.31,52.87 -6.41,76.92 1.65,20.91 13.78,42.42 20.83,60.89 8.23,21.55 13.57,41.43 16.02,65.7 4.87,48.04 -1.69,98.45 -11.22,145.83 -13.44,66.84 -25.63,137.53 -32.05,213.13 -2.16,25.53 -5.66,52.95 -4.81,76.92 0.86,23.88 8.73,49.5 12.82,73.71 5.39,31.9 16.55,66.35 6.42,94.55 -3.32,9.22 -7.78,13.23 -16.03,22.43 -5.53,6.17 -8.73,15.46 -14.42,22.43 -5.35,6.56 -13.8,9.75 -20.83,17.63 -9.07,10.15 -12.41,17.81 -17.63,19.23 -14.7,4.03 -34.95,-2.74 -48.07,-6.41 -11.82,-3.31 -29.48,-8.44 -36.86,-16.03 -8.58,-8.81 -7.61,-21.84 -12.82,-32.05 -6.14,-12.03 -16.07,-12.95 -22.43,-20.83 -16.45,125.44 -34.41,247.77 -78.52,349.34 -8.01,18.43 -18.5,36.75 -20.83,59.29 -2.53,24.5 2.08,49.63 -1.6,75.32 -1.58,11.01 -6.68,22.63 -6.42,33.65 0.47,19.73 10.8,41.42 16.03,62.5 14.62,58.92 28.49,128.01 28.84,201.91 0.46,97.88 -26.74,186.12 -51.28,269.21 -17.03,57.7 -34.94,125.39 -46.47,193.9 -4.44,26.4 -12.61,55.98 -8.01,80.12 3.87,20.35 20.57,41.55 35.25,60.89 11.19,14.74 19.74,24.99 35.26,36.86 5.3,4.05 11.11,11.44 16.03,12.82 25.36,7.12 56.79,14.37 56.09,38.46 -0.41,14.03 -10.57,20.2 -35.25,20.83 -18.17,0.46 -36.3,0 -54.49,0 -37.29,0 -78.19,5.58 -108.97,1.6 -8.57,-1.11 -15.69,-6.96 -27.24,-8.01 -26.33,-2.4 -51.66,6.52 -60.9,-8.01 -11.71,-18.43 15.06,-70.81 14.42,-92.94 -0.37,-12.83 -6.72,-25.78 -6.41,-38.46 0.48,-19.4 10,-39.78 12.83,-60.89 13.67,-102.26 9.25,-243.81 -9.61,-341.33 -7.7,-39.77 -23.04,-76.94 -25.65,-120.18 -5.44,9.31 -4.42,20.01 -6.41,30.45 -5.6,29.48 -15.22,58.93 -20.83,89.74 -17.87,98.1 -21.63,236.7 -6.41,341.33 1.6,10.97 3.49,19.71 6.41,30.45 2.42,8.88 6.02,20.03 6.41,28.84 0.59,13.47 -6.34,26.13 -6.41,38.46 -0.19,32.88 23.98,60.35 16.03,94.54 -7.46,13.84 -38.2,6.7 -59.29,8.01 -12.77,0.79 -20.08,8.01 -35.25,8.01 H 350.88 c -34.61,0 -83.42,5.17 -88.13,-14.42 -5.43,-22.6 18.13,-34.82 33.65,-40.06 5.49,-1.85 12.58,-2.05 19.24,-4.81 19.12,-7.93 40.5,-31.2 52.88,-48.08 11.34,-15.45 32.01,-42.62 35.25,-64.1 3.39,-22.36 -3.47,-49.96 -8.01,-75.32 -11.8,-65.81 -30.77,-138.37 -48.08,-197.1 -24.47,-83.06 -54.48,-168.53 -54.48,-272.42 0,-84.69 17.24,-159.81 35.25,-230.75 2.48,-9.75 7.64,-20.16 8.01,-28.84 0.79,-18.13 -8.17,-37.95 -9.61,-57.69 -1.61,-22.18 1.96,-50.04 -3.2,-68.91 -8.02,-29.34 -25.35,-56.64 -35.25,-88.13 -27.98,-88.94 -53.25,-196.33 -62.49,-302.87 -5.4,0.79 -14.32,7.47 -19.24,12.82 -7.74,8.43 -8.55,31.33 -17.63,40.06 -8.92,8.59 -25.49,10.9 -38.46,14.42 -17.91,4.85 -42.99,15.18 -56.08,0 -1.99,-2.3 -2.73,-8.81 -6.41,-12.82 -5.83,-6.35 -14.57,-10.11 -20.83,-17.63 -12.95,-15.54 -26.42,-27.58 -32.05,-43.27 -8.38,-23.35 -0.78,-58.49 4.81,-91.34 4.12,-24.23 11.21,-49.03 12.82,-68.91 1.95,-24.08 -2.49,-51.47 -4.81,-78.52 -6.39,-74.56 -18.2,-147.29 -32.05,-216.33 -9.42,-46.93 -19.92,-93.31 -14.42,-147.43 2.46,-24.24 8.26,-45.7 16.02,-67.3 7.22,-20.08 19.26,-40.96 20.83,-60.89 1.85,-23.41 -6.51,-49.44 -8.01,-75.32 -3.96,-68.36 1.48,-134.98 14.42,-190.69 2.67,-11.48 8,-24 8.01,-33.65 C 52.85,946.04 47.5,933.08 44.82,921.81 37.15,889.56 31.68,846.41 32,804.83 32.33,760.55 50.09,724.7 68.86,692.66 c 17.57,-30.01 42.53,-60.13 73.71,-75.31 26.91,-13.11 61.83,-18.23 94.54,-22.43 10.76,-1.38 14.57,-0.11 25.8,-3.21 11.51,-3.18 34.73,-15.63 46.31,-24.04 36.24,-26.29 76.13,-49.18 115.23,-75.32 -6.43,-43.77 -4.89,-95.53 -14.42,-136.21 -4.42,-6.04 -19.01,-8.91 -25.64,-17.63 -5.49,-7.23 -17.44,-34.46 -20.83,-46.47 -9.84,-34.83 -8.08,-82.45 28.84,-80.12 -2.6,-21.53 -7.76,-40.43 -8.01,-59.29 -0.65,-49.65 31.08,-93.38 64.11,-116.98 23.32,-16.7 58.44,-32.68 91.29,-35.26 71.56,-5.63 144.47,50.7 163.6,115.38 9.26,31.3 1.96,60.89 -3.2,94.55 v 0 z m 126.6,980.71 c -5.26,11.44 -14.97,23.63 -16.03,32.05 -0.92,7.38 2.06,21.63 3.2,32.05 4.98,45.16 11.12,97.06 1.6,137.81 32.08,50.92 22.31,125.08 33.65,190.69 3.57,20.65 10.05,41.59 14.42,60.89 19.45,85.77 18.65,180.22 25.64,275.62 8.33,-29.54 29.77,-54.54 40.06,-86.53 5.96,-18.52 8.57,-42.61 11.22,-65.7 2.68,-23.28 6.58,-49.07 6.42,-72.11 -0.27,-34.75 -13.71,-64.76 -25.65,-97.75 -10.91,-30.15 -20.2,-63.23 -28.84,-94.54 -15.59,-56.5 -15.79,-110.5 -3.21,-161.85 6.38,-26.01 18.79,-65.14 12.82,-96.15 -4.74,-24.65 -18.1,-49.7 -24.04,-76.92 -5.79,-26.54 -9.78,-63.96 -14.42,-89.74 -9.78,36.52 -21.54,78.85 -36.85,112.17 v 0 z M 227.46,1175 c -6.02,28.2 -21.32,53.61 -24.04,80.12 -4.17,40.78 11.38,64.83 17.63,94.55 13.51,64.2 5.01,126.64 -12.82,182.68 -8.09,25.45 -14.6,53.53 -24.04,80.12 -10.15,28.59 -20.53,54.32 -20.83,84.93 -0.2,20.91 3.67,42.72 6.41,64.1 2.77,21.54 4.53,43.52 9.61,62.5 9.55,35.68 30.06,65.92 44.87,97.75 3.52,-95.59 3.16,-187.3 19.23,-264.41 5.53,-26.52 14.16,-53.03 17.63,-76.92 7.54,-51.98 3.3,-104.17 16.03,-147.43 4.1,-13.92 13.36,-28.29 14.42,-41.66 1.07,-13.45 -4.21,-28.06 -4.81,-41.66 -1.86,-42.45 4.56,-84.72 9.61,-126.6 -26.56,-39.67 -39.17,-93.3 -56.09,-142.62 -3.25,32.98 -6.38,64.41 -12.82,94.54 v 0 z m 325.31,693.87 c -1.94,154.88 -3.15,305.57 -22.44,442.28 -2.76,19.55 -11.98,38.97 -11.21,56.09 0.56,12.81 8.79,26.49 11.21,40.06 5.89,32.91 5.41,71.38 1.6,104.16 -2.21,19.06 -8.92,35.61 -8.01,54.48 1.25,25.66 11.89,48.17 19.23,72.11 7.79,25.35 12.41,50.14 16.03,75.32 -1.55,-52.57 35.53,-99.54 33.65,-155.44 -0.69,-20.39 -8.35,-40.57 -9.62,-60.89 -1.64,-26.52 -2.91,-55.85 0,-81.73 1.86,-16.54 12.73,-33.5 12.83,-49.68 0.09,-16.46 -8.2,-35.36 -11.22,-54.48 -21.61,-136.87 -23.02,-292.24 -25.63,-443.88 -2.17,0.51 -3.06,2.28 -6.41,1.6 v 0 z"
         class="cls-1" />
      <path
         id="inner_outline"
         d="m 443.64,561.25 c -7.24,-3.18 -7.95,-14.65 -9.61,-22.43 -2.06,-9.66 -3.52,-19.65 -4.81,-28.84 -42.06,23.64 -93.2,53.34 -132.12,80.12 25.41,2.17 33.72,13.35 -3.94,16.02 -73.48,3.47 -142.12,13.93 -179.47,51.28 -27.11,27.11 -62.19,86.77 -65.7,133 -3.22,42.38 3.46,93.64 11.21,126.6 3,12.76 7.8,26.13 8.01,38.46 0.38,22 -9.87,46.44 -14.42,70.51 -9.37,49.56 -10.88,103.14 -6.41,158.64 2.22,27.57 9.92,55.15 6.41,80.12 -3.23,23.03 -18.01,44.24 -25.64,67.3 -19.03,57.48 -12.15,122.25 0,182.68 16.66,82.84 31.28,163.72 38.46,251.59 1.5,18.41 3.92,38.79 3.2,56.09 -0.97,23.38 -8.87,49.52 -12.82,73.71 -1.97,12.05 -4.63,24.5 -6.41,36.86 -1.93,13.43 -4.81,28.69 -3.21,40.06 3.02,21.45 25.54,30.49 33.65,51.28 15.12,2.86 20.21,25.58 32.05,28.84 15.05,4.15 61.02,-12.29 67.3,-19.23 7.28,-8.04 6.03,-23.02 11.22,-32.05 8.25,-14.37 22.81,-15.7 25.64,-27.24 2.92,-11.92 -2.78,-39.89 -9.61,-56.09 -12.73,-30.17 -32.87,-54.49 -41.66,-86.53 -4.33,-15.81 -5.59,-35.57 -8.01,-56.09 -2.27,-19.21 -6.85,-39.06 -8.01,-57.69 -2.66,-42.86 4.83,-72.14 16.03,-102.56 7.6,-20.65 14.64,-40.68 20.84,-60.89 12.35,-40.3 27.36,-84.8 27.24,-134.61 -0.05,-21.3 -2.37,-43.84 -6.41,-64.1 -3.73,-18.74 -12.14,-35.98 -16.02,-54.48 -11,-52.44 11.84,-86.49 20.83,-126.6 13.25,-59.08 16.76,-128.75 16.03,-198.71 -0.09,-8.47 -3.64,-20.85 1.37,-28.87 -24.83,-44.65 -47.2,-127.89 -40.12,-141.13 9.43,-33.96 21.66,-48.65 37.97,-63.71 -6.22,15.44 -12.44,30.89 -18.66,46.33 -5.15,15.87 -6,31.74 -2.57,47.62 12.58,69.71 41.48,114.54 90.09,129.35 36.67,6.03 74.86,1.52 113.26,-4.5 -32.98,16.52 -77.06,23.16 -140.93,12.23 -14.2,-3.81 -19.1,-6.72 -25.15,-11.59 -0.13,5.38 -0.83,11.04 -0.83,15.87 0,14.78 -1.25,32.01 0,43.27 2.28,20.39 10.42,42.51 16.03,62.5 14.85,52.86 33.2,101.17 54.49,144.22 4.21,8.51 11.62,17.18 9.61,27.24 -6.77,7.17 -10.81,-15.75 -14.42,-6.41 -10.39,66.75 -5.34,139.07 11.22,192.3 2.87,9.23 10.73,19.44 6.4,28.84 -10.53,-2.05 -11.99,-13.92 -16.03,-22.44 -4.07,-8.6 -8.78,-17.77 -12.82,-25.64 -9.48,25.26 -12.17,51.39 -14.42,78.52 -2.42,29.25 -1.68,60.67 -6.4,88.14 -2.66,15.42 -7.88,31.35 -11.22,46.47 -10.61,48.07 -19.22,99.19 -20.83,157.04 -2.1,75.66 -10.43,153.07 -1.6,227.55 12.03,101.48 36.99,199.92 65.7,286.84 9.74,29.48 28.88,56.1 33.65,84.93 3.11,18.76 -1.19,35.07 0,52.88 1.26,18.75 4.78,37.69 8.01,54.48 3.34,17.33 10.93,33.36 9.62,49.67 -7.53,8.73 -14.26,-9.89 -16.03,-1.6 -37.56,123.34 -45.82,262.95 -9.61,394.21 28.7,103.99 61.49,200.6 80.12,314.08 2.84,17.31 6.95,35.56 6.41,51.28 -0.77,22.4 -8.54,36.09 -17.63,51.28 -14.33,23.96 -31.46,44.86 -49.67,60.9 -2.73,2.4 -12.1,9.63 -6.41,9.61 9.7,-0.89 21.22,1.19 32.04,1.6 10.55,0.39 23.19,-2.87 30.45,3.2 -11.86,6.05 -28.42,4.96 -44.87,6.41 -37.24,3.29 -77.37,1.1 -86.53,28.84 14.11,5.77 29.73,3.2 44.87,3.2 15.14,0 32.25,-0.23 48.07,0 31.01,0.44 62.52,4.25 91.34,0 7.47,-1.1 13.71,-5.46 20.83,-6.41 18.63,-2.47 35.62,3.09 52.88,-1.6 3.18,-32.76 -17.96,-56.21 -17.63,-86.53 0.14,-12.32 7.1,-24.71 6.41,-38.46 -0.75,-14.95 -8.31,-28.39 -11.21,-43.27 -3.14,-16.1 -3.31,-33.72 -4.81,-49.68 -10,-106.4 -7.63,-208.72 11.22,-310.88 5.98,-32.42 15.4,-60.99 20.83,-89.74 12.65,-67.02 7.03,-139.96 -11.22,-197.1 -8.95,-28.04 -21.18,-59.51 -20.83,-89.74 0.23,-20.1 8.37,-39.09 9.61,-57.69 1.71,-25.41 2.44,-52.66 0,-78.52 -1.52,-16.24 -11.43,-32.6 -12.82,-49.68 -2.15,-26.36 8.11,-43.86 11.22,-67.3 18.59,-140.33 20.04,-293.62 22.43,-448.69 10.13,-2.84 30.83,-3.3 36.86,3.21 -1.3,153.01 5.39,310.15 24.04,442.28 2.67,18.98 9.68,37.76 11.21,56.09 2.12,25.2 -7.94,35 -11.21,52.88 -6.65,36.29 -3.2,83.75 3.2,115.38 2.43,12 6.43,23.33 6.41,35.25 -0.04,30.21 -11.97,59.52 -20.83,88.13 -18.94,61.09 -19.43,129.56 -8.01,193.9 5.05,28.49 14.53,57.23 20.83,89.74 13.3,68.59 16.93,135.19 17.63,201.91 0.57,53.78 -0.74,108.7 -8.01,155.44 -2.33,15 -9.86,29.29 -11.21,44.87 -1.37,15.78 6.43,28.16 6.4,43.27 -0.02,12.91 -6.32,28.4 -9.61,41.66 -3.45,13.88 -8.46,27.32 -8.02,43.27 16.59,7.41 34.92,-1.64 56.09,1.6 6.47,0.99 12.47,5.43 19.23,6.41 27.93,4.07 61.98,0 92.95,0 23.8,0 48.26,-0.57 67.3,-1.6 6.39,-0.35 16.03,3.02 20.83,-3.2 3.84,-9.9 -7.95,-14.4 -14.42,-17.63 -22.38,-11.18 -69.25,-9.45 -96.15,-12.82 -6.4,-0.8 -16.07,2.12 -19.23,-4.81 17.99,-4.45 41.92,-2.95 64.1,-3.2 -11.99,-14.39 -28.62,-28.19 -41.66,-46.47 -17.84,-25.01 -36.55,-50.29 -33.65,-91.34 4.37,-61.75 21.63,-123.6 36.86,-184.28 14.47,-57.65 32.64,-115.12 48.07,-174.67 32.47,-125.23 23.84,-258.94 -14.42,-387.8 -4.85,-5.01 -1.55,5.24 -6.41,4.81 -3.59,3.61 -8.03,-0.11 -11.21,-1.6 4.65,-30.49 15.06,-60.31 17.62,-96.15 1.31,-18.25 -2.22,-37.79 0,-57.69 3.15,-28.16 22.19,-57.14 32.05,-86.53 29.5,-87.88 53.51,-188.24 64.1,-291.65 7.82,-76.3 -0.52,-152.35 -3.2,-227.55 -2.06,-57.5 -10.38,-109.58 -20.84,-157.04 -3.62,-16.44 -10.31,-31.77 -12.81,-48.07 -8.08,-52.48 -1.99,-110.94 -20.84,-160.25 -5.82,1.09 -4.33,8.27 -6.41,12.82 -1.95,4.25 -5.76,8.2 -8.01,12.82 -3.86,7.9 -5.65,23.23 -16.02,20.83 0.59,-15.22 8.42,-30.99 12.82,-48.07 13.43,-52.09 13.04,-117.5 3.2,-174.67 -4.23,-3.64 -6.08,15.57 -14.42,8.01 4.71,-18.35 14.21,-35.86 22.44,-54.48 16,-36.22 28.75,-72.94 40.06,-113.77 5.69,-20.53 13.89,-41.64 16.03,-62.5 1.14,-11.14 0,-29.13 0,-44.87 0,-5.52 -0.87,-12.32 -0.82,-18.57 -7.91,6.6 -11.78,9.83 -28.42,14.29 -63.87,10.94 -107.95,4.29 -140.93,-12.23 38.4,6.02 76.59,10.54 113.26,4.5 48.62,-14.8 77.51,-59.63 90.09,-129.35 3.43,-15.88 2.57,-31.75 -2.57,-47.62 -6.22,-15.44 -12.44,-30.89 -18.66,-46.33 16.31,15.06 28.53,29.75 37.97,63.71 6.87,12.84 -14,91.62 -37.93,137.07 7.94,9.38 4.05,24.07 4.05,34.53 0,75.89 4.09,144.21 19.23,201.91 6.2,23.59 17.23,45.54 20.83,67.3 6.18,37.35 -7.72,70.08 -14.42,97.75 -3.97,16.4 -6.98,33.62 -8.01,51.28 -4.17,71.84 21.55,139.34 40.06,193.9 13.94,41.07 28.9,74.1 25.64,126.6 -2.54,40.86 -9.29,100.31 -24.04,136.21 -13.89,33.82 -50.02,83.32 -41.66,118.58 3.6,15.2 20.44,16.32 27.24,28.84 4.98,9.17 3.71,24.4 11.22,32.05 15.15,15.43 46.25,13.07 67.3,19.23 5.95,-5.07 10.12,-11.48 16.03,-17.63 5.67,-5.9 12.58,-9.86 17.63,-16.02 2.31,-2.83 2.6,-8.2 4.81,-11.22 7.37,-10.05 20.85,-18.01 24.03,-28.84 6.45,-21.93 -3.61,-54.97 -8.01,-81.73 -4.08,-24.87 -11.13,-49.76 -12.82,-72.11 -2.66,-35.07 2.55,-75.78 6.41,-113.77 3.6,-35.38 8.83,-71.62 14.42,-105.76 11.73,-71.65 34.21,-139.45 28.84,-213.13 -1.8,-24.75 -8.84,-48.48 -17.63,-72.11 -8.28,-22.27 -21.27,-46.19 -22.44,-67.3 -1.27,-23.26 6.5,-49.44 8.01,-75.32 3.21,-54.65 1.7,-108.44 -8.01,-155.44 -4.86,-23.54 -16.27,-48.12 -16.02,-68.91 0.13,-11.32 5.15,-23.31 8.01,-35.25 8.31,-34.76 13.72,-79.88 11.22,-120.19 -1.92,-31.03 -13.33,-58.66 -27.24,-83.33 -13.93,-24.71 -27.57,-47 -46.47,-64.1 -41.87,-37.87 -107.92,-37.96 -176.27,-46.47 -33.21,-2.62 -28.7,-14.08 -6.4,-14.42 -45.28,-28.44 -84.92,-62.5 -133,-88.14 -1.78,9.47 -5.54,20.47 -8.02,32.05 -2.1,9.83 0.05,26.29 -11.22,28.84 3.85,-42.63 7.7,-85.24 11.22,-128.2 -25.1,20.12 -46.07,56.86 -78.52,70.51 -21.31,8.97 -42.15,10.64 -67.46,0 -33.27,-14 -50.58,-46.34 -76.91,-70.51 -0.98,0.09 -1.9,0.24 -1.61,1.6 2.58,41.76 9.82,87.4 9.61,126.59 v 0 z m 83.01,769.41 c 12.63,-30.37 39.83,-27.49 50.17,0.38 -30.77,-27.51 -47.23,11.76 -50.17,-0.38 z M 481.56,620.52 c 8.26,1.74 14.48,4.11 22.97,4.11 13.17,0 25.1,5.95 28.75,18.5 1.1,3.8 14.79,36.14 -2.49,16.81 -6.65,-7.44 -5.84,-21.31 -19.89,-23.73 -7.6,-1.31 -36.43,-16.44 -29.34,-15.69 z m 138.2,0 c -8.26,1.74 -14.48,4.11 -22.97,4.11 -13.17,0 -25.1,5.95 -28.75,18.5 -1.1,3.8 -14.79,36.14 2.49,16.81 6.65,-7.44 5.84,-21.31 19.89,-23.73 7.6,-1.31 36.43,-16.44 29.34,-15.69 z M 429.2,2334.44 c 17.63,28.86 57.98,43.91 60.48,29.99 1.59,2.81 8.73,15.89 -12.58,17.2 -9.62,0 -27.91,-10.99 -34.77,-17.86 -9.4,-9.4 -11.56,-19.55 -13.13,-29.33 z m -19.88,15.94 c -12.83,13.18 -20.35,21.06 -41.56,23.11 4.25,4.46 9.2,9.95 27.19,6.16 13.38,-8.04 14.73,-18.49 14.37,-29.27 z m -31.06,79.8 c 3.51,35.5 7.6,79.91 26.81,96.74 6.85,7.21 20.69,10.22 37.61,14.53 -15.62,6.41 -37.45,2.84 -54.07,-7.79 -14.82,-9.51 -23.31,-93.78 -10.34,-103.47 v 0 z m 112.72,-19.66 c -0.23,18.78 0.16,86.99 -7.91,103.78 -3.91,8.14 -15.13,15.57 -24.12,18.38 15.62,6.41 13.56,7.09 30.18,-3.54 14.82,-9.51 14.82,-108.93 1.85,-118.61 v 0 z m 197.9,-76.09 c -17.63,28.86 -57.98,43.91 -60.48,29.99 -1.59,2.81 -8.73,15.89 12.58,17.2 9.62,0 27.91,-10.99 34.77,-17.86 9.4,-9.4 11.56,-19.55 13.13,-29.33 z m 19.88,15.94 c 12.83,13.18 20.35,21.06 41.56,23.11 -4.25,4.46 -9.2,9.95 -27.19,6.16 -13.38,-8.04 -14.73,-18.49 -14.37,-29.27 z m 31.06,79.8 c -3.51,35.5 -7.6,79.91 -26.81,96.74 -6.85,7.21 -20.69,10.22 -37.61,14.53 15.62,6.41 37.45,2.84 54.07,-7.79 14.82,-9.51 23.31,-93.78 10.34,-103.47 v 0 z M 627.1,2410.51 c 0.23,18.78 -0.16,86.99 7.91,103.78 3.91,8.14 15.13,15.57 24.12,18.38 -15.62,6.41 -13.56,7.09 -30.18,-3.54 -14.82,-9.51 -14.82,-108.93 -1.85,-118.61 v 0 z M 687.37,219.92 c 1.76,-18.41 4.03,-35.08 4.81,-52.88 C 694.24,120.26 678.71,91.01 656.93,67.69 633.97,43.11 590.88,19.04 551.17,16.41 506.1,13.42 465.09,36.16 435.65,67.69 c -16.98,18.18 -32.88,44 -35.26,75.32 -2.2,28.97 2.88,55.02 4.81,78.52 0.56,6.91 6.52,18.89 -3.2,24.04 -10.63,-0.06 -1.82,-19.55 -14.43,-17.62 -12.3,0.54 -14.18,20.11 -12.82,36.85 2.22,27.28 17.29,61.92 32.05,70.51 -0.61,-7.55 0.13,-13.76 8.01,-12.82 11.11,24.26 8.51,51.73 17.63,75.32 8.48,21.93 25.79,39.69 41.67,56.09 19.56,20.2 40.49,39.9 72.11,41.66 38.12,2.12 52.59,-21.35 72.26,-41.66 26.67,-27.54 41.95,-50.09 49.68,-94.55 2.39,-13.74 2.58,-30.28 11.22,-36.86 6.52,-0.12 6.9,5.92 6.4,12.82 15.32,-8.83 39.23,-60.33 32.05,-92.94 -1.59,-7.24 -8.01,-16.58 -14.42,-14.42 -10.27,3.45 -1.36,14.95 -14.42,17.62 -6.75,-7.34 -2.34,-17.86 -1.6,-25.64 v 0 z"
         class="cls-2" />
      <path
         id="deltoid_inner_right"
         d="m 347.15,634.59 c -82.21,36.27 -158.32,110.83 -210.01,239.53 -9.89,5.11 -24.68,-2.52 -14.65,-67.22 14.48,-53.91 7.93,-84.96 63.49,-162.54 45.56,-48.33 172.25,-28.24 161.17,-9.78 v 0 z"
         class="cls-3" />
      <path
         id="deltoid_outter_right"
         d="M 185.27,635.71 C 124.3,695.68 95.32,817.03 112.18,899.09 99.69,944.72 85.32,973.17 75.64,945.98 38.12,798.59 68.5,708.88 138.41,651.53 c 8.69,-6.45 42.2,-22.13 46.85,-15.82 v 0 z"
         class="cls-3" />
      <path
         id="biceps_brachii_right"
         d="m 188,876.7 c -7.39,-37.28 -16.98,-60.1 -41.91,18.34 -47.28,108.84 -39.96,215.57 -41.91,320.88 4.73,77.1 38.38,66.95 66.8,27.5 33.1,-57.21 64.84,-234.4 17.03,-366.72 v 0 z"
         class="cls-3" />
      <path
         id="triceps_brachii_right"
         d="m 94.05,965.18 c 20.62,-26.62 24.96,-21.73 13.03,14.67 -12.36,76.43 -20.16,152.2 -10.58,246.11 0,30.23 -24.15,39.78 -31.75,15.48 -16.27,-113.91 -19.7,-216.82 29.31,-276.27 v 0 z"
         class="cls-3" />
      <path
         id="flexor_carpi_radialis_right"
         d="m 54.58,1308.46 c 21.42,-64.72 91.72,-35.85 86.6,51.68 15.76,133.11 -12.4,251.43 0,391.1 -4.19,42.37 -13.04,45.63 -20.95,9.78 C 102.9,1586.16 22.61,1404.91 54.58,1308.46 Z"
         class="cls-3" />
      <path
         id="brachioradialis_right"
         d="m 27.56,1424.55 c 8.8,-61.41 12.88,-5.74 18.74,27.73 18.2,113.18 59.03,222.43 66.82,333.61 -0.54,24.61 -24.18,30.32 -33.41,21.21 0.76,-111.27 -58.28,-341.92 -52.16,-382.56 v 0 z"
         class="cls-3" />
      <path
         id="flexor_carpi_ulnaris_right"
         d="m 175.9,1293.34 c -18.42,-16.55 -26.86,-8.12 -25.3,25.3 7.87,87.35 15.54,174.68 -1.87,259.51 -1.25,36.23 3.75,41.22 14.99,14.99 36.58,-97.9 55.65,-196.9 12.18,-299.8 z"
         class="cls-3" />
      <path
         id="deltoid_inner_left"
         d="m 755.94,634.59 c 82.21,36.27 158.32,110.83 210.01,239.53 9.89,5.11 24.68,-2.52 14.65,-67.22 -14.48,-53.91 -7.93,-84.96 -63.49,-162.54 -45.56,-48.33 -172.25,-28.24 -161.17,-9.78 v 0 z"
         class="cls-3" />
      <path
         id="deltoid_outter_left"
         d="m 917.82,635.71 c 60.97,59.97 89.95,181.32 73.09,263.38 12.49,45.63 26.86,74.08 36.54,46.89 37.52,-147.39 7.14,-237.1 -62.77,-294.45 -8.69,-6.45 -42.2,-22.13 -46.85,-15.82 v 0 z"
         class="cls-3" />
      <path
         id="biceps_brachii_left"
         d="m 920.77,876.7 c 7.39,-37.28 16.98,-60.1 41.91,18.34 47.28,108.84 39.96,215.57 41.91,320.88 -4.73,77.1 -38.38,66.95 -66.8,27.5 -33.1,-57.21 -64.84,-234.4 -17.03,-366.72 v 0 z"
         class="cls-3" />
      <path
         id="triceps_brachii_left"
         d="m 1014.72,965.18 c -20.62,-26.62 -24.96,-21.73 -13.03,14.67 12.36,76.43 20.15,152.2 10.58,246.11 0,30.23 24.15,39.78 31.75,15.48 16.27,-113.91 19.7,-216.82 -29.31,-276.27 v 0 z"
         class="cls-3" />
      <path
         id="flexor_carpi_radialis_left"
         d="m 1054.19,1308.46 c -21.42,-64.72 -91.72,-35.85 -86.6,51.68 -15.76,133.11 12.4,251.43 0,391.1 4.19,42.37 13.04,45.63 20.95,9.78 17.33,-174.86 97.62,-356.11 65.65,-452.56 z"
         class="cls-3" />
      <path
         id="brachioradialis_left"
         d="m 1081.21,1424.55 c -8.8,-61.41 -12.88,-5.74 -18.74,27.73 -18.2,113.18 -59.03,222.43 -66.82,333.61 0.54,24.61 24.18,30.32 33.41,21.21 -0.76,-111.27 58.28,-341.92 52.16,-382.56 v 0 z"
         class="cls-3" />
      <path
         id="flexor_carpi_ulnaris_left"
         d="m 932.88,1293.34 c 18.42,-16.55 26.86,-8.12 25.3,25.3 -7.87,87.35 -15.54,174.68 1.87,259.51 1.25,36.23 -3.75,41.22 -14.99,14.99 -36.58,-97.9 -55.65,-196.9 -12.18,-299.8 z"
         class="cls-3" />
      <path
         id="trapezius_right"
         d="m 426.81,565.83 c 13.04,39.01 20.42,33.15 -24.53,30.03 -92.91,-6.45 -89.7,-4.3 -12.41,-46.39 36.67,-19.96 25.16,-18.86 36.94,16.36 z"
         class="cls-3" />
      <path
         d="m 449.37,474.18 c 1.81,36.62 19.66,92 35.91,116.85 23.75,36.32 52.45,31.62 48.61,14.75 -28.56,-40.34 -31.69,-86.95 -41.08,-101.05 -22.77,-14.55 -40.48,-50.5 -43.44,-30.55 z"
         class="cls-3"
         id="sternocleidomastoid_right" />
      <path
         id="pectoralis_major_top_right"
         d="m 382.1,636.39 c 33.03,-10.55 161.43,41.49 140.44,48.11 -88.27,28.41 -174.04,47.62 -272.34,112.8 -34.04,18.01 -36.78,9.79 -24.65,-23.5 C 250.07,697 310.57,663 382.1,636.39 Z"
         class="cls-3" />
      <path
         id="pectoralis_major_middle_right"
         d="m 277.21,789.79 c -18.48,9.82 -34.71,19.06 -44.06,25.35 -16.13,10.85 -14.75,16.52 4.42,12.28 19.7,-4.35 40.84,-4.3 60.88,-3.13 106.7,6.27 195.16,44.22 233.91,39.29 13.71,1.76 10.55,-154.88 -11.6,-155.23 -97.42,12.85 -168.65,37.61 -243.55,81.43 v 0 z"
         class="cls-3" />
      <path
         id="pectoralis_major_bottom_right"
         d="m 255.81,832.84 c -36.64,2.28 -36.89,7.52 -34.12,34.82 11.62,41.81 36.45,79.33 74.46,87.02 81.95,16.57 193.95,-22.65 208.4,-25.21 19.45,-6.38 43.4,-26.69 12.57,-44.39 -75.73,-36.27 -217.9,-57.74 -261.3,-52.23 v 0 z"
         class="cls-3" />
      <path
         id="rectus_abdominis_top_right"
         d="m 409.02,986.27 c -14.3,11.55 -25.31,64.37 -6.6,64.37 16.07,-1.12 26.3,-12.13 55.08,-15.35 23.84,-2.66 49.66,-0.44 64.58,-2.81 25.58,-12.65 23.11,-82.24 -0.83,-84.17 -41.81,2.1 -84.12,6.17 -112.23,37.96 z"
         class="cls-3" />
      <path
         id="rectus_abdominis_middle_top_right"
         d="m 402.06,1066.41 c 26.08,-17.59 90.97,-26.19 124.11,-16.8 15.53,7.39 15.18,76.51 5.42,101.88 -10.92,19.01 -75.36,7.45 -121.57,19.87 -32.41,12.47 -35.36,-85.05 -7.96,-104.94 v 0 z"
         class="cls-3" />
      <path
         id="rectus_abdominis_middle_bottom_right"
         d="m 403.76,1192.33 c 22.14,-13.34 80.96,-17.4 109.53,-14.3 33.89,2.52 26.03,101.83 12.14,110.09 -15.72,13.34 -12.14,24.54 -27.86,40.75 -12.38,8.34 -44.76,10.96 -63.57,19.3 -40.23,11.44 -52.15,-146.56 -30.25,-155.85 v 0 z"
         class="cls-3" />
      <path
         id="rectus_abdominis_bottom_right"
         d="m 428,1376.59 c 28.88,-16.57 57.76,-27.98 86.65,-24.76 18.77,4.96 21.77,15.41 21.46,25.58 2.52,81.46 2.26,160.15 2.48,239.31 -1.65,28.88 -32.18,52.81 -52.81,10.73 -43.46,-71.52 -88.57,-237.11 -57.76,-250.86 v 0 z"
         class="cls-3" />
      <path
         id="trapezius_left"
         d="m 665.93,565.83 c -13.04,39.01 -20.42,33.15 24.53,30.03 92.91,-6.45 89.7,-4.3 12.41,-46.39 -36.67,-19.96 -25.16,-18.86 -36.94,16.36 z"
         class="cls-3" />
      <path
         d="m 647.14,474.18 c -1.81,36.62 -19.66,92 -35.91,116.85 -23.75,36.32 -52.45,31.62 -48.61,14.75 28.56,-40.34 31.69,-86.95 41.08,-101.05 22.77,-14.55 40.48,-50.5 43.44,-30.55 z"
         class="cls-3"
         id="sternocleidomastoid_left" />
      <path
         id="pectoralis_major_top_left"
         d="m 718.2,636.39 c -33.03,-10.55 -161.43,41.49 -140.44,48.11 88.27,28.41 174.04,47.62 272.34,112.8 34.04,18.01 36.78,9.79 24.65,-23.5 C 850.23,697 789.73,663 718.2,636.39 Z"
         class="cls-3" />
      <path
         id="pectoralis_major_middle_left"
         d="m 823.09,789.79 c 18.48,9.82 34.71,19.06 44.06,25.35 16.13,10.85 14.75,16.52 -4.42,12.28 -19.7,-4.35 -40.84,-4.3 -60.88,-3.13 -106.7,6.27 -195.16,44.22 -233.91,39.29 -13.71,1.76 -10.55,-154.88 11.6,-155.23 97.42,12.85 168.65,37.61 243.55,81.43 v 0 z"
         class="cls-3" />
      <path
         id="pectoralis_major_bottom_left"
         d="m 844.49,832.84 c 36.64,2.28 36.89,7.52 34.12,34.82 -11.62,41.81 -36.45,79.33 -74.46,87.02 -81.95,16.57 -193.95,-22.65 -208.4,-25.21 -19.45,-6.38 -43.4,-26.69 -12.57,-44.39 75.73,-36.27 217.9,-57.74 261.3,-52.23 v 0 z"
         class="cls-3" />
      <path
         id="rectus_abdominis_top_left"
         d="m 691.28,986.27 c 14.3,11.55 25.31,64.37 6.6,64.37 -16.07,-1.12 -26.3,-12.13 -55.08,-15.35 -23.84,-2.66 -49.66,-0.44 -64.58,-2.81 -25.58,-12.65 -23.11,-82.24 0.83,-84.17 41.81,2.1 84.12,6.17 112.23,37.96 z"
         class="cls-3" />
      <path
         id="rectus_abdominis_middle_top_left"
         d="m 698.24,1066.41 c -26.08,-17.59 -90.97,-26.19 -124.11,-16.8 -15.53,7.39 -15.18,76.51 -5.42,101.88 10.92,19.01 75.36,7.45 121.57,19.87 32.41,12.47 35.36,-85.05 7.96,-104.94 v 0 z"
         class="cls-3" />
      <path
         id="rectus_abdominis_middle_bottom_left"
         d="m 696.54,1192.33 c -22.14,-13.34 -80.96,-17.4 -109.53,-14.3 -33.89,2.52 -26.03,101.83 -12.14,110.09 15.71,13.34 12.14,24.54 27.86,40.75 12.38,8.34 44.76,10.96 63.57,19.3 40.23,11.44 52.15,-146.56 30.25,-155.85 v 0 z"
         class="cls-3" />
      <path
         id="rectus_abdominis_bottom_left"
         d="m 672.3,1376.59 c -28.88,-16.57 -57.76,-27.98 -86.65,-24.76 -18.77,4.96 -21.77,15.41 -21.46,25.58 -2.52,81.46 -2.26,160.15 -2.48,239.31 1.65,28.88 32.18,52.81 52.81,10.73 43.46,-71.52 88.57,-237.11 57.76,-250.86 v 0 z"
         class="cls-3" />
      <path
         id="external_oblique_top_right"
         d="m 261.63,979.8 c -15.84,-3.13 -14.5,15.6 -3.79,21.83 30.71,31.21 79.64,74.91 111.91,82.69 9.29,2.75 0.98,-29.05 4.2,-53.94 3.43,-26.49 14.66,-49.84 3.88,-47.18 -32.49,9.45 -78.51,6.4 -116.2,-3.41 v 0 z"
         class="cls-3" />
      <path
         id="external_oblique_middle_right"
         d="m 259.23,1018.4 c 32.9,31.99 71.44,67.51 107.17,80.45 11.87,1.41 3.47,55.75 7.32,98.53 3.84,42.78 17.13,105.06 6.08,96.95 -37.01,-19.4 -83.31,-95.85 -118.45,-230.06 -12.99,-42.21 -11.32,-48.28 -2.11,-45.87 v 0 z"
         class="cls-3" />
      <path
         id="external_oblique_bottom_right"
         d="m 339.32,1278.53 c -22.62,-21.05 -26.08,-13.2 -27.33,23.56 -2.83,75.4 17.91,122.53 62.21,166.83 29.53,36.76 42.73,34.87 32.05,-11.31 -10.97,-55.83 0.03,-100.91 -66.92,-179.08 v 0 z"
         class="cls-3" />
      <path
         id="external_oblique_top_left"
         d="m 839.74,979.8 c 15.84,-3.13 14.5,15.6 3.79,21.83 -30.71,31.21 -79.64,74.91 -111.91,82.69 -9.29,2.75 -0.98,-29.05 -4.2,-53.94 -3.43,-26.49 -14.66,-49.84 -3.88,-47.18 32.49,9.45 78.51,6.4 116.2,-3.41 v 0 z"
         class="cls-3" />
      <path
         id="external_oblique_middle_left"
         d="m 842.14,1018.4 c -32.9,31.99 -71.44,67.51 -107.17,80.45 -11.87,1.41 -3.47,55.75 -7.32,98.53 -3.84,42.78 -17.13,105.06 -6.08,96.95 37.02,-19.4 83.31,-95.85 118.45,-230.06 12.99,-42.21 11.32,-48.28 2.11,-45.87 v 0 z"
         class="cls-3" />
      <path
         id="external_oblique_bottom_left"
         d="m 762.05,1278.53 c 22.62,-21.05 26.08,-13.2 27.33,23.56 2.83,75.4 -17.91,122.53 -62.21,166.83 -29.53,36.76 -42.73,34.87 -32.05,-11.31 10.97,-55.83 -0.03,-100.91 66.92,-179.08 v 0 z"
         class="cls-3" />
      <path
         id="gluteus_medius_right"
         d="m 293.52,1482 c 6.11,-65.64 58.17,37.6 41.48,78.15 -7.14,23.6 -17.2,45.73 -21.41,70.8 -6.83,34.1 -29.3,24.15 -26.35,-18.11 3.86,-40.18 -0.8,-89.68 6.28,-130.84 z"
         class="cls-3" />
      <path
         id="rectus_femoris_right"
         d="m 398.52,1561.35 c 80.74,137.31 78.23,188.77 24.68,436.97 -7.3,56.91 -15.52,94.23 -30.17,-5.48 -14.93,-141.39 -94.77,-248.96 -44.79,-424.17 9.45,-24.38 11.58,-76.18 50.28,-7.31 v 0 z"
         class="cls-3" />
      <path
         id="vastus_lateralis_right"
         d="m 276.94,1722.95 c 10.24,-68.15 22.27,-70.37 36.08,-6.68 50.36,197.51 92.77,391.83 89.53,567.9 -7.96,52.73 -20.4,91.14 -64.14,29.4 -78.23,-166.31 -104.39,-360.17 -61.47,-590.61 v 0 z"
         class="cls-3" />
      <path
         id="vastus_medialis_right"
         d="m 477.38,1824.5 c 20.04,-59.24 32.96,-50.78 38.75,25.39 8.02,151.44 4.45,308.22 -14.7,454.32 -5.34,62.8 -80.17,24.05 -84.18,-72.16 -6.07,-109.74 23.35,-254.96 60.13,-407.55 z"
         class="cls-3" />
      <path
         id="fibularis_longus_right"
         d="m 349.79,2601.54 c 19.29,-91.15 67.57,-37.84 90.3,103.23 23.24,138.08 -30.83,286.88 38.47,573.62 9.78,34.5 -3.45,45.47 -11.83,48.7 -12.25,4.73 -29.47,-12.47 -31.89,-25.97 -45.88,-265.06 -163.66,-449.57 -85.06,-699.59 v 0 z"
         class="cls-3" />
      <path
         id="gastrocnemius_right"
         d="m 473.07,2596.72 c -4.87,-62.25 22.73,-67.66 38.97,27.61 49.96,174.35 2.26,237.12 -12.99,347.52 -5.41,60.63 -22.19,59 -19.49,-21.11 -2.17,-118 16.78,-221.39 -6.5,-354.01 v 0 z"
         class="cls-3" />
      <path
         id="gluteus_medius_left"
         d="m 816.92,1482 c -6.11,-65.64 -58.17,37.6 -41.48,78.15 7.14,23.6 17.2,45.73 21.41,70.8 6.83,34.1 29.3,24.15 26.35,-18.11 -3.86,-40.18 0.8,-89.68 -6.28,-130.84 z"
         class="cls-3" />
      <path
         id="rectus_femoris_left"
         d="m 715.7,1561.35 c -80.74,137.31 -78.23,188.77 -24.68,436.97 7.3,56.91 15.52,94.23 30.17,-5.48 14.93,-141.39 94.77,-248.96 44.79,-424.17 -9.45,-24.38 -11.58,-76.18 -50.28,-7.31 v 0 z"
         class="cls-3" />
      <path
         id="vastus_lateralis_left"
         d="m 837.28,1722.95 c -10.25,-68.15 -22.27,-70.37 -36.08,-6.68 -50.36,197.51 -92.77,391.83 -89.53,567.9 7.96,52.73 20.4,91.14 64.14,29.4 78.23,-166.31 104.39,-360.17 61.47,-590.61 v 0 z"
         class="cls-3" />
      <path
         id="vastus_medialis_left"
         d="m 636.85,1824.5 c -20.04,-59.24 -32.96,-50.78 -38.75,25.39 -8.02,151.44 -4.45,308.22 14.7,454.32 5.34,62.8 80.17,24.05 84.18,-72.16 6.07,-109.74 -23.35,-254.96 -60.13,-407.55 z"
         class="cls-3" />
      <path
         id="fibularis_longus_left"
         d="m 764.43,2601.54 c -19.29,-91.15 -67.57,-37.84 -90.3,103.23 -23.24,138.08 30.83,286.88 -38.47,573.62 -9.78,34.5 3.45,45.47 11.83,48.7 12.25,4.73 29.47,-12.47 31.89,-25.97 45.88,-265.06 163.66,-449.57 85.06,-699.59 v 0 z"
         class="cls-3" />
      <path
         id="gastrocnemius_left"
         d="m 646.83,2596.72 c 4.87,-62.25 -22.73,-67.66 -38.97,27.61 -49.96,174.35 -2.26,237.12 12.99,347.52 5.41,60.63 22.19,59 19.49,-21.11 2.17,-118 -16.78,-221.39 6.5,-354.01 v 0 z"
         class="cls-3" />
    </g>
  </g>
</svg>
