<?xml version="1.0" encoding="UTF-8" standalone="no"?>
<svg
   xmlns:dc="http://purl.org/dc/elements/1.1/"
   xmlns:cc="http://creativecommons.org/ns#"
   xmlns:rdf="http://www.w3.org/1999/02/22-rdf-syntax-ns#"
   xmlns:svg="http://www.w3.org/2000/svg"
   xmlns="http://www.w3.org/2000/svg"
   xmlns:sodipodi="http://sodipodi.sourceforge.net/DTD/sodipodi-0.dtd"
   xmlns:inkscape="http://www.inkscape.org/namespaces/inkscape"
   sodipodi:docname="muscular_front.svg"
   inkscape:version="1.0 (4035a4f, 2020-05-01)"
   id="svg8"
   version="1.1"
   viewBox="0 0 1107.229 3488.7809"
   height="3488.7808mm"
   width="1107.229mm"
   inkscape:export-filename="/Users/colton.bristow/Desktop/fitstack/musclular svg/edited/SVG/muscular_front.png"
   inkscape:export-xdpi="96"
   inkscape:export-ydpi="96">
  <defs
     id="defs2">
    <style
       id="style1866">.cls-1{fill:#878787;}.cls-1,.cls-2,.cls-3{fill-rule:evenodd;}.cls-2{fill:#c6c6c6;}.cls-3{fill:#ededed;}</style>
  </defs>
  <sodipodi:namedview
     scale-x="4.1"
     fit-margin-bottom="0"
     fit-margin-right="0"
     fit-margin-left="0"
     fit-margin-top="0"
     inkscape:window-maximized="0"
     inkscape:window-y="37"
     inkscape:window-x="0"
     inkscape:window-height="1080"
     inkscape:window-width="1728"
     showgrid="false"
     inkscape:document-rotation="0"
     inkscape:current-layer="_ÎÓÈ_1"
     inkscape:document-units="mm"
     inkscape:cy="2849.6722"
     inkscape:cx="-240.40147"
     inkscape:zoom="0.084394221"
     inkscape:pageshadow="2"
     inkscape:pageopacity="0.0"
     borderopacity="1.0"
     bordercolor="#666666"
     pagecolor="#ffffff"
     id="base" />
  <metadata
     id="metadata5">
    <rdf:RDF>
      <cc:Work
         rdf:about="">
        <dc:format>image/svg+xml</dc:format>
        <dc:type
           rdf:resource="http://purl.org/dc/dcmitype/StillImage" />
        <dc:title></dc:title>
      </cc:Work>
    </rdf:RDF>
  </metadata>
  <g
     transform="translate(-0.04056951,-0.00114046)"
     id="layer1"
     inkscape:groupmode="layer"
     inkscape:label="Layer 1">
    <g
       id="_ÎÓÈ_1">
      <path
         class="cls-1"
         d="M 700.19,210.31 C 734.75,210.56 738.42,251.27 729.03,288.83 721.36,319.57 707.74,345.88 682.56,354.53 674.57,391.94 674.19,436.96 669.74,477.92 679.23,491.25 695.02,497.98 708.2,506.76 747.53,532.99 787.3,562.59 826.79,590.09 871.84,594.4 922.56,599.31 958.19,615.73 990.17,630.47 1011.95,655.07 1030.3,684.64 1047.39,712.17 1067.13,747.22 1070.36,783.99 1074.08,826.32 1068.99,877.88 1060.75,915.39 1058.15,927.22 1051.31,941.24 1051.14,952.25 1051.01,960.82 1056.27,975.68 1059.15,987.51 1072.18,1040.99 1080.08,1104.79 1075.18,1176.6 1073.44,1202.14 1066.87,1229.47 1068.77,1253.52 1070.42,1274.43 1082.55,1295.94 1089.6,1314.41 1097.83,1335.96 1103.17,1355.84 1105.62,1380.11 1110.49,1428.15 1103.93,1478.56 1094.4,1525.94 1080.96,1592.78 1068.77,1663.47 1062.35,1739.07 1060.19,1764.6 1056.69,1792.02 1057.54,1815.99 1058.4,1839.87 1066.27,1865.49 1070.36,1889.7 1075.75,1921.6 1086.91,1956.05 1076.78,1984.25 1073.46,1993.47 1069,1997.48 1060.75,2006.68 1055.22,2012.85 1052.02,2022.14 1046.33,2029.11 1040.98,2035.67 1032.53,2038.86 1025.5,2046.74 1016.43,2056.89 1013.09,2064.55 1007.87,2065.97 993.17,2070 972.92,2063.23 959.8,2059.56 947.98,2056.25 930.32,2051.12 922.94,2043.53 914.36,2034.72 915.33,2021.69 910.12,2011.48 903.98,1999.45 894.05,1998.53 887.69,1990.65 871.24,2116.09 853.28,2238.42 809.17,2339.99 801.16,2358.42 790.67,2376.74 788.34,2399.28 785.81,2423.78 790.42,2448.91 786.74,2474.6 785.16,2485.61 780.06,2497.23 780.32,2508.25 780.79,2527.98 791.12,2549.67 796.35,2570.75 810.97,2629.67 824.84,2698.76 825.19,2772.66 825.65,2870.54 798.45,2958.78 773.91,3041.87 756.88,3099.57 738.97,3167.26 727.44,3235.77 723,3262.17 714.83,3291.75 719.43,3315.89 723.3,3336.24 740,3357.44 754.68,3376.78 765.87,3391.52 774.42,3401.77 789.94,3413.64 795.24,3417.69 801.05,3425.08 805.97,3426.46 831.33,3433.58 862.76,3440.83 862.06,3464.92 861.65,3478.95 851.49,3485.12 826.81,3485.75 808.64,3486.21 790.51,3485.75 772.32,3485.75 735.03,3485.75 694.13,3491.33 663.35,3487.35 654.78,3486.24 647.66,3480.39 636.11,3479.34 609.78,3476.94 584.45,3485.86 575.21,3471.33 563.5,3452.9 590.27,3400.52 589.63,3378.39 589.26,3365.56 582.91,3352.61 583.22,3339.93 583.7,3320.53 593.22,3300.15 596.05,3279.04 609.72,3176.78 605.3,3035.23 586.44,2937.71 578.74,2897.94 563.4,2860.77 560.79,2817.53 555.35,2826.84 556.37,2837.54 554.38,2847.98 548.78,2877.46 539.16,2906.91 533.55,2937.72 515.68,3035.82 511.92,3174.42 527.14,3279.05 528.74,3290.02 530.63,3298.76 533.55,3309.5 535.97,3318.38 539.57,3329.53 539.96,3338.34 540.55,3351.81 533.62,3364.47 533.55,3376.8 533.36,3409.68 557.53,3437.15 549.58,3471.34 542.12,3485.18 511.38,3478.04 490.29,3479.35 477.52,3480.14 470.21,3487.36 455.04,3487.36 H 350.88 C 316.27,3487.36 267.46,3492.53 262.75,3472.94 257.32,3450.34 280.88,3438.12 296.4,3432.88 301.89,3431.03 308.98,3430.83 315.64,3428.07 334.76,3420.14 356.14,3396.87 368.52,3379.99 379.86,3364.54 400.53,3337.37 403.77,3315.89 407.16,3293.53 400.3,3265.93 395.76,3240.57 383.96,3174.76 364.99,3102.2 347.68,3043.47 323.21,2960.41 293.2,2874.94 293.2,2771.05 293.2,2686.36 310.44,2611.24 328.45,2540.3 330.93,2530.55 336.09,2520.14 336.46,2511.46 337.25,2493.33 328.29,2473.51 326.85,2453.77 325.24,2431.59 328.81,2403.73 323.65,2384.86 315.63,2355.52 298.3,2328.22 288.4,2296.73 260.42,2207.79 235.15,2100.4 225.91,1993.86 220.51,1994.65 211.59,2001.33 206.67,2006.68 198.93,2015.11 198.12,2038.01 189.04,2046.74 180.12,2055.33 163.55,2057.64 150.58,2061.16 132.67,2066.01 107.59,2076.34 94.5,2061.16 92.51,2058.86 91.77,2052.35 88.09,2048.34 82.26,2041.99 73.52,2038.23 67.26,2030.71 54.31,2015.17 40.84,2003.13 35.21,1987.44 26.83,1964.09 34.43,1928.95 40.02,1896.1 44.14,1871.87 51.23,1847.07 52.84,1827.19 54.79,1803.11 50.35,1775.72 48.03,1748.67 41.64,1674.11 29.83,1601.38 15.98,1532.34 6.56,1485.41 -3.94,1439.03 1.56,1384.91 4.02,1360.67 9.82,1339.21 17.58,1317.61 24.8,1297.53 36.84,1276.65 38.41,1256.72 40.26,1233.31 31.9,1207.28 30.4,1181.4 26.44,1113.04 31.88,1046.42 44.82,990.71 47.49,979.23 52.82,966.71 52.83,957.06 52.85,946.04 47.5,933.08 44.82,921.81 37.15,889.56 31.68,846.41 32,804.83 32.33,760.55 50.09,724.7 68.86,692.66 86.43,662.65 111.39,632.53 142.57,617.35 169.48,604.24 204.4,599.12 237.11,594.92 247.87,593.54 251.68,594.81 262.91,591.71 274.42,588.53 297.64,576.08 309.22,567.67 345.46,541.38 385.35,518.49 424.45,492.35 418.02,448.58 419.56,396.82 410.03,356.14 405.61,350.1 391.02,347.23 384.39,338.51 378.9,331.28 366.95,304.05 363.56,292.04 353.72,257.21 355.48,209.59 392.4,211.92 389.8,190.39 384.64,171.49 384.39,152.63 383.74,102.98 415.47,59.25 448.5,35.65 471.82,18.95 506.94,2.97 539.79,0.39 611.35,-5.24 684.26,51.09 703.39,115.77 712.65,147.07 705.35,176.66 700.19,210.32 V 210.32 Z M 826.79,1191.02 C 821.53,1202.46 811.82,1214.65 810.76,1223.07 809.84,1230.45 812.82,1244.7 813.96,1255.12 818.94,1300.28 825.08,1352.18 815.56,1392.93 847.64,1443.85 837.87,1518.01 849.21,1583.62 852.78,1604.27 859.26,1625.21 863.63,1644.51 883.08,1730.28 882.28,1824.73 889.27,1920.13 897.6,1890.59 919.04,1865.59 929.33,1833.6 935.29,1815.08 937.9,1790.99 940.55,1767.9 943.23,1744.62 947.13,1718.83 946.97,1695.79 946.7,1661.04 933.26,1631.03 921.32,1598.04 910.41,1567.89 901.12,1534.81 892.48,1503.5 876.89,1447 876.69,1393 889.27,1341.65 895.65,1315.64 908.06,1276.51 902.09,1245.5 897.35,1220.85 883.99,1195.8 878.05,1168.58 872.26,1142.04 868.27,1104.62 863.63,1078.84 853.85,1115.36 842.09,1157.69 826.78,1191.01 V 1191.01 Z M 227.46,1175 C 221.44,1203.2 206.14,1228.61 203.42,1255.12 199.25,1295.9 214.8,1319.95 221.05,1349.67 234.56,1413.87 226.06,1476.31 208.23,1532.35 200.14,1557.8 193.63,1585.88 184.19,1612.47 174.04,1641.06 163.66,1666.79 163.36,1697.4 163.16,1718.31 167.03,1740.12 169.77,1761.5 172.54,1783.04 174.3,1805.02 179.38,1824 188.93,1859.68 209.44,1889.92 224.25,1921.75 227.77,1826.16 227.41,1734.45 243.48,1657.34 249.01,1630.82 257.64,1604.31 261.11,1580.42 268.65,1528.44 264.41,1476.25 277.14,1432.99 281.24,1419.07 290.5,1404.7 291.56,1391.33 292.63,1377.88 287.35,1363.27 286.75,1349.67 284.89,1307.22 291.31,1264.95 296.36,1223.07 269.8,1183.4 257.19,1129.77 240.27,1080.45 237.02,1113.43 233.89,1144.86 227.45,1174.99 V 1174.99 Z M 552.77,1868.87 C 550.83,2023.75 549.62,2174.44 530.33,2311.15 527.57,2330.7 518.35,2350.12 519.12,2367.24 519.68,2380.05 527.91,2393.73 530.33,2407.3 536.22,2440.21 535.74,2478.68 531.93,2511.46 529.72,2530.52 523.01,2547.07 523.92,2565.94 525.17,2591.6 535.81,2614.11 543.15,2638.05 550.94,2663.4 555.56,2688.19 559.18,2713.37 557.63,2660.8 594.71,2613.83 592.83,2557.93 592.14,2537.54 584.48,2517.36 583.21,2497.04 581.57,2470.52 580.3,2441.19 583.21,2415.31 585.07,2398.77 595.94,2381.81 596.04,2365.63 596.13,2349.17 587.84,2330.27 584.82,2311.15 563.21,2174.28 561.8,2018.91 559.19,1867.27 557.02,1867.78 556.13,1869.55 552.78,1868.87 V 1868.87 Z"
         id="outline" />
      <path
         class="cls-2"
         d="M 443.64,561.25 C 436.4,558.07 435.69,546.6 434.03,538.82 431.97,529.16 430.51,519.17 429.22,509.98 387.16,533.62 336.02,563.32 297.1,590.1 322.51,592.27 330.82,603.45 293.16,606.12 219.68,609.59 151.04,620.05 113.69,657.4 86.58,684.51 51.5,744.17 47.99,790.4 44.77,832.78 51.45,884.04 59.2,917 62.2,929.76 67,943.13 67.21,955.46 67.59,977.46 57.34,1001.9 52.79,1025.97 43.42,1075.53 41.91,1129.11 46.38,1184.61 48.6,1212.18 56.3,1239.76 52.79,1264.73 49.56,1287.76 34.78,1308.97 27.15,1332.03 8.12,1389.51 15,1454.28 27.15,1514.71 43.81,1597.55 58.43,1678.43 65.61,1766.3 67.11,1784.71 69.53,1805.09 68.81,1822.39 67.84,1845.77 59.94,1871.91 55.99,1896.1 54.02,1908.15 51.36,1920.6 49.58,1932.96 47.65,1946.39 44.77,1961.65 46.37,1973.02 49.39,1994.47 71.91,2003.51 80.02,2024.3 95.14,2027.16 100.23,2049.88 112.07,2053.14 127.12,2057.29 173.09,2040.85 179.37,2033.91 186.65,2025.87 185.4,2010.89 190.59,2001.86 198.84,1987.49 213.4,1986.16 216.23,1974.62 219.15,1962.7 213.45,1934.73 206.62,1918.53 193.89,1888.36 173.75,1864.04 164.96,1832 160.63,1816.19 159.37,1796.43 156.95,1775.91 154.68,1756.7 150.1,1736.85 148.94,1718.22 146.28,1675.36 153.77,1646.08 164.97,1615.66 172.57,1595.01 179.61,1574.98 185.81,1554.77 198.16,1514.47 213.17,1469.97 213.05,1420.16 213,1398.86 210.68,1376.32 206.64,1356.06 202.91,1337.32 194.5,1320.08 190.62,1301.58 179.62,1249.14 202.46,1215.09 211.45,1174.98 224.7,1115.9 228.21,1046.23 227.48,976.27 227.39,967.8 223.84,955.42 228.85,947.4 204.02,902.75 181.65,819.51 188.73,806.27 198.16,772.31 210.39,757.62 226.7,742.56 220.48,758 214.26,773.45 208.04,788.89 202.89,804.76 202.04,820.63 205.47,836.51 218.05,906.22 246.95,951.05 295.56,965.86 332.23,971.89 370.42,967.38 408.82,961.36 375.84,977.88 331.76,984.52 267.89,973.59 253.69,969.78 248.79,966.87 242.74,962 242.61,967.38 241.91,973.04 241.91,977.87 241.91,992.65 240.66,1009.88 241.91,1021.14 244.19,1041.53 252.33,1063.65 257.94,1083.64 272.79,1136.5 291.14,1184.81 312.43,1227.86 316.64,1236.37 324.05,1245.04 322.04,1255.1 315.27,1262.27 311.23,1239.35 307.62,1248.69 297.23,1315.44 302.28,1387.76 318.84,1440.99 321.71,1450.22 329.57,1460.43 325.24,1469.83 314.71,1467.78 313.25,1455.91 309.21,1447.39 305.14,1438.79 300.43,1429.62 296.39,1421.75 286.91,1447.01 284.22,1473.14 281.97,1500.27 279.55,1529.52 280.29,1560.94 275.57,1588.41 272.91,1603.83 267.69,1619.76 264.35,1634.88 253.74,1682.95 245.13,1734.07 243.52,1791.92 241.42,1867.58 233.09,1944.99 241.92,2019.47 253.95,2120.95 278.91,2219.39 307.62,2306.31 317.36,2335.79 336.5,2362.41 341.27,2391.24 344.38,2410 340.08,2426.31 341.27,2444.12 342.53,2462.87 346.05,2481.81 349.28,2498.6 352.62,2515.93 360.21,2531.96 358.9,2548.27 351.37,2557 344.64,2538.38 342.87,2546.67 305.31,2670.01 297.05,2809.62 333.26,2940.88 361.96,3044.87 394.75,3141.48 413.38,3254.96 416.22,3272.27 420.33,3290.52 419.79,3306.24 419.02,3328.64 411.25,3342.33 402.16,3357.52 387.83,3381.48 370.7,3402.38 352.49,3418.42 349.76,3420.82 340.39,3428.05 346.08,3428.03 355.78,3427.14 367.3,3429.22 378.12,3429.63 388.67,3430.02 401.31,3426.76 408.57,3432.83 396.71,3438.88 380.15,3437.79 363.7,3439.24 326.46,3442.53 286.33,3440.34 277.17,3468.08 291.28,3473.85 306.9,3471.28 322.04,3471.28 337.18,3471.28 354.29,3471.05 370.11,3471.28 401.12,3471.72 432.63,3475.53 461.45,3471.28 468.92,3470.18 475.16,3465.82 482.28,3464.87 500.91,3462.4 517.9,3467.96 535.16,3463.27 538.34,3430.51 517.2,3407.06 517.53,3376.74 517.67,3364.42 524.63,3352.03 523.94,3338.28 523.19,3323.33 515.63,3309.89 512.73,3295.01 509.59,3278.91 509.42,3261.29 507.92,3245.33 497.92,3138.93 500.29,3036.61 519.14,2934.45 525.12,2902.03 534.54,2873.46 539.97,2844.71 552.62,2777.69 547,2704.75 528.75,2647.61 519.8,2619.57 507.57,2588.1 507.92,2557.87 508.15,2537.77 516.29,2518.78 517.53,2500.18 519.24,2474.77 519.97,2447.52 517.53,2421.66 516.01,2405.42 506.1,2389.06 504.71,2371.98 502.56,2345.62 512.82,2328.12 515.93,2304.68 534.52,2164.35 535.97,2011.06 538.36,1855.99 548.49,1853.15 569.19,1852.69 575.22,1859.2 573.92,2012.21 580.61,2169.35 599.26,2301.48 601.93,2320.46 608.94,2339.24 610.47,2357.57 612.59,2382.77 602.53,2392.57 599.26,2410.45 592.61,2446.74 596.06,2494.2 602.46,2525.83 604.89,2537.83 608.89,2549.16 608.87,2561.08 608.83,2591.29 596.9,2620.6 588.04,2649.21 569.1,2710.3 568.61,2778.77 580.03,2843.11 585.08,2871.6 594.56,2900.34 600.86,2932.85 614.16,3001.44 617.79,3068.04 618.49,3134.76 619.06,3188.54 617.75,3243.46 610.48,3290.2 608.15,3305.2 600.62,3319.49 599.27,3335.07 597.9,3350.85 605.7,3363.23 605.67,3378.34 605.65,3391.25 599.35,3406.74 596.06,3420 592.61,3433.88 587.6,3447.32 588.04,3463.27 604.63,3470.68 622.96,3461.63 644.13,3464.87 650.6,3465.86 656.6,3470.3 663.36,3471.28 691.29,3475.35 725.34,3471.28 756.31,3471.28 780.11,3471.28 804.57,3470.71 823.61,3469.68 830,3469.33 839.64,3472.7 844.44,3466.48 848.28,3456.58 836.49,3452.08 830.02,3448.85 807.64,3437.67 760.77,3439.4 733.87,3436.03 727.47,3435.23 717.8,3438.15 714.64,3431.22 732.63,3426.77 756.56,3428.27 778.74,3428.02 766.75,3413.63 750.12,3399.83 737.08,3381.55 719.24,3356.54 700.53,3331.26 703.43,3290.21 707.8,3228.46 725.06,3166.61 740.29,3105.93 754.76,3048.28 772.93,2990.81 788.36,2931.26 820.83,2806.03 812.2,2672.32 773.94,2543.46 769.09,2538.45 772.39,2548.7 767.53,2548.27 763.94,2551.88 759.5,2548.16 756.32,2546.67 760.97,2516.18 771.38,2486.36 773.94,2450.52 775.25,2432.27 771.72,2412.73 773.94,2392.83 777.09,2364.67 796.13,2335.69 805.99,2306.3 835.49,2218.42 859.5,2118.06 870.09,2014.65 877.91,1938.35 869.57,1862.3 866.89,1787.1 864.83,1729.6 856.51,1677.52 846.05,1630.06 842.43,1613.62 835.74,1598.29 833.24,1581.99 825.16,1529.51 831.25,1471.05 812.4,1421.74 806.58,1422.83 808.07,1430.01 805.99,1434.56 804.04,1438.81 800.23,1442.76 797.98,1447.38 794.12,1455.28 792.33,1470.61 781.96,1468.21 782.55,1452.99 790.38,1437.22 794.78,1420.14 808.21,1368.05 807.82,1302.64 797.98,1245.47 793.75,1241.83 791.9,1261.04 783.56,1253.48 788.27,1235.13 797.77,1217.62 806,1199 822,1162.78 834.75,1126.06 846.06,1085.23 851.75,1064.7 859.95,1043.59 862.09,1022.73 863.23,1011.59 862.09,993.6 862.09,977.86 862.09,972.34 861.22,965.54 861.27,959.29 853.36,965.89 849.49,969.12 832.85,973.58 768.98,984.52 724.9,977.87 691.92,961.35 730.32,967.37 768.51,971.89 805.18,965.85 853.8,951.05 882.69,906.22 895.27,836.5 898.7,820.62 897.84,804.75 892.7,788.88 886.48,773.44 880.26,757.99 874.04,742.55 890.35,757.61 902.57,772.3 912.01,806.26 918.88,819.1 898.01,897.88 874.08,943.33 882.02,952.71 878.13,967.4 878.13,977.86 878.13,1053.75 882.22,1122.07 897.36,1179.77 903.56,1203.36 914.59,1225.31 918.19,1247.07 924.37,1284.42 910.47,1317.15 903.77,1344.82 899.8,1361.22 896.79,1378.44 895.76,1396.1 891.59,1467.94 917.31,1535.44 935.82,1590 949.76,1631.07 964.72,1664.1 961.46,1716.6 958.92,1757.46 952.17,1816.91 937.42,1852.81 923.53,1886.63 887.4,1936.13 895.76,1971.39 899.36,1986.59 916.2,1987.71 923,2000.23 927.98,2009.4 926.71,2024.63 934.22,2032.28 949.37,2047.71 980.47,2045.35 1001.52,2051.51 1007.47,2046.44 1011.64,2040.03 1017.55,2033.88 1023.22,2027.98 1030.13,2024.02 1035.18,2017.86 1037.49,2015.03 1037.78,2009.66 1039.99,2006.64 1047.36,1996.59 1060.84,1988.63 1064.02,1977.8 1070.47,1955.87 1060.41,1922.83 1056.01,1896.07 1051.93,1871.2 1044.88,1846.31 1043.19,1823.96 1040.53,1788.89 1045.74,1748.18 1049.6,1710.19 1053.2,1674.81 1058.43,1638.57 1064.02,1604.43 1075.75,1532.78 1098.23,1464.98 1092.86,1391.3 1091.06,1366.55 1084.02,1342.82 1075.23,1319.19 1066.95,1296.92 1053.96,1273 1052.79,1251.89 1051.52,1228.63 1059.29,1202.45 1060.8,1176.57 1064.01,1121.92 1062.5,1068.13 1052.79,1021.13 1047.93,997.59 1036.52,973.01 1036.77,952.22 1036.9,940.9 1041.92,928.91 1044.78,916.97 1053.09,882.21 1058.5,837.09 1056,796.78 1054.08,765.75 1042.67,738.12 1028.76,713.45 1014.83,688.74 1001.19,666.45 982.29,649.35 940.42,611.48 874.37,611.39 806.02,602.88 772.81,600.26 777.32,588.8 799.62,588.46 754.34,560.02 714.7,525.96 666.62,500.32 664.84,509.79 661.08,520.79 658.6,532.37 656.5,542.2 658.65,558.66 647.38,561.21 651.23,518.58 655.08,475.97 658.6,433.01 633.5,453.13 612.53,489.87 580.08,503.52 558.77,512.49 537.93,514.16 512.62,503.52 479.35,489.52 462.04,457.18 435.71,433.01 434.73,433.1 433.81,433.25 434.1,434.61 436.68,476.37 443.92,522.01 443.71,561.2 V 561.2 Z M 526.65,1330.66 C 539.28,1300.29 566.48,1303.17 576.82,1331.04 546.05,1303.53 529.59,1342.8 526.65,1330.66 Z M 481.56,620.52 C 489.82,622.26 496.04,624.63 504.53,624.63 517.7,624.63 529.63,630.58 533.28,643.13 534.38,646.93 548.07,679.27 530.79,659.94 524.14,652.5 524.95,638.63 510.9,636.21 503.3,634.9 474.47,619.77 481.56,620.52 Z M 619.76,620.52 C 611.5,622.26 605.28,624.63 596.79,624.63 583.62,624.63 571.69,630.58 568.04,643.13 566.94,646.93 553.25,679.27 570.53,659.94 577.18,652.5 576.37,638.63 590.42,636.21 598.02,634.9 626.85,619.77 619.76,620.52 Z M 429.2,2334.44 C 446.83,2363.3 487.18,2378.35 489.68,2364.43 491.27,2367.24 498.41,2380.32 477.1,2381.63 467.48,2381.63 449.19,2370.64 442.33,2363.77 432.93,2354.37 430.77,2344.22 429.2,2334.44 Z M 409.32,2350.38 C 396.49,2363.56 388.97,2371.44 367.76,2373.49 372.01,2377.95 376.96,2383.44 394.95,2379.65 408.33,2371.61 409.68,2361.16 409.32,2350.38 Z M 378.26,2430.18 C 381.77,2465.68 385.86,2510.09 405.07,2526.92 411.92,2534.13 425.76,2537.14 442.68,2541.45 427.06,2547.86 405.23,2544.29 388.61,2533.66 373.79,2524.15 365.3,2439.88 378.27,2430.19 V 2430.19 Z M 490.98,2410.52 C 490.75,2429.3 491.14,2497.51 483.07,2514.3 479.16,2522.44 467.94,2529.87 458.95,2532.68 474.57,2539.09 472.51,2539.77 489.13,2529.14 503.95,2519.63 503.95,2420.21 490.98,2410.53 V 2410.53 Z M 688.88,2334.43 C 671.25,2363.29 630.9,2378.34 628.4,2364.42 626.81,2367.23 619.67,2380.31 640.98,2381.62 650.6,2381.62 668.89,2370.63 675.75,2363.76 685.15,2354.36 687.31,2344.21 688.88,2334.43 Z M 708.76,2350.37 C 721.59,2363.55 729.11,2371.43 750.32,2373.48 746.07,2377.94 741.12,2383.43 723.13,2379.64 709.75,2371.6 708.4,2361.15 708.76,2350.37 Z M 739.82,2430.17 C 736.31,2465.67 732.22,2510.08 713.01,2526.91 706.16,2534.12 692.32,2537.13 675.4,2541.44 691.02,2547.85 712.85,2544.28 729.47,2533.65 744.29,2524.14 752.78,2439.87 739.81,2430.18 V 2430.18 Z M 627.1,2410.51 C 627.33,2429.29 626.94,2497.5 635.01,2514.29 638.92,2522.43 650.14,2529.86 659.13,2532.67 643.51,2539.08 645.57,2539.76 628.95,2529.13 614.13,2519.62 614.13,2420.2 627.1,2410.52 V 2410.52 Z M 687.37,219.92 C 689.13,201.51 691.4,184.84 692.18,167.04 694.24,120.26 678.71,91.01 656.93,67.69 633.97,43.11 590.88,19.04 551.17,16.41 506.1,13.42 465.09,36.16 435.65,67.69 418.67,85.87 402.77,111.69 400.39,143.01 398.19,171.98 403.27,198.03 405.2,221.53 405.76,228.44 411.72,240.42 402,245.57 391.37,245.51 400.18,226.02 387.57,227.95 375.27,228.49 373.39,248.06 374.75,264.8 376.97,292.08 392.04,326.72 406.8,335.31 406.19,327.76 406.93,321.55 414.81,322.49 425.92,346.75 423.32,374.22 432.44,397.81 440.92,419.74 458.23,437.5 474.11,453.9 493.67,474.1 514.6,493.8 546.22,495.56 584.34,497.68 598.81,474.21 618.48,453.9 645.15,426.36 660.43,403.81 668.16,359.35 670.55,345.61 670.74,329.07 679.38,322.49 685.9,322.37 686.28,328.41 685.78,335.31 701.1,326.48 725.01,274.98 717.83,242.37 716.24,235.13 709.82,225.79 703.41,227.95 693.14,231.4 702.05,242.9 688.99,245.57 682.24,238.23 686.65,227.71 687.39,219.93 V 219.93 Z"
         id="inner_outline" />
      <path
         class="cls-3"
         d="M 347.15,634.59 C 264.94,670.86 188.83,745.42 137.14,874.12 127.25,879.23 112.46,871.6 122.49,806.9 136.97,752.99 130.42,721.94 185.98,644.36 231.54,596.03 358.23,616.12 347.15,634.58 V 634.58 Z"
         id="deltoid_inner_right" />
      <path
         class="cls-3"
         d="M 185.27,635.71 C 124.3,695.68 95.32,817.03 112.18,899.09 99.69,944.72 85.32,973.17 75.64,945.98 38.12,798.59 68.5,708.88 138.41,651.53 147.1,645.08 180.61,629.4 185.26,635.71 V 635.71 Z"
         id="deltoid_outter_right" />
      <path
         class="cls-3"
         d="M 188,876.7 C 180.61,839.42 171.02,816.6 146.09,895.04 98.81,1003.88 106.13,1110.61 104.18,1215.92 108.91,1293.02 142.56,1282.87 170.98,1243.42 204.08,1186.21 235.82,1009.02 188.01,876.7 V 876.7 Z"
         id="biceps_brachii_right" />
      <path
         class="cls-3"
         d="M 94.05,965.18 C 114.67,938.56 119.01,943.45 107.08,979.85 94.72,1056.28 86.92,1132.05 96.5,1225.96 96.5,1256.19 72.35,1265.74 64.75,1241.44 48.48,1127.53 45.05,1024.62 94.06,965.17 V 965.17 Z"
         id="triceps_brachii_right" />
      <path
         class="cls-3"
         d="M 54.58,1308.46 C 76,1243.74 146.3,1272.61 141.18,1360.14 156.94,1493.25 128.78,1611.57 141.18,1751.24 136.99,1793.61 128.14,1796.87 120.23,1761.02 102.9,1586.16 22.61,1404.91 54.58,1308.46 Z"
         id="flexor_carpi_radialis_right" />
      <path
         class="cls-3"
         d="M 27.56,1424.55 C 36.36,1363.14 40.44,1418.81 46.3,1452.28 64.5,1565.46 105.33,1674.71 113.12,1785.89 112.58,1810.5 88.94,1816.21 79.71,1807.1 80.47,1695.83 21.43,1465.18 27.55,1424.54 V 1424.54 Z"
         id="brachioradialis_right" />
      <path
         class="cls-3"
         d="M 175.9,1293.34 C 157.48,1276.79 149.04,1285.22 150.6,1318.64 158.47,1405.99 166.14,1493.32 148.73,1578.15 147.48,1614.38 152.48,1619.37 163.72,1593.14 200.3,1495.24 219.37,1396.24 175.9,1293.34 Z"
         id="flexor_carpi_ulnaris_right" />
      <path
         class="cls-3"
         d="M 755.94,634.59 C 838.15,670.86 914.26,745.42 965.95,874.12 975.84,879.23 990.63,871.6 980.6,806.9 966.12,752.99 972.67,721.94 917.11,644.36 871.55,596.03 744.86,616.12 755.94,634.58 V 634.58 Z"
         id="deltoid_inner_left" />
      <path
         class="cls-3"
         d="M 917.82,635.71 C 978.79,695.68 1007.77,817.03 990.91,899.09 1003.4,944.72 1017.77,973.17 1027.45,945.98 1064.97,798.59 1034.59,708.88 964.68,651.53 955.99,645.08 922.48,629.4 917.83,635.71 V 635.71 Z"
         id="deltoid_outter_left" />
      <path
         class="cls-3"
         d="M 920.77,876.7 C 928.16,839.42 937.75,816.6 962.68,895.04 1009.96,1003.88 1002.64,1110.61 1004.59,1215.92 999.86,1293.02 966.21,1282.87 937.79,1243.42 904.69,1186.21 872.95,1009.02 920.76,876.7 V 876.7 Z"
         id="biceps_brachii_left" />
      <path
         class="cls-3"
         d="M 1014.72,965.18 C 994.1,938.56 989.76,943.45 1001.69,979.85 1014.05,1056.28 1021.84,1132.05 1012.27,1225.96 1012.27,1256.19 1036.42,1265.74 1044.02,1241.44 1060.29,1127.53 1063.72,1024.62 1014.71,965.17 V 965.17 Z"
         id="triceps_brachii_left" />
      <path
         class="cls-3"
         d="M 1054.19,1308.46 C 1032.77,1243.74 962.47,1272.61 967.59,1360.14 951.83,1493.25 979.99,1611.57 967.59,1751.24 971.78,1793.61 980.63,1796.87 988.54,1761.02 1005.87,1586.16 1086.16,1404.91 1054.19,1308.46 Z"
         id="flexor_carpi_radialis_left" />
      <path
         class="cls-3"
         d="M 1081.21,1424.55 C 1072.41,1363.14 1068.33,1418.81 1062.47,1452.28 1044.27,1565.46 1003.44,1674.71 995.65,1785.89 996.19,1810.5 1019.83,1816.21 1029.06,1807.1 1028.3,1695.83 1087.34,1465.18 1081.22,1424.54 V 1424.54 Z"
         id="brachioradialis_left" />
      <path
         class="cls-3"
         d="M 932.88,1293.34 C 951.3,1276.79 959.74,1285.22 958.18,1318.64 950.31,1405.99 942.64,1493.32 960.05,1578.15 961.3,1614.38 956.3,1619.37 945.06,1593.14 908.48,1495.24 889.41,1396.24 932.88,1293.34 Z"
         id="flexor_carpi_ulnaris_left" />
      <path
         class="cls-3"
         d="M 426.81,565.83 C 439.85,604.84 447.23,598.98 402.28,595.86 309.37,589.41 312.58,591.56 389.87,549.47 426.54,529.51 415.03,530.61 426.81,565.83 Z"
         id="trapezius_right" />
      <path
         id="sternocleidomastoid_right"
         class="cls-3"
         d="M 449.37,474.18 C 451.18,510.8 469.03,566.18 485.28,591.03 509.03,627.35 537.73,622.65 533.89,605.78 505.33,565.44 502.2,518.83 492.81,504.73 470.04,490.18 452.33,454.23 449.37,474.18 Z" />
      <path
         class="cls-3"
         d="M 382.1,636.39 C 415.13,625.84 543.53,677.88 522.54,684.5 434.27,712.91 348.5,732.12 250.2,797.3 216.16,815.31 213.42,807.09 225.55,773.8 250.07,697 310.57,663 382.1,636.39 Z"
         id="pectoralis_major_top_right" />
      <path
         class="cls-3"
         d="M 277.21,789.79 C 258.73,799.61 242.5,808.85 233.15,815.14 217.02,825.99 218.4,831.66 237.57,827.42 257.27,823.07 278.41,823.12 298.45,824.29 405.15,830.56 493.61,868.51 532.36,863.58 546.07,865.34 542.91,708.7 520.76,708.35 423.34,721.2 352.11,745.96 277.21,789.78 V 789.78 Z"
         id="pectoralis_major_middle_right" />
      <path
         class="cls-3"
         d="M 255.81,832.84 C 219.17,835.12 218.92,840.36 221.69,867.66 233.31,909.47 258.14,946.99 296.15,954.68 378.1,971.25 490.1,932.03 504.55,929.47 524,923.09 547.95,902.78 517.12,885.08 441.39,848.81 299.22,827.34 255.82,832.85 V 832.85 Z"
         id="pectoralis_major_bottom_right" />
      <path
         class="cls-3"
         d="M 409.02,986.27 C 394.72,997.82 383.71,1050.64 402.42,1050.64 418.49,1049.52 428.72,1038.51 457.5,1035.29 481.34,1032.63 507.16,1034.85 522.08,1032.48 547.66,1019.83 545.19,950.24 521.25,948.31 479.44,950.41 437.13,954.48 409.02,986.27 Z"
         id="rectus_abdominis_top_right" />
      <path
         class="cls-3"
         d="M 402.06,1066.41 C 428.14,1048.82 493.03,1040.22 526.17,1049.61 541.7,1057 541.35,1126.12 531.59,1151.49 520.67,1170.5 456.23,1158.94 410.02,1171.36 377.61,1183.83 374.66,1086.31 402.06,1066.42 V 1066.42 Z"
         id="rectus_abdominis_middle_top_right" />
      <path
         class="cls-3"
         d="M 403.76,1192.33 C 425.9,1178.99 484.72,1174.93 513.29,1178.03 547.18,1180.55 539.32,1279.86 525.43,1288.12 509.71,1301.46 513.29,1312.66 497.57,1328.87 485.19,1337.21 452.81,1339.83 434,1348.17 393.77,1359.61 381.85,1201.61 403.75,1192.32 V 1192.32 Z"
         id="rectus_abdominis_middle_bottom_right" />
      <path
         class="cls-3"
         d="M 428,1376.59 C 456.88,1360.02 485.76,1348.61 514.65,1351.83 533.42,1356.79 536.42,1367.24 536.11,1377.41 538.63,1458.87 538.37,1537.56 538.59,1616.72 536.94,1645.6 506.41,1669.53 485.78,1627.45 442.32,1555.93 397.21,1390.34 428.02,1376.59 V 1376.59 Z"
         id="rectus_abdominis_bottom_right" />
      <path
         class="cls-3"
         d="M 665.93,565.83 C 652.89,604.84 645.51,598.98 690.46,595.86 783.37,589.41 780.16,591.56 702.87,549.47 666.2,529.51 677.71,530.61 665.93,565.83 Z"
         id="trapezius_left" />
      <path
         id="sternocleidomastoid_left"
         class="cls-3"
         d="M 647.14,474.18 C 645.33,510.8 627.48,566.18 611.23,591.03 587.48,627.35 558.78,622.65 562.62,605.78 591.18,565.44 594.31,518.83 603.7,504.73 626.47,490.18 644.18,454.23 647.14,474.18 Z" />
      <path
         class="cls-3"
         d="M 718.2,636.39 C 685.17,625.84 556.77,677.88 577.76,684.5 666.03,712.91 751.8,732.12 850.1,797.3 884.14,815.31 886.88,807.09 874.75,773.8 850.23,697 789.73,663 718.2,636.39 Z"
         id="pectoralis_major_top_left" />
      <path
         class="cls-3"
         d="M 823.09,789.79 C 841.57,799.61 857.8,808.85 867.15,815.14 883.28,825.99 881.9,831.66 862.73,827.42 843.03,823.07 821.89,823.12 801.85,824.29 695.15,830.56 606.69,868.51 567.94,863.58 554.23,865.34 557.39,708.7 579.54,708.35 676.96,721.2 748.19,745.96 823.09,789.78 V 789.78 Z"
         id="pectoralis_major_middle_left" />
      <path
         class="cls-3"
         d="M 844.49,832.84 C 881.13,835.12 881.38,840.36 878.61,867.66 866.99,909.47 842.16,946.99 804.15,954.68 722.2,971.25 610.2,932.03 595.75,929.47 576.3,923.09 552.35,902.78 583.18,885.08 658.91,848.81 801.08,827.34 844.48,832.85 V 832.85 Z"
         id="pectoralis_major_bottom_left" />
      <path
         class="cls-3"
         d="M 691.28,986.27 C 705.58,997.82 716.59,1050.64 697.88,1050.64 681.81,1049.52 671.58,1038.51 642.8,1035.29 618.96,1032.63 593.14,1034.85 578.22,1032.48 552.64,1019.83 555.11,950.24 579.05,948.31 620.86,950.41 663.17,954.48 691.28,986.27 Z"
         id="rectus_abdominis_top_left" />
      <path
         class="cls-3"
         d="M 698.24,1066.41 C 672.16,1048.82 607.27,1040.22 574.13,1049.61 558.6,1057 558.95,1126.12 568.71,1151.49 579.63,1170.5 644.07,1158.94 690.28,1171.36 722.69,1183.83 725.64,1086.31 698.24,1066.42 V 1066.42 Z"
         id="rectus_abdominis_middle_top_left" />
      <path
         class="cls-3"
         d="M 696.54,1192.33 C 674.4,1178.99 615.58,1174.93 587.01,1178.03 553.12,1180.55 560.98,1279.86 574.87,1288.12 590.58,1301.46 587.01,1312.66 602.73,1328.87 615.11,1337.21 647.49,1339.83 666.3,1348.17 706.53,1359.61 718.45,1201.61 696.55,1192.32 V 1192.32 Z"
         id="rectus_abdominis_middle_bottom_left" />
      <path
         class="cls-3"
         d="M 672.3,1376.59 C 643.42,1360.02 614.54,1348.61 585.65,1351.83 566.88,1356.79 563.88,1367.24 564.19,1377.41 561.67,1458.87 561.93,1537.56 561.71,1616.72 563.36,1645.6 593.89,1669.53 614.52,1627.45 657.98,1555.93 703.09,1390.34 672.28,1376.59 V 1376.59 Z"
         id="rectus_abdominis_bottom_left" />
      <path
         class="cls-3"
         d="M 261.63,979.8 C 245.79,976.67 247.13,995.4 257.84,1001.63 288.55,1032.84 337.48,1076.54 369.75,1084.32 379.04,1087.07 370.73,1055.27 373.95,1030.38 377.38,1003.89 388.61,980.54 377.83,983.2 345.34,992.65 299.32,989.6 261.63,979.79 V 979.79 Z"
         id="external_oblique_top_right" />
      <path
         class="cls-3"
         d="M 259.23,1018.4 C 292.13,1050.39 330.67,1085.91 366.4,1098.85 378.27,1100.26 369.87,1154.6 373.72,1197.38 377.56,1240.16 390.85,1302.44 379.8,1294.33 342.79,1274.93 296.49,1198.48 261.35,1064.27 248.36,1022.06 250.03,1015.99 259.24,1018.4 V 1018.4 Z"
         id="external_oblique_middle_right" />
      <path
         class="cls-3"
         d="M 339.32,1278.53 C 316.7,1257.48 313.24,1265.33 311.99,1302.09 309.16,1377.49 329.9,1424.62 374.2,1468.92 403.73,1505.68 416.93,1503.79 406.25,1457.61 395.28,1401.78 406.28,1356.7 339.33,1278.53 V 1278.53 Z"
         id="external_oblique_bottom_right" />
      <path
         class="cls-3"
         d="M 839.74,979.8 C 855.58,976.67 854.24,995.4 843.53,1001.63 812.82,1032.84 763.89,1076.54 731.62,1084.32 722.33,1087.07 730.64,1055.27 727.42,1030.38 723.99,1003.89 712.76,980.54 723.54,983.2 756.03,992.65 802.05,989.6 839.74,979.79 V 979.79 Z"
         id="external_oblique_top_left" />
      <path
         class="cls-3"
         d="M 842.14,1018.4 C 809.24,1050.39 770.7,1085.91 734.97,1098.85 723.1,1100.26 731.5,1154.6 727.65,1197.38 723.81,1240.16 710.52,1302.44 721.57,1294.33 758.59,1274.93 804.88,1198.48 840.02,1064.27 853.01,1022.06 851.34,1015.99 842.13,1018.4 V 1018.4 Z"
         id="external_oblique_middle_left" />
      <path
         class="cls-3"
         d="M 762.05,1278.53 C 784.67,1257.48 788.13,1265.33 789.38,1302.09 792.21,1377.49 771.47,1424.62 727.17,1468.92 697.64,1505.68 684.44,1503.79 695.12,1457.61 706.09,1401.78 695.09,1356.7 762.04,1278.53 V 1278.53 Z"
         id="external_oblique_bottom_left" />
      <path
         class="cls-3"
         d="M 293.52,1482 C 299.63,1416.36 351.69,1519.6 335,1560.15 327.86,1583.75 317.8,1605.88 313.59,1630.95 306.76,1665.05 284.29,1655.1 287.24,1612.84 291.1,1572.66 286.44,1523.16 293.52,1482 Z"
         id="gluteus_medius_right" />
      <path
         class="cls-3"
         d="M 398.52,1561.35 C 479.26,1698.66 476.75,1750.12 423.2,1998.32 415.9,2055.23 407.68,2092.55 393.03,1992.84 378.1,1851.45 298.26,1743.88 348.24,1568.67 357.69,1544.29 359.82,1492.49 398.52,1561.36 V 1561.36 Z"
         id="rectus_femoris_right" />
      <path
         class="cls-3"
         d="M 276.94,1722.95 C 287.18,1654.8 299.21,1652.58 313.02,1716.27 363.38,1913.78 405.79,2108.1 402.55,2284.17 394.59,2336.9 382.15,2375.31 338.41,2313.57 260.18,2147.26 234.02,1953.4 276.94,1722.96 V 1722.96 Z"
         id="vastus_lateralis_right" />
      <path
         class="cls-3"
         d="M 477.38,1824.5 C 497.42,1765.26 510.34,1773.72 516.13,1849.89 524.15,2001.33 520.58,2158.11 501.43,2304.21 496.09,2367.01 421.26,2328.26 417.25,2232.05 411.18,2122.31 440.6,1977.09 477.38,1824.5 Z"
         id="vastus_medialis_right" />
      <path
         class="cls-3"
         d="M 349.79,2601.54 C 369.08,2510.39 417.36,2563.7 440.09,2704.77 463.33,2842.85 409.26,2991.65 478.56,3278.39 488.34,3312.89 475.11,3323.86 466.73,3327.09 454.48,3331.82 437.26,3314.62 434.84,3301.12 388.96,3036.06 271.18,2851.55 349.78,2601.53 V 2601.53 Z"
         id="fibularis_longus_right" />
      <path
         class="cls-3"
         d="M 473.07,2596.72 C 468.2,2534.47 495.8,2529.06 512.04,2624.33 562,2798.68 514.3,2861.45 499.05,2971.85 493.64,3032.48 476.86,3030.85 479.56,2950.74 477.39,2832.74 496.34,2729.35 473.06,2596.73 V 2596.73 Z"
         id="gastrocnemius_right" />
      <path
         class="cls-3"
         d="M 816.92,1482 C 810.81,1416.36 758.75,1519.6 775.44,1560.15 782.58,1583.75 792.64,1605.88 796.85,1630.95 803.68,1665.05 826.15,1655.1 823.2,1612.84 819.34,1572.66 824,1523.16 816.92,1482 Z"
         id="gluteus_medius_left" />
      <path
         class="cls-3"
         d="M 715.7,1561.35 C 634.96,1698.66 637.47,1750.12 691.02,1998.32 698.32,2055.23 706.54,2092.55 721.19,1992.84 736.12,1851.45 815.96,1743.88 765.98,1568.67 756.53,1544.29 754.4,1492.49 715.7,1561.36 V 1561.36 Z"
         id="rectus_femoris_left" />
      <path
         class="cls-3"
         d="M 837.28,1722.95 C 827.03,1654.8 815.01,1652.58 801.2,1716.27 750.84,1913.78 708.43,2108.1 711.67,2284.17 719.63,2336.9 732.07,2375.31 775.81,2313.57 854.04,2147.26 880.2,1953.4 837.28,1722.96 V 1722.96 Z"
         id="vastus_lateralis_left" />
      <path
         class="cls-3"
         d="M 636.85,1824.5 C 616.81,1765.26 603.89,1773.72 598.1,1849.89 590.08,2001.33 593.65,2158.11 612.8,2304.21 618.14,2367.01 692.97,2328.26 696.98,2232.05 703.05,2122.31 673.63,1977.09 636.85,1824.5 Z"
         id="vastus_medialis_left" />
      <path
         class="cls-3"
         d="M 764.43,2601.54 C 745.14,2510.39 696.86,2563.7 674.13,2704.77 650.89,2842.85 704.96,2991.65 635.66,3278.39 625.88,3312.89 639.11,3323.86 647.49,3327.09 659.74,3331.82 676.96,3314.62 679.38,3301.12 725.26,3036.06 843.04,2851.55 764.44,2601.53 V 2601.53 Z"
         id="fibularis_longus_left" />
      <path
         class="cls-3"
         d="M 646.83,2596.72 C 651.7,2534.47 624.1,2529.06 607.86,2624.33 557.9,2798.68 605.6,2861.45 620.85,2971.85 626.26,3032.48 643.04,3030.85 640.34,2950.74 642.51,2832.74 623.56,2729.35 646.84,2596.73 V 2596.73 Z"
         id="gastrocnemius_left" />
    </g>
  </g>
</svg>
