<?xml version="1.0" encoding="UTF-8" standalone="no"?>
<svg
   xmlns:dc="http://purl.org/dc/elements/1.1/"
   xmlns:cc="http://creativecommons.org/ns#"
   xmlns:rdf="http://www.w3.org/1999/02/22-rdf-syntax-ns#"
   xmlns:svg="http://www.w3.org/2000/svg"
   xmlns="http://www.w3.org/2000/svg"
   xmlns:sodipodi="http://sodipodi.sourceforge.net/DTD/sodipodi-0.dtd"
   xmlns:inkscape="http://www.inkscape.org/namespaces/inkscape"
   id="Layer_2"
   viewBox="0 0 1154.6185 3491.1324"
   version="1.1"
   sodipodi:docname="muscular_back.svg"
   width="1154.6184"
   height="3491.1323"
   inkscape:version="1.0 (4035a4f, 2020-05-01)">
  <metadata
     id="metadata356">
    <rdf:RDF>
      <cc:Work
         rdf:about="">
        <dc:format>image/svg+xml</dc:format>
        <dc:type
           rdf:resource="http://purl.org/dc/dcmitype/StillImage" />
        <dc:title></dc:title>
      </cc:Work>
    </rdf:RDF>
  </metadata>
  <sodipodi:namedview
     inkscape:snap-bbox="false"
     inkscape:snap-global="true"
     inkscape:document-rotation="0"
     pagecolor="#ffffff"
     bordercolor="#666666"
     borderopacity="1"
     objecttolerance="10"
     gridtolerance="10"
     guidetolerance="10"
     inkscape:pageopacity="0"
     inkscape:pageshadow="2"
     inkscape:window-width="1728"
     inkscape:window-height="1080"
     id="namedview354"
     showgrid="false"
     fit-margin-top="0"
     fit-margin-left="0"
     fit-margin-right="0"
     fit-margin-bottom="0"
     inkscape:zoom="0.40174994"
     inkscape:cx="8.7344689"
     inkscape:cy="945.10725"
     inkscape:window-x="0"
     inkscape:window-y="37"
     inkscape:window-maximized="0"
     inkscape:current-layer="_ÎÓÈ_1" />
  <defs
     id="defs282">
    <style
       id="style280">.cls-1{fill:#878787;}.cls-1,.cls-2,.cls-3{fill-rule:evenodd;}.cls-2{fill:#c6c6c6;}.cls-3{fill:#ededed;}</style>
  </defs>
  <g
     id="_ÎÓÈ_1">
    <path
       class="cls-1"
       d="M 713.42,362.84 C 710.88,393.95 700.65,417.38 690.99,441.36 695.88,461.04 695.64,485.85 702.2,503.86 752.01,531.5 801.89,559.08 846.42,592 892.68,595.89 934.69,599.85 968.21,622.45 986.47,634.76 1000.81,650.42 1016.28,667.32 1049.19,703.26 1080.29,733.56 1085.19,797.12 1086.99,820.52 1085.53,847.51 1083.58,872.44 1081.75,895.94 1080.9,919.83 1072.37,938.14 1088.04,968.13 1105.68,1000.27 1114.03,1037.49 1122.66,1075.95 1128.41,1121.66 1125.25,1167.29 1122.21,1211.1 1118.31,1255.12 1130.05,1297.09 1140.63,1334.88 1151.54,1371.4 1154.09,1412.47 1158.12,1477.42 1137.72,1538.15 1120.44,1595.15 1112.06,1622.79 1103.26,1649.64 1093.2,1675.27 1082.89,1701.54 1067.85,1726.09 1061.14,1750.59 1057.46,1764.04 1058.08,1780.95 1054.73,1792.25 1050.76,1805.64 1037.75,1817.15 1035.5,1830.71 1032.61,1848.19 1037.27,1876.63 1038.71,1896.41 1040.53,1921.51 1044.38,1951.25 1038.71,1970.12 1033.97,1985.87 1019.15,1997.38 1009.86,2010.18 1000.27,2023.41 994.34,2043.64 977.82,2048.64 944.33,2058.75 921.18,2030.66 900.89,2018.19 884.53,2147.65 865.59,2274.53 814.36,2369.13 818.32,2422.21 812.13,2477.61 804.75,2526.17 802.33,2542.01 801.5,2558.6 793.53,2571.04 842.66,2683.76 851.15,2840.93 817.57,2966.85 801.92,3025.52 776.62,3081.1 759.88,3139.92 745.5,3190.47 733.12,3246.66 731.04,3312.99 730.74,3322.46 728.28,3333.01 729.43,3340.23 731.2,3351.27 742.84,3362.34 751.87,3373.88 760.39,3384.78 769.14,3396.47 775.9,3404.33 790.05,3420.76 826.45,3443.22 825.58,3463.62 823.93,3502.41 743.77,3480.06 706.99,3482.85 681.96,3484.75 642.09,3497.01 612.45,3487.66 573.58,3475.39 588.59,3423.51 596.42,3381.9 609.34,3313.29 614.58,3234.87 617.26,3157.55 621.34,3039.41 594.29,2961.76 577.2,2870.71 560.38,2959.28 533.1,3040.81 537.14,3157.55 539.78,3234.02 544.67,3311.23 557.97,3381.9 565.43,3421.53 582.38,3475.37 541.94,3487.66 512.53,3496.6 476.83,3485.28 449,3482.85 415.49,3479.93 332.57,3502.11 328.82,3465.22 326.79,3445.2 367.59,3417 378.5,3404.33 386.04,3395.57 394.32,3384.38 402.53,3373.88 411.08,3362.96 423.09,3351.72 424.97,3341.83 427.07,3330.76 424.15,3302.04 423.37,3285.74 422.47,3267.02 419.54,3249.11 416.96,3234.46 404.67,3164.86 387.35,3113.47 365.68,3054.99 355.09,3026.4 346.5,2997.01 338.44,2966.85 321.29,2902.72 314.33,2834.54 317.61,2760.13 320.54,2693.28 337.74,2628.39 360.87,2572.64 350,2544.48 346.85,2511.96 343.25,2476.49 340.59,2450.38 338.58,2423.96 338.44,2396.37 338.39,2388.04 341.11,2377.79 340.04,2370.73 338.8,2362.53 327.03,2342.75 322.41,2332.27 283.96,2244.83 268.5,2131.99 253.5,2019.79 247.4,2020.08 241.82,2026.63 235.87,2031.01 224.19,2039.63 199.35,2055.51 176.58,2048.64 161.52,2044.09 156.37,2026.81 146.13,2011.78 135.29,1995.88 118.79,1986.93 114.08,1968.51 109.69,1951.3 112.76,1922.07 114.08,1899.6 115.38,1877.62 121.87,1853.51 118.89,1832.3 117,1818.79 105.82,1808.25 101.26,1795.44 97.18,1783.95 96.94,1766.49 93.25,1752.17 86.93,1727.62 73.17,1701.8 62.81,1675.25 52.88,1649.82 42.26,1624.16 33.96,1596.73 16.88,1540.26 -2.78,1480.05 0.31,1415.65 2.28,1374.58 12.05,1335.4 22.75,1297.07 34.44,1255.21 34.07,1212.05 30.76,1167.27 24.16,1078.14 45.01,1001.45 80.43,939.72 65.04,865.44 61.7,769.31 91.65,720.18 103.25,701.15 122.22,684.67 138.12,667.3 157.19,646.47 174.18,624.77 199.01,612.82 222.67,601.43 249.29,599.49 277.54,595.19 286.65,593.8 297.9,594.28 306.38,591.99 317.78,588.9 328.93,576.64 341.63,567.95 375.06,545.09 419.14,523.81 452.21,503.85 458.8,486.41 458.16,461.73 463.43,442.96 454.68,418.05 443.86,395.23 440.99,364.44 434.32,365.09 424.78,366.64 416.96,361.24 400.2,349.66 363.06,244.52 408.94,228.23 394.16,158.45 415.86,94.61 449,55.16 479.52,18.86 528.46,-4.35 594.84,0.69 630.32,3.38 666.38,18.34 690.99,39.15 736.78,77.87 757.23,147.85 747.07,226.64 745.91,232.07 754.25,232.53 758.29,237.86 774.52,259.28 767.14,299.11 756.68,325.99 746.97,350.96 738.78,370.79 713.41,362.85 V 362.85 Z M 556.38,2333.88 C 552.44,2362.56 547.55,2392.61 548.37,2420.41 549.25,2450.58 559.49,2481.09 561.19,2511.75 563.53,2553.91 554.98,2591.83 546.77,2631.93 556.66,2669.05 568.98,2703.73 575.61,2744.1 580.88,2742.73 579.59,2734.81 580.42,2731.28 588.61,2696.57 598.93,2663.81 607.66,2631.93 599.44,2591.33 590.59,2552.71 593.24,2510.14 595.16,2479.25 605.49,2449.28 606.06,2418.8 606.58,2391.46 601.68,2362.42 598.05,2333.87 586.99,2246.84 582.15,2159.46 577.22,2074.27 575.99,2164.67 567.57,2252.54 556.38,2333.87 V 2333.87 Z M 844.83,1249.01 C 854.81,1304.31 852.74,1384.98 841.62,1431.69 861.13,1471.07 879.64,1507.37 883.28,1558.29 884.85,1580.16 878.98,1605.09 881.68,1623.99 883.31,1635.41 893.28,1651.13 899.31,1665.66 905.23,1679.95 912.22,1695.1 915.33,1710.53 922.31,1745.11 916.93,1775.48 910.52,1808.28 920.72,1799.02 935.48,1785.47 936.16,1773.02 938.66,1727.62 947.64,1679.33 947.38,1632 947.07,1574.81 926.94,1531.78 920.14,1482.97 907.32,1390.99 919.47,1310.98 948.98,1245.8 930.31,1206.79 922.46,1156.95 912.13,1109.59 896.6,1162.97 868.74,1204.02 844.83,1249 V 1249 Z M 205.44,1245.81 C 235.43,1312.81 247.44,1394.21 234.28,1484.58 228.55,1524.01 213.19,1561.99 208.64,1603.16 204.73,1638.53 209.41,1669.57 213.45,1702.51 217.73,1737.3 214.59,1775.2 229.48,1795.45 232.71,1799.84 239.55,1806.47 243.91,1806.67 238.52,1783.87 235.7,1764.99 235.89,1742.57 236.17,1710.22 245.79,1688.16 255.12,1665.65 261.44,1650.4 271.28,1634.57 272.75,1622.38 275.48,1599.65 269.55,1577.38 271.15,1556.68 275.04,1506.09 294.56,1470.25 312.81,1430.09 301.26,1384.3 299.91,1303.6 309.6,1249.01 284.7,1204.48 259.02,1160.71 240.7,1109.6 233.64,1159.69 223.03,1206.24 205.45,1245.81 V 1245.81 Z"
       id="outline" />
    <path
       style="stroke-width:0.999999"
       class="cls-2"
       d="M 715.02032,274.71 C 724.59031,250.13 732.69031,224.41 734.2503,196.19 736.92031,148.08 722.4003,107.39 703.81029,77.61 685.68029,48.58 648.11027,25.84 607.65025,18.32 537.50023,5.28 474.0302,40.1 450.61018,77.61 434.50018,103.41 422.49017,135.84 420.16017,170.55 416.34017,227.57 436.01018,274.49 455.41019,308.36 461.0902,318.27 470.65019,328.14 469.83019,340.41 460.11019,338.67 455.49018,327.68 450.61018,321.18 433.67018,298.69 419.78018,274.84 410.55017,245.86 395.37017,269.26 405.15017,299.4 413.75018,321.18 418.20018,332.43 423.02019,351.15 434.58019,346.82 443.66018,343.9 429.49017,326.06 440.99018,324.39 454.25019,347.99 456.47019,382.63 468.23021,407.72 469.61019,397.88 466.3602,383.41 477.8502,383.68 482.41021,392.33 480.3602,404.54 479.45021,415.73 478.54019,426.87 477.5202,439.39 476.2502,450.98 474.3202,468.57 473.31021,503.55 465.0402,515.08 458.8802,523.65 431.94018,534.3 420.16017,540.72 402.79017,550.19 388.24016,558.68 375.29017,566.36 341.56014,586.37 313.47012,605.31 285.55011,619.24 277.37012,619.15 285.52012,606.95 279.14011,611.23 250.3201,615.22 224.8701,618.83 202.22008,630.46 182.28007,640.7 165.86006,659.1 150.95004,675.33 134.87006,692.81 119.58005,708.64 107.68004,728.21 80.290028,773.23 81.310028,848.52 91.660033,915.7 93.320034,918.13 97.420036,903.33 104.48004,910.89 78.280027,970.53 51.340016,1033.22 46.790013,1106.39 43.770012,1155.12 50.920015,1199.76 48.390014,1249.01 46.690014,1282.03 34.710008,1309.38 27.560005,1340.35 20.180002,1372.32 14.359999,1407.97 16.35,1442.91 18.070001,1473.22 26.070004,1505.83 33.970007,1537.45 41.400011,1567.19 49.410015,1598.3 59.610019,1625.59 75.460026,1667.97 95.880035,1705.4 107.68004,1745.77 112.23004,1761.32 111.19004,1779.15 117.30004,1793.84 121.69005,1804.4 130.71005,1812.02 133.32005,1822.68 136.92005,1837.4 134.89006,1859.11 133.32005,1878.77 131.97005,1895.66 130.83005,1914.22 130.12005,1930.05 129.66005,1940.01 127.04005,1949.37 128.51005,1958.89 131.68005,1979.39 148.67006,1986.62 160.56006,2005.36 166.86007,2015.29 171.93007,2029.68 179.79007,2032.6 206.26008,2042.45 237.54009,2010.35 250.31011,1995.74 247.0801,1943.94 246.2301,1889.78 245.5001,1835.49 230.31009,1817.06 212.86008,1806.05 205.44009,1782.61 201.75008,1770.93 203.38009,1755.86 202.24008,1740.95 199.10007,1700.19 188.04007,1660.07 191.03007,1619.16 193.76008,1581.58 204.62008,1544.76 211.86009,1508.59 229.3701,1421.08 225.95009,1345.31 199.03008,1271.43 195.61008,1268.6 193.92008,1287.96 186.21008,1281.04 186.28008,1264.57 192.86008,1247.87 197.43006,1231.36 206.95008,1196.95 215.06009,1164.14 221.46009,1125.6 224.2401,1108.88 231.88009,1084.5 231.0801,1069.51 230.6401,1061.38 225.64009,1049.73 223.07009,1039.06 215.85009,1009.25 213.00008,967.72 203.84008,942.91 199.93009,932.32 192.36007,924.23 189.41007,914.07 186.65007,904.56 185.63008,892.64 184.61008,882.02 183.46008,870.2 180.07008,854.56 187.81008,851.57 195.06009,857 194.33008,866.99 195.82008,874 197.57008,882.22 199.71008,889.75 202.23008,898.04 207.00009,913.7 215.01009,927.14 219.86008,941.31 231.2001,974.44 231.1001,1009.53 239.09009,1042.27 246.83011,1073.95 255.82011,1105.8 267.93011,1135.21 289.00012,1186.36 320.82013,1226.12 336.84015,1277.83 338.82014,1284.24 343.29015,1293.48 338.44014,1300.27 326.79013,1299.1 329.12014,1283.94 322.41013,1277.83 317.94013,1325.22 315.99013,1385.93 330.43014,1423.65 300.51013,1476.79 280.49011,1555.03 288.76012,1636.78 290.02011,1649.19 294.39012,1662.19 288.76012,1673.64 278.48011,1673.24 283.10012,1657.94 277.55012,1652.81 268.72011,1679.08 254.11011,1702.15 251.91011,1732.93 249.9701,1759.88 258.33011,1787.38 261.52011,1816.26 266.41011,1860.42 261.11011,1901.63 263.13011,1946.06 266.9601,2030.24 280.89011,2112.69 296.78013,2188.03 313.15013,2265.68 335.58015,2335.9 365.68016,2394.75 366.85016,2401.67 351.14015,2397.03 356.07016,2402.76 353.49015,2451.31 363.16015,2501.41 368.89016,2546.98 373.91015,2550.43 374.66016,2528.83 383.32017,2535.76 384.87016,2545.41 379.78015,2555.03 376.91016,2563 353.90015,2626.81 335.48014,2705.52 332.04013,2784.14 327.97014,2876.7 349.86015,2960.16 378.51015,3038.93 391.97016,3075.94 405.52017,3114.25 415.36018,3152.7 425.97018,3194.12 436.49019,3237.51 439.40018,3280.9 440.39018,3295.67 443.1102,3333.01 441.00019,3345 439.06019,3356.1 426.70017,3371.57 418.57018,3381.86 402.22016,3402.55 386.61015,3421.81 368.89016,3437.95 360.18014,3445.88 346.07015,3451.7 346.46015,3465.19 377.39017,3480.77 420.93019,3458.66 455.43019,3468.4 439.58018,3453.18 447.3302,3423.46 453.83019,3405.9 457.2602,3396.65 460.48019,3385.99 466.65019,3383.46 471.19021,3402.84 456.61019,3426.87 461.8402,3447.56 465.2502,3461.03 478.9902,3464.21 487.48021,3473.2 508.35022,3470.26 528.24022,3477.87 541.96023,3470 563.35024,3457.73 547.37023,3413.02 541.96023,3385.07 537.66022,3362.82 534.38024,3339.19 532.35022,3319.37 524.80022,3245.7 517.55022,3170.68 521.13022,3091.82 526.16023,2981.18 573.90025,2887.91 566.00023,2779.34 563.44023,2744.1 550.26023,2709.48 541.96023,2675.18 535.42024,2648.12 530.69022,2621.19 525.94023,2595.06 524.54022,2587.37 519.43022,2575.3 527.54022,2569.42 536.10023,2573.14 533.03022,2588.5 538.76022,2595.06 541.14024,2565.92 546.91023,2539.8 545.17024,2511.73 542.87023,2474.8 529.89023,2439.51 532.35022,2399.56 535.15022,2353.94 544.50023,2307.88 549.97024,2260.15 563.78024,2139.83 565.72024,2011.89 562.79023,1880.37 556.24023,1882.51 549.65023,1889.31 541.96023,1893.19 516.59022,1905.99 486.62022,1908.41 455.43019,1906.01 387.18016,1900.75 323.87014,1858.01 322.43013,1798.64 333.11013,1803.39 336.56014,1816.47 343.27015,1825.88 349.57014,1834.72 356.37014,1845.57 364.10016,1853.12 405.31017,1893.39 505.66022,1903.58 549.98023,1870.75 562.28024,1861.64 566.99024,1847.78 580.43026,1837.1 602.20027,1908.76 740.18032,1902.17 790.35033,1853.13 802.04034,1841.71 812.44035,1824.01 820.80035,1811.46 823.86035,1806.87 824.57035,1796.6 833.62036,1798.64 824.83035,1864.72 765.18032,1901.15 697.42029,1906.01 655.84027,1908.99 628.37026,1901.18 606.07025,1888.38 600.79025,1885.34 593.99025,1879.07 593.25025,1883.57 590.60025,2012.57 592.11025,2143.95 606.07025,2260.15 611.89025,2308.5 619.59026,2355.22 622.09026,2401.17 622.53026,2409.08 622.67028,2417.28 622.09026,2425.21 617.93026,2482.41 598.14025,2538.18 617.29026,2595.07 620.39027,2585.9 618.54026,2571.75 628.50026,2569.43 633.61026,2576.86 629.98026,2586.95 628.50026,2595.07 623.39026,2623.19 618.87025,2648.77 612.48025,2675.19 604.05025,2710 590.87025,2744.76 588.43024,2780.95 581.16024,2889.44 628.43027,2982.57 633.30027,3093.43 634.54027,3121.45 634.68026,3151.4 633.30027,3181.57 630.19026,3250.13 624.47026,3323.09 612.47025,3385.08 608.11027,3407.62 599.50025,3432.6 601.25025,3449.18 604.44025,3479.4 635.74026,3472.17 668.55029,3473.22 675.64028,3462.64 689.13029,3461.22 692.59029,3447.58 698.09029,3425.83 681.03029,3399.07 689.38029,3383.48 696.97029,3398.12 711.9603,3424.9 708.6103,3447.58 707.3003,3456.44 700.9203,3461.24 700.60029,3468.41 723.8203,3460.47 754.00032,3471.96 779.13033,3471.61 788.81034,3471.48 801.47034,3470.67 807.97035,3463.6 805.74034,3451.63 794.40033,3444.54 785.54033,3436.36 776.29032,3427.83 768.46032,3419.32 759.89032,3409.12 746.09033,3392.66 720.54031,3368.95 715.02032,3348.23 712.5903,3339.08 714.4403,3330.96 715.02032,3317.78 715.6303,3303.95 714.3503,3288.7 715.02032,3279.32 718.1303,3236.56 728.60031,3193.56 739.06031,3152.72 748.93032,3114.15 762.37033,3076.18 775.91033,3038.95 804.68034,2959.85 826.58036,2874.87 822.38035,2782.55 818.75034,2702.8 799.61034,2622.48 777.52033,2561.41 774.66033,2553.52 766.92032,2543.38 772.71033,2534.17 780.92033,2532.37 781.60033,2553.4 785.53033,2545.39 791.82034,2500.35 800.86034,2449.7 798.35034,2401.17 801.55034,2398.37 785.85034,2400.94 788.73033,2393.16 820.38035,2335.22 841.16036,2263.9 857.64037,2186.44 873.72037,2110.85 887.57038,2028.92 891.29038,1944.47 893.35039,1897.42 887.86038,1858.06 892.89038,1814.67 896.28039,1785.48 904.74039,1758.26 902.50039,1731.34 899.96039,1700.86 886.09038,1677.36 875.26037,1652.82 873.55037,1660.59 873.38037,1677.1 864.05037,1672.05 865.76037,1634.18 870.20037,1596.58 867.25037,1558.28 863.24037,1506.15 838.83036,1460.56 823.99035,1422.07 831.18035,1406.7 834.02036,1383.31 835.20035,1359.57 836.58036,1331.95 834.99035,1300.32 830.39036,1277.84 826.17036,1286.44 826.96035,1300.05 814.36035,1300.28 816.27035,1267.9 832.26035,1241.7 846.41036,1215.35 874.52038,1163.06 899.72038,1106.17 915.3104,1042.28 923.47039,1008.85 923.48039,971.04 934.5404,939.72 939.2604,926.38 949.1704,913.47 953.77041,898.06 956.26041,889.75 956.7804,880.97 958.59041,872.42 959.84041,866.45 959.20041,854.15 968.20042,851.59 974.70042,860.73 969.16041,872.14 968.20042,882.04 967.12041,893.27 968.26041,904.93 965.00041,915.69 962.12041,925.18 954.12041,933.32 950.5704,942.93 944.33039,959.83 941.77039,985.2 937.76039,1007.03 935.7604,1017.87 933.9204,1028.42 931.35039,1039.08 928.88039,1049.26 923.7704,1061.43 923.3304,1069.53 922.9204,1077.23 926.7304,1087.6 928.14039,1096.77 935.7104,1146.09 945.0704,1190.23 956.9804,1232.98 961.94041,1250.75 971.22041,1268.32 966.59041,1282.66 958.95041,1284.84 958.07041,1265.37 955.37041,1273.05 927.29039,1348.14 925.56039,1423.71 942.55041,1508.61 949.95041,1545.53 960.83041,1582.69 963.38041,1620.78 966.14041,1662.02 954.89041,1702.58 952.17041,1744.17 951.44041,1755.15 953.8104,1764.64 952.17041,1774.62 949.40041,1791.49 939.2604,1800.18 929.73039,1811.48 922.21039,1820.4 910.99039,1829.51 908.90039,1837.12 905.56038,1849.3 909.48039,1864.48 908.90039,1877.18 907.06039,1917.75 906.50039,1961.54 904.10039,1997.36 919.46039,2011.64 942.13041,2035.64 968.19041,2034.22 983.82041,2033.36 985.73041,2016.59 993.83042,2003.77 1002.9804,1989.31 1017.9104,1981.44 1022.6704,1970.12 1027.7304,1958.13 1024.9004,1942.76 1024.2804,1928.46 1023.5904,1912.68 1022.4204,1895.66 1021.0704,1878.78 1019.6104,1860.59 1017.3604,1840.87 1019.4704,1825.9 1021.2504,1813.22 1032.6404,1804.55 1037.0904,1793.85 1042.9404,1779.79 1042.3004,1762.66 1046.7004,1747.38 1050.7305,1733.38 1055.6904,1719.12 1061.1205,1705.71 1082.5705,1652.88 1105.2305,1598.2 1120.4105,1537.45 1128.4305,1505.36 1136.4905,1472.4 1138.0405,1441.3 1139.7505,1406.97 1134.1405,1372.07 1126.8205,1340.34 1119.5405,1308.81 1107.4705,1281.13 1105.9905,1247.4 1104.6705,1217.43 1108.1305,1183.44 1109.1905,1159.26 1112.8805,1075.38 1091.4905,1008.96 1067.5305,954.15 1061.1605,939.57 1052.0604,925.53 1051.5104,909.28 1060.5005,904.41 1060.7305,922.28 1062.7204,914.09 1067.1405,877.56 1071.7105,837.31 1069.1305,801.92 1066.2505,762.21 1051.7704,729.05 1027.4704,700.96 1017.4504,689.39 1004.4404,676.79 992.22043,664.1 979.77042,651.18 966.75041,637.29 953.7504,630.45 931.1004,618.52 899.65038,614.75 873.63037,611.22 870.96037,607.9 876.08037,621.04 867.22037,619.23 828.20035,596.21 778.68033,564.96 734.22031,540.71 720.3903,533.16 695.87029,523.25 689.35029,513.47 680.08028,499.54 680.56028,471.89 678.14029,449.37 676.92028,438.13 675.85028,427.02 674.93029,415.72 674.10029,405.48 670.60028,390.36 678.14029,383.67 688.78029,384.24 682.99029,401.25 687.75031,407.71 693.40029,386.83 699.8703,362.49 705.3803,343.61 707.41029,336.63 707.5203,327.09 714.9903,324.38 724.38031,328.05 709.3503,346.21 721.40031,346.81 732.58031,349.63 736.18031,331.17 740.63032,319.57 749.47032,296.54 760.29032,265.89 742.23031,245.86 735.21031,275.44 719.0003,302.44 703.78029,322.78 699.0203,329.14 692.26029,341.5 682.94029,338.8 692.41031,317.83 705.94031,297.96 714.9903,274.7 V 274.7 Z M 655.73028,2462.07 C 657.60028,2461.81 658.58027,2462.42 658.94028,2463.67 658.33027,2488.44 673.28028,2512.51 665.3503,2534.18 654.59029,2515.1 650.21028,2490.43 655.73028,2462.07 Z M 748.68032,2428.42 C 769.84033,2451.76 768.96033,2490.72 767.91033,2529.38 759.56032,2524.91 761.88032,2509.78 755.09032,2503.74 755.22032,2476.38 754.64032,2449.72 748.68032,2428.42 Z M 495.49022,2462.07 C 497.36021,2461.81 498.34021,2462.42 498.70021,2463.67 505.08021,2491.59 498.20021,2513.05 490.6902,2534.18 478.4502,2514.54 497.80021,2486.56 495.49022,2462.07 Z M 404.16017,2428.42 C 408.45018,2434.78 401.92017,2438.99 400.95016,2446.05 398.65017,2462.75 402.31017,2485.18 399.35017,2502.14 398.46017,2507.26 394.95017,2511.53 392.94017,2516.56 391.17016,2520.99 393.01016,2530.05 386.53016,2529.38 385.00017,2490.59 385.66016,2453.98 404.17017,2428.42 V 2428.42 Z M 580.42026,1027.86 C 581.78024,1027.57 581.93025,1028.49 582.02024,1029.46 581.33024,1114.29 587.53024,1206.72 583.63025,1295.47 582.39024,1323.54 584.74024,1352.14 577.22024,1377.2 566.95024,1367.78 569.46025,1352.1 569.20023,1338.74 568.37024,1296.49 567.10024,1249.44 569.20023,1204.13 572.13024,1141.3 570.02023,1076.79 580.42026,1027.86 Z M 574.01024,391.68 H 577.22024 C 583.30024,395.51 580.30024,405.1 580.42026,410.91 581.13024,444.86 588.43024,486.85 578.82024,515.07 578.47024,514.86 577.50025,515.34 577.22024,515.07 558.42024,497.86 580.48024,431.47 574.01024,396.49 Z M 641.31027,354.82 C 636.12027,361.07 626.66026,362.59 620.48026,362.83 607.19025,363.36 592.74025,353.91 580.42026,353.22 559.74025,352.04 533.94024,372.99 513.12021,356.42 515.74022,352.11 522.08022,354.21 525.94023,353.22 530.84022,351.96 535.02023,349.97 540.36023,348.41 554.74023,344.22 569.13024,336.11 586.83025,338.8 595.56025,340.13 605.51025,345.92 614.07026,348.41 623.63026,351.2 631.88026,353.88 641.31027,354.82 Z M 83.930029,1254.01 C 81.38003,1272.26 70.590023,1286.97 75.100025,1306.99 74.710025,1321.51 89.620033,1337.2 91.580032,1348.78 87.660031,1342.31 60.19002,1321.7 60.380019,1311.7 64.310022,1291.88 71.170023,1260.88 83.92003,1254.01 V 1254.01 Z M 145.15006,1268.73 C 138.75006,1278.82 141.87005,1294.66 139.12005,1310.96 137.55005,1320.26 123.96005,1316.88 123.96005,1328.18 123.96005,1330.42 123.60005,1340.07 124.55005,1339.36 137.78005,1329.59 148.09006,1325.87 148.09006,1306.4 148.09006,1300.46 149.60006,1290.07 148.09006,1284.62 147.10005,1281.06 144.89006,1278.07 146.45005,1274.98 150.24006,1267.47 144.42006,1268.49 145.14006,1268.73 V 1268.73 Z M 1004.6704,1268.73 C 1011.0704,1278.82 1007.9504,1294.66 1010.7004,1310.96 1012.2704,1320.26 1025.8604,1316.88 1025.8604,1328.18 1025.8604,1330.42 1026.2204,1340.07 1025.2704,1339.36 1012.0404,1329.59 1001.7304,1325.87 1001.7304,1306.4 1001.7304,1300.46 1000.2204,1290.07 1001.7304,1284.62 1002.7204,1281.06 1004.9304,1278.07 1003.3704,1274.98 999.58042,1267.47 1005.4004,1268.49 1004.6804,1268.73 V 1268.73 Z M 1065.8905,1254.01 C 1068.4405,1272.26 1079.2305,1286.97 1074.7205,1306.99 1075.1105,1321.51 1060.2004,1337.2 1058.2404,1348.78 1062.1605,1342.31 1089.6305,1321.7 1089.4405,1311.7 1085.5205,1291.88 1078.6505,1260.88 1065.9004,1254.01 V 1254.01 Z"
       id="inner_outline" />
    <path
       class="cls-3"
       d="M 241.08,635.6 C 253.55,629.31 261.64,628.42 272.59,632.88 292.11,640.81 310.94,662.45 317.87,679.9 323.4,693.83 319.66,697.57 306.07,704.66 224.41,751.19 175.75,817.91 142.1,893.8 134.44,915.15 112.77,936.5 109.1,873.78 99.51,832.75 100.36,782 125.94,734.65 149.22,691.54 194.54,650.54 241.08,635.6 Z"
       id="deltoid_left" />
    <path
       class="cls-3"
       d="M 219.47,805 C 220.92,789.07 274.97,729.53 297.06,739.67 319.87,744.74 310.1,808.39 328.57,849.31 336.54,882.26 278.23,896.75 257.95,882.99 234.73,868.27 216.14,825.61 219.47,805 Z"
       id="infraspinatus_left" />
    <path
       class="cls-3"
       d="M 129.92,936.27 C 165.39,892.47 166.71,899.23 179.85,926.14 193.03,944.9 226,1028.05 209.05,1106.7 200.26,1146.26 191.47,1185.83 182.67,1225.39 172.19,1261.38 161.7,1285.14 151.22,1223.36 141.41,1195.29 115.04,1176.36 120.45,1139.16 122.13,1111.77 98.6,1107.49 88.32,1138.15 84.94,1160.81 81.56,1183.46 78.18,1206.12 63.97,1257.52 56.46,1255.86 57.89,1202.06 51.29,1064.84 81.34,985.83 129.92,936.27 Z"
       id="triceps_brachii_left" />
    <path
       class="cls-3"
       d="M 238.01,952.63 C 234.88,928.93 207.82,886.63 262.08,906.03 285.48,912.88 321.62,904.03 344.11,885.18 354.56,870.61 365.01,871.25 375.46,887.08 426.22,931.71 463.11,1000.13 496.13,1075.2 514.03,1098.64 512.09,1118.59 502.78,1136.96 482.01,1188.26 460.35,1237.55 432.47,1272.83 412.2,1294.92 374.65,1294.73 354.39,1263.61 309.57,1199.22 250.99,1099.58 238.01,952.63 Z"
       id="latissimus_dorsi_left" />
    <path
       class="cls-3"
       d="M 301.98,627.43 C 301.51,612.83 444.77,584.76 523.79,580.36 554.53,577.22 561.9,582.31 563.32,604.42 568,751.69 570.38,897.87 563.32,1039.56 561.49,1083.49 551.48,1151.11 525.62,1082.2 493.28,1002.59 413.98,884.75 346.64,831.98 336.39,823.8 325.49,803.04 329.31,786.89 334.82,760.46 375,736.58 378.22,716.66 380.83,698.81 369.77,697.62 353.39,685.92 334.36,668.83 300.16,647.65 301.99,627.43 V 627.43 Z"
       id="trapezius_bottom_left" />
    <path
       class="cls-3"
       d="M 366.33,580.33 C 419.19,544.89 472.05,540.15 478.54,520.43 496.63,446.69 485.66,398.02 495,389.4 502.56,375.3 541.05,378.43 548.11,386.41 564.81,412.62 550.85,479.26 553.34,524.93 553.34,544.9 557.08,563.37 527.91,568.36 492.5,570.86 447.37,574.1 386.53,588.58 346.63,601.56 341.9,595.81 366.33,580.34 V 580.34 Z"
       id="trapezius_top_left" />
    <path
       class="cls-3"
       d="M 414.91,1307.72 C 394.27,1312.22 388.85,1366.58 423.59,1376.28 456.96,1390.78 489.13,1409.48 516.96,1443.15 538.95,1470.34 546.81,1461.07 548.5,1419.09 557.2,1356.05 551.4,1243.06 551.24,1143.34 548,1123.8 533.69,1129.02 526.99,1139.42 494.9,1191.01 472.35,1296.99 414.91,1307.71 V 1307.71 Z"
       id="empty_left" />
    <path
       class="cls-3"
       d="M 338.36,1316.42 C 347.49,1303.37 384.64,1297.5 383.34,1316.42 380.95,1332.95 384.43,1351.44 387.9,1367.97 388.99,1382.98 349.66,1418.21 340.96,1394.07 334.44,1378.68 329.87,1350.94 338.35,1316.42 V 1316.42 Z"
       id="external_oblique_left" />
    <path
       class="cls-3"
       d="M 487.11,1496.1 C 429.22,1519 406.67,1583.34 367.97,1625.45 349.46,1645.32 302.68,1706.63 301.33,1620.4 301.85,1519.54 315.22,1419.07 411.38,1407.17 439.88,1404.03 545.86,1467.68 487.1,1496.1 V 1496.1 Z"
       id="gluteus_medius_left" />
    <path
       class="cls-3"
       d="M 506.6,1510.43 C 557.14,1485.38 563.41,1526.08 561.62,1552.03 560.72,1633.44 559.83,1714.85 558.94,1796.26 554.47,1826.23 544.63,1862.91 471.72,1868.72 364.37,1881.24 279.83,1713.95 348.26,1674.14 409.09,1650.43 449.8,1532.79 506.6,1510.43 Z"
       id="gluteus_maximus_left" />
    <path
       class="cls-3"
       d="M 119.52,1403.42 C 124.05,1360.62 136.18,1370.06 145.84,1349.62 162.31,1314.81 192.34,1292.4 201.73,1337.94 235.67,1464.11 148.74,1586.51 190.24,1728.16 197.02,1754.41 187.88,1825.79 168.14,1740.55 151.93,1628.17 120.7,1523.76 119.52,1403.42 Z"
       id="brachioradialis_left" />
    <path
       class="cls-3"
       d="M 39.96,1371.57 C 55.65,1323.78 81.43,1340.01 103.61,1440.59 109.64,1468.96 109.85,1498.94 117.52,1551.27 127.08,1616.45 144.83,1707.02 160.19,1764.45 168.59,1806.79 151.5,1822.12 121.29,1749.41 79.9,1611.87 11.45,1487.05 39.96,1371.58 V 1371.58 Z"
       id="flexor_carpi_ulnaris_left" />
    <path
       class="cls-3"
       d="M 912.98,635.6 C 900.51,629.31 892.42,628.42 881.47,632.88 861.95,640.81 843.12,662.45 836.19,679.9 830.66,693.83 834.4,697.57 847.99,704.66 929.65,751.19 978.31,817.91 1011.96,893.8 1019.62,915.15 1041.29,936.5 1044.95,873.78 1054.54,832.75 1053.69,782 1028.11,734.65 1004.83,691.54 959.51,650.54 912.97,635.6 V 635.6 Z"
       id="deltoid_right" />
    <path
       class="cls-3"
       d="M 934.59,805 C 933.14,789.07 879.09,729.53 857,739.67 834.19,744.74 843.96,808.39 825.49,849.31 817.52,882.26 875.83,896.75 896.11,882.99 919.33,868.27 937.93,825.61 934.59,805 Z"
       id="infraspinatus_right" />
    <path
       class="cls-3"
       d="M 1024.14,936.27 C 988.67,892.47 987.35,899.23 974.21,926.14 961.03,944.9 928.06,1028.05 945.01,1106.7 953.8,1146.26 962.6,1185.83 971.39,1225.39 981.87,1261.38 992.36,1285.14 1002.84,1223.36 1012.65,1195.29 1039.02,1176.36 1033.61,1139.16 1031.93,1111.77 1055.46,1107.49 1065.74,1138.15 1069.12,1160.81 1072.5,1183.46 1075.89,1206.12 1090.1,1257.52 1097.61,1255.86 1096.18,1202.06 1102.78,1064.84 1072.73,985.83 1024.15,936.27 V 936.27 Z"
       id="triceps_brachii_right" />
    <path
       class="cls-3"
       d="M 916.05,952.63 C 919.18,928.93 946.24,886.63 891.98,906.03 868.58,912.88 832.44,904.03 809.95,885.18 799.5,870.61 789.05,871.25 778.6,887.08 727.84,931.71 690.95,1000.13 657.93,1075.2 640.03,1098.64 641.97,1118.59 651.28,1136.96 672.05,1188.26 693.71,1237.55 721.59,1272.83 741.86,1294.92 779.41,1294.73 799.67,1263.61 844.49,1199.22 903.07,1099.58 916.05,952.63 Z"
       id="latissimus_dorsi_right" />
    <path
       class="cls-3"
       d="M 852.09,627.43 C 852.55,612.83 712.06,584.76 634.56,580.36 604.42,577.22 597.19,582.31 595.79,604.42 591.2,751.69 588.87,897.87 595.79,1039.56 597.59,1083.49 607.4,1151.11 632.77,1082.2 664.49,1002.59 742.25,884.75 808.3,831.98 818.35,823.8 829.04,803.04 825.3,786.89 819.9,760.46 780.49,736.58 777.33,716.66 774.77,698.81 785.61,697.62 801.68,685.92 820.35,668.83 853.88,647.65 852.09,627.43 Z"
       id="trapezius_bottom_right" />
    <path
       class="cls-3"
       d="M 787.73,580.33 C 734.87,544.89 682.01,540.15 675.52,520.43 657.43,446.69 668.4,398.02 659.06,389.4 651.5,375.3 613.01,378.43 605.95,386.41 589.25,412.62 603.21,479.26 600.71,524.93 600.71,544.9 596.97,563.37 626.14,568.36 661.55,570.86 706.68,574.1 767.52,588.58 807.42,601.56 812.15,595.81 787.72,580.34 V 580.34 Z"
       id="trapezius_top_right" />
    <path
       class="cls-3"
       d="M 739.28,1307.72 C 759.76,1312.22 765.14,1366.58 730.67,1376.28 697.55,1390.78 665.64,1409.48 638.01,1443.15 616.19,1470.34 608.39,1461.07 606.71,1419.09 598.08,1356.05 603.83,1243.06 603.99,1143.34 607.2,1123.8 621.41,1129.02 628.05,1139.42 659.89,1191.01 682.27,1296.99 739.28,1307.71 V 1307.71 Z"
       id="empty_right" />
    <path
       class="cls-3"
       d="M 815.71,1316.42 C 806.58,1303.37 769.42,1297.5 770.73,1316.42 773.12,1332.95 769.64,1351.44 766.17,1367.97 765.08,1382.98 804.41,1418.21 813.11,1394.07 819.63,1378.68 824.2,1350.94 815.72,1316.42 V 1316.42 Z"
       id="external_oblique_right" />
    <path
       class="cls-3"
       d="M 666.95,1496.1 C 724.84,1519 747.38,1583.34 786.09,1625.45 804.6,1645.32 851.38,1706.63 852.73,1620.4 852.21,1519.54 838.84,1419.07 742.68,1407.17 714.18,1404.03 608.2,1467.68 666.96,1496.1 V 1496.1 Z"
       id="gluteus_medius_right" />
    <path
       class="cls-3"
       d="M 647.46,1510.43 C 596.92,1485.38 590.65,1526.08 592.44,1552.03 593.34,1633.44 594.23,1714.85 595.12,1796.26 599.59,1826.23 609.43,1862.91 682.34,1868.72 789.69,1881.24 874.23,1713.95 805.8,1674.14 744.97,1650.43 704.26,1532.79 647.46,1510.43 Z"
       id="gluteus_maximus_right" />
    <path
       class="cls-3"
       d="M 1034.54,1403.42 C 1030.01,1360.62 1017.88,1370.06 1008.22,1349.62 991.75,1314.81 961.72,1292.4 952.33,1337.94 918.39,1464.11 1005.32,1586.51 963.82,1728.16 957.04,1754.41 966.18,1825.79 985.92,1740.55 1002.13,1628.17 1033.36,1523.76 1034.54,1403.42 Z"
       id="brachioradialis_right" />
    <path
       class="cls-3"
       d="M 1114.1,1371.57 C 1098.41,1323.78 1072.63,1340.01 1050.45,1440.59 1044.42,1468.96 1044.21,1498.94 1036.54,1551.27 1026.98,1616.45 1009.23,1707.02 993.87,1764.45 985.47,1806.79 1002.56,1822.12 1032.77,1749.41 1074.16,1611.87 1142.61,1487.05 1114.1,1371.58 V 1371.58 Z"
       id="flexor_carpi_ulnaris_right" />
    <path
       class="cls-3"
       d="M 313.47,1880.16 C 315.5,1846.49 339.84,1877.78 367.57,1894.25 392.04,1908.78 422.03,1898.47 418.93,1939.31 424.44,2054.88 440.14,2185.82 435.45,2286.03 433.47,2352.19 410.81,2389.85 398.12,2396.32 385.43,2402.79 372.51,2381.56 359.44,2340.42 325.98,2204.86 297.83,2051.21 313.47,1880.16 Z"
       id="biceps_femoris_left" />
    <path
       class="cls-3"
       d="M 442.56,1917.38 C 452.95,1918.49 457.66,1918.71 472.46,1919.38 487.26,1920.05 500.68,1912.65 501.47,1925.56 527.37,2086.41 532.98,2236.11 511.96,2366.64 507.32,2405.5 495.72,2407.53 486.83,2402.91 477.94,2398.29 468.37,2371.39 457.61,2305.49 445.01,2137.88 434.83,1985.58 436.36,1935.36 436.6,1927.48 435.81,1916.48 442.58,1917.37 V 1917.37 Z"
       id="semitendinosus_left" />
    <path
       class="cls-3"
       d="M 390.54,2579.61 C 417.7,2516.84 434.48,2530.03 433.68,2612 427.29,2700.76 420.9,2796.71 428.89,2892.66 434.08,2940.64 362.58,2963.43 351,2867.47 345.61,2762.22 357.59,2665.67 390.54,2579.61 Z"
       id="gastrocnemius_soleus_left_outter" />
    <path
       class="cls-3"
       d="M 460.8,2603.07 C 475.23,2522.03 494.79,2550.28 516.67,2628.21 545.7,2751.13 556.87,2866.29 528.78,2964.37 499.91,3066.49 453.35,2970.27 448.7,2918.74 441.87,2804.82 445.29,2699.6 460.81,2603.06 V 2603.06 Z"
       id="gastrocnemius_soleus_left_inner" />
    <path
       class="cls-3"
       d="M 839.38,1880.16 C 837.35,1846.49 813.02,1877.78 785.28,1894.25 760.81,1908.78 730.82,1898.47 733.92,1939.31 728.41,2054.88 712.71,2185.82 717.4,2286.03 719.38,2352.19 742.04,2389.85 754.73,2396.32 767.42,2402.79 780.34,2381.56 793.41,2340.42 826.87,2204.86 855.02,2051.21 839.38,1880.16 Z"
       id="biceps_femoris_right" />
    <path
       class="cls-3"
       d="M 710.3,1917.38 C 699.91,1918.49 695.2,1918.71 680.4,1919.38 665.6,1920.05 652.18,1912.65 651.39,1925.56 625.49,2086.41 619.88,2236.11 640.9,2366.64 645.54,2405.5 657.14,2407.53 666.03,2402.91 674.92,2398.29 684.49,2371.39 695.25,2305.49 707.86,2137.88 718.03,1985.58 716.5,1935.36 716.26,1927.48 717.05,1916.48 710.28,1917.37 V 1917.37 Z"
       id="semitendinosus_right" />
    <path
       class="cls-3"
       d="M 762.31,2579.61 C 735.15,2516.84 718.37,2530.03 719.17,2612 725.56,2700.76 731.95,2796.71 723.96,2892.66 718.77,2940.64 790.27,2963.43 801.85,2867.47 807.24,2762.22 795.26,2665.67 762.31,2579.61 Z"
       id="gastrocnemius_soleus_right_outter" />
    <path
       class="cls-3"
       d="M 692.05,2603.07 C 677.62,2522.03 658.06,2550.28 636.18,2628.21 607.15,2751.13 595.98,2866.29 624.07,2964.37 652.94,3066.49 699.5,2970.27 704.15,2918.74 710.98,2804.82 707.56,2699.6 692.04,2603.06 V 2603.06 Z"
       id="gastrocnemius_soleus_right_inner" />
  </g>
</svg>
