<?xml version="1.0" encoding="UTF-8" standalone="no"?>
<svg
   xmlns:dc="http://purl.org/dc/elements/1.1/"
   xmlns:cc="http://creativecommons.org/ns#"
   xmlns:rdf="http://www.w3.org/1999/02/22-rdf-syntax-ns#"
   xmlns:svg="http://www.w3.org/2000/svg"
   xmlns="http://www.w3.org/2000/svg"
   xmlns:sodipodi="http://sodipodi.sourceforge.net/DTD/sodipodi-0.dtd"
   xmlns:inkscape="http://www.inkscape.org/namespaces/inkscape"
   inkscape:version="1.0 (4035a4f, 2020-05-01)"
   height="297"
   width="115"
   sodipodi:docname="muscular_back.svg"
   version="1.1"
   viewBox="0 0 115 297.00001"
   id="Layer_2">
  <metadata
     id="metadata356">
    <rdf:RDF>
      <cc:Work
         rdf:about="">
        <dc:format>image/svg+xml</dc:format>
        <dc:type
           rdf:resource="http://purl.org/dc/dcmitype/StillImage" />
        <dc:title></dc:title>
      </cc:Work>
    </rdf:RDF>
  </metadata>
  <sodipodi:namedview
     inkscape:current-layer="_ÎÓÈ_1"
     inkscape:window-maximized="0"
     inkscape:window-y="65"
     inkscape:window-x="0"
     inkscape:cy="146.20715"
     inkscape:cx="17.375716"
     inkscape:zoom="2.5093789"
     fit-margin-bottom="0"
     fit-margin-right="0"
     fit-margin-left="0"
     fit-margin-top="0"
     showgrid="false"
     id="namedview354"
     inkscape:window-height="1052"
     inkscape:window-width="1728"
     inkscape:pageshadow="2"
     inkscape:pageopacity="0"
     guidetolerance="10"
     gridtolerance="10"
     objecttolerance="10"
     borderopacity="1"
     bordercolor="#666666"
     pagecolor="#ffffff" />
  <defs
     id="defs282">
    <style
       id="style280">.cls-1{fill:#878787;}.cls-1,.cls-2,.cls-3{fill-rule:evenodd;}.cls-2{fill:#c6c6c6;}.cls-3{fill:#ededed;}</style>
  </defs>
  <g
     transform="matrix(0.0996,0,0,0.08507269,0.00131407,-3.7895316e-4)"
     id="_ÎÓÈ_1">
    <path
       id="path284"
       d="m 713.42,362.84 c -2.54,31.11 -12.77,54.54 -22.43,78.52 4.89,19.68 4.65,44.49 11.21,62.5 49.81,27.64 99.69,55.22 144.22,88.14 46.26,3.89 88.27,7.85 121.79,30.45 18.26,12.31 32.6,27.97 48.07,44.87 32.91,35.94 64.01,66.24 68.91,129.8 1.8,23.4 0.34,50.39 -1.61,75.32 -1.83,23.5 -2.68,47.39 -11.21,65.7 15.67,29.99 33.31,62.13 41.66,99.35 8.63,38.46 14.38,84.17 11.22,129.8 -3.04,43.81 -6.94,87.83 4.8,129.8 10.58,37.79 21.49,74.31 24.04,115.38 4.03,64.95 -16.37,125.68 -33.65,182.68 -8.38,27.64 -17.18,54.49 -27.24,80.12 -10.31,26.27 -25.35,50.82 -32.06,75.32 -3.68,13.45 -3.06,30.36 -6.41,41.66 -3.97,13.39 -16.98,24.9 -19.23,38.46 -2.89,17.48 1.77,45.92 3.21,65.7 1.82,25.1 5.67,54.84 0,73.71 -4.74,15.75 -19.56,27.26 -28.85,40.06 -9.59,13.23 -15.52,33.46 -32.04,38.46 -33.49,10.11 -56.64,-17.98 -76.93,-30.45 -16.36,129.46 -35.3,256.34 -86.53,350.94 3.96,53.08 -2.23,108.48 -9.61,157.04 -2.42,15.84 -3.25,32.43 -11.22,44.87 49.13,112.72 57.62,269.89 24.04,395.81 -15.65,58.67 -40.95,114.25 -57.69,173.07 -14.38,50.55 -26.76,106.74 -28.84,173.07 -0.3,9.47 -2.76,20.02 -1.61,27.24 1.77,11.04 13.41,22.11 22.44,33.65 8.52,10.9 17.27,22.59 24.03,30.45 14.15,16.43 50.55,38.89 49.68,59.29 -1.65,38.79 -81.81,16.44 -118.59,19.23 -25.03,1.9 -64.9,14.16 -94.54,4.81 -38.87,-12.27 -23.86,-64.15 -16.03,-105.76 12.92,-68.61 18.16,-147.03 20.84,-224.35 4.08,-118.14 -22.97,-195.79 -40.06,-286.84 -16.82,88.57 -44.1,170.1 -40.06,286.84 2.64,76.47 7.53,153.68 20.83,224.35 7.46,39.63 24.41,93.47 -16.03,105.76 -29.41,8.94 -65.11,-2.38 -92.94,-4.81 -33.51,-2.92 -116.43,19.26 -120.18,-17.63 -2.03,-20.02 38.77,-48.22 49.68,-60.89 7.54,-8.76 15.82,-19.95 24.03,-30.45 8.55,-10.92 20.56,-22.16 22.44,-32.05 2.1,-11.07 -0.82,-39.79 -1.6,-56.09 -0.9,-18.72 -3.83,-36.63 -6.41,-51.28 -12.29,-69.6 -29.61,-120.99 -51.28,-179.47 -10.59,-28.59 -19.18,-57.98 -27.24,-88.14 -17.15,-64.13 -24.11,-132.31 -20.83,-206.72 2.93,-66.85 20.13,-131.74 43.26,-187.49 -10.87,-28.16 -14.02,-60.68 -17.62,-96.15 -2.66,-26.11 -4.67,-52.53 -4.81,-80.12 -0.05,-8.33 2.67,-18.58 1.6,-25.64 -1.24,-8.2 -13.01,-27.98 -17.63,-38.46 -38.45,-87.44 -53.91,-200.28 -68.91,-312.48 -6.1,0.29 -11.68,6.84 -17.63,11.22 -11.68,8.62 -36.52,24.5 -59.29,17.63 -15.06,-4.55 -20.21,-21.83 -30.45,-36.86 -10.84,-15.9 -27.34,-24.85 -32.05,-43.27 -4.39,-17.21 -1.32,-46.44 0,-68.91 1.3,-21.98 7.79,-46.09 4.81,-67.3 -1.89,-13.51 -13.07,-24.05 -17.63,-36.86 -4.08,-11.49 -4.32,-28.95 -8.01,-43.27 -6.32,-24.55 -20.08,-50.37 -30.44,-76.92 -9.93,-25.43 -20.55,-51.09 -28.85,-78.52 -17.08,-56.47 -36.74,-116.68 -33.65,-181.08 1.97,-41.07 11.74,-80.25 22.44,-118.58 11.69,-41.86 11.32,-85.02 8.01,-129.8 -6.6,-89.13 14.25,-165.82 49.67,-227.55 C 65.04,865.44 61.7,769.31 91.65,720.18 c 11.6,-19.03 30.57,-35.51 46.47,-52.88 19.07,-20.83 36.06,-42.53 60.89,-54.48 23.66,-11.39 50.28,-13.33 78.53,-17.63 9.11,-1.39 20.36,-0.91 28.84,-3.2 11.4,-3.09 22.55,-15.35 35.25,-24.04 33.43,-22.86 77.51,-44.14 110.58,-64.1 6.59,-17.44 5.95,-42.12 11.22,-60.89 -8.75,-24.91 -19.57,-47.73 -22.44,-78.52 -6.67,0.65 -16.21,2.2 -24.03,-3.2 C 400.2,349.66 363.06,244.52 408.94,228.23 394.16,158.45 415.86,94.61 449,55.16 479.52,18.86 528.46,-4.35 594.84,0.69 c 35.48,2.69 71.54,17.65 96.15,38.46 45.79,38.72 66.24,108.7 56.08,187.49 -1.16,5.43 7.18,5.89 11.22,11.22 16.23,21.42 8.85,61.25 -1.61,88.13 -9.71,24.97 -17.9,44.8 -43.27,36.86 v 0 z M 556.38,2333.88 c -3.94,28.68 -8.83,58.73 -8.01,86.53 0.88,30.17 11.12,60.68 12.82,91.34 2.34,42.16 -6.21,80.08 -14.42,120.18 9.89,37.12 22.21,71.8 28.84,112.17 5.27,-1.37 3.98,-9.29 4.81,-12.82 8.19,-34.71 18.51,-67.47 27.24,-99.35 -8.22,-40.6 -17.07,-79.22 -14.42,-121.79 1.92,-30.89 12.25,-60.86 12.82,-91.34 0.52,-27.34 -4.38,-56.38 -8.01,-84.93 -11.06,-87.03 -15.9,-174.41 -20.83,-259.6 -1.23,90.4 -9.65,178.27 -20.84,259.6 v 0 z M 844.83,1249.01 c 9.98,55.3 7.91,135.97 -3.21,182.68 19.51,39.38 38.02,75.68 41.66,126.6 1.57,21.87 -4.3,46.8 -1.6,65.7 1.63,11.42 11.6,27.14 17.63,41.67 5.92,14.29 12.91,29.44 16.02,44.87 6.98,34.58 1.6,64.95 -4.81,97.75 10.2,-9.26 24.96,-22.81 25.64,-35.26 2.5,-45.4 11.48,-93.69 11.22,-141.02 -0.31,-57.19 -20.44,-100.22 -27.24,-149.03 -12.82,-91.98 -0.67,-171.99 28.84,-237.17 -18.67,-39.01 -26.52,-88.85 -36.85,-136.21 -15.53,53.38 -43.39,94.43 -67.3,139.41 v 0 z m -639.39,-3.2 c 29.99,67 42,148.4 28.84,238.77 -5.73,39.43 -21.09,77.41 -25.64,118.58 -3.91,35.37 0.77,66.41 4.81,99.35 4.28,34.79 1.14,72.69 16.03,92.94 3.23,4.39 10.07,11.02 14.43,11.22 -5.39,-22.8 -8.21,-41.68 -8.02,-64.1 0.28,-32.35 9.9,-54.41 19.23,-76.92 6.32,-15.25 16.16,-31.08 17.63,-43.27 2.73,-22.73 -3.2,-45 -1.6,-65.7 3.89,-50.59 23.41,-86.43 41.66,-126.59 -11.55,-45.79 -12.9,-126.49 -3.21,-181.08 -24.9,-44.53 -50.58,-88.3 -68.9,-139.41 -7.06,50.09 -17.67,96.64 -35.25,136.21 v 0 z"
       class="cls-1" />
    <path
       id="path286"
       d="m 715.02,274.71 c 9.57,-24.58 17.67,-50.3 19.23,-78.52 C 736.92,148.08 722.4,107.39 703.81,77.61 685.68,48.58 648.11,25.84 607.65,18.32 537.5,5.28 474.03,40.1 450.61,77.61 c -16.11,25.8 -28.12,58.23 -30.45,92.94 -3.82,57.02 15.85,103.94 35.25,137.81 5.68,9.91 15.24,19.78 14.42,32.05 -9.72,-1.74 -14.34,-12.73 -19.22,-19.23 -16.94,-22.49 -30.83,-46.34 -40.06,-75.32 -15.18,23.4 -5.4,53.54 3.2,75.32 4.45,11.25 9.27,29.97 20.83,25.64 9.08,-2.92 -5.09,-20.76 6.41,-22.43 13.26,23.6 15.48,58.24 27.24,83.33 1.38,-9.84 -1.87,-24.31 9.62,-24.04 4.56,8.65 2.51,20.86 1.6,32.05 -0.91,11.14 -1.93,23.66 -3.2,35.25 -1.93,17.59 -2.94,52.57 -11.21,64.1 -6.16,8.57 -33.1,19.22 -44.88,25.64 -17.37,9.47 -31.92,17.96 -44.87,25.64 -33.73,20.01 -61.82,38.95 -89.74,52.88 -8.18,-0.09 -0.03,-12.29 -6.41,-8.01 -28.82,3.99 -54.27,7.6 -76.92,19.23 -19.94,10.24 -36.36,28.64 -51.27,44.87 -16.08,17.48 -31.37,33.31 -43.27,52.88 -27.39,45.02 -26.37,120.31 -16.02,187.49 1.66,2.43 5.76,-12.37 12.82,-4.81 -26.2,59.64 -53.14,122.33 -57.69,195.5 -3.02,48.73 4.13,93.37 1.6,142.62 -1.7,33.02 -13.68,60.37 -20.83,91.34 -7.38,31.97 -13.2,67.62 -11.21,102.56 1.72,30.31 9.72,62.92 17.62,94.54 7.43,29.74 15.44,60.85 25.64,88.14 15.85,42.38 36.27,79.81 48.07,120.18 4.55,15.55 3.51,33.38 9.62,48.07 4.39,10.56 13.41,18.18 16.02,28.84 3.6,14.72 1.57,36.43 0,56.09 -1.35,16.89 -2.49,35.45 -3.2,51.28 -0.46,9.96 -3.08,19.32 -1.61,28.84 3.17,20.5 20.16,27.73 32.05,46.47 6.3,9.93 11.37,24.32 19.23,27.24 26.47,9.85 57.75,-22.25 70.52,-36.86 -3.23,-51.8 -4.08,-105.96 -4.81,-160.25 -15.19,-18.43 -32.64,-29.44 -40.06,-52.88 -3.69,-11.68 -2.06,-26.75 -3.2,-41.66 -3.14,-40.76 -14.2,-80.88 -11.21,-121.79 2.73,-37.58 13.59,-74.4 20.83,-110.57 17.51,-87.51 14.09,-163.28 -12.83,-237.16 -3.42,-2.83 -5.11,16.53 -12.82,9.61 0.07,-16.47 6.65,-33.17 11.22,-49.68 9.52,-34.41 17.63,-67.22 24.03,-105.76 2.78,-16.72 10.42,-41.1 9.62,-56.09 -0.44,-8.13 -5.44,-19.78 -8.01,-30.45 -7.22,-29.81 -10.07,-71.34 -19.23,-96.15 -3.91,-10.59 -11.48,-18.68 -14.43,-28.84 -2.76,-9.51 -3.78,-21.43 -4.8,-32.05 -1.15,-11.82 -4.54,-27.46 3.2,-30.45 7.25,5.43 6.52,15.42 8.01,22.43 1.75,8.22 3.89,15.75 6.41,24.04 4.77,15.66 12.78,29.1 17.63,43.27 11.34,33.13 11.24,68.22 19.23,100.96 7.74,31.68 16.73,63.53 28.84,92.94 21.07,51.15 52.89,90.91 68.91,142.62 1.98,6.41 6.45,15.65 1.6,22.44 -11.65,-1.17 -9.32,-16.33 -16.03,-22.44 -4.47,47.39 -6.42,108.1 8.02,145.82 -29.92,53.14 -49.94,131.38 -41.67,213.13 1.26,12.41 5.63,25.41 0,36.86 -10.28,-0.4 -5.66,-15.7 -11.21,-20.83 -8.83,26.27 -23.44,49.34 -25.64,80.12 -1.94,26.95 6.42,54.45 9.61,83.33 4.89,44.16 -0.41,85.37 1.61,129.8 3.83,84.18 17.76,166.63 33.65,241.97 16.37,77.65 38.8,147.87 68.9,206.72 1.17,6.92 -14.54,2.28 -9.61,8.01 -2.58,48.55 7.09,98.65 12.82,144.22 5.02,3.45 5.77,-18.15 14.43,-11.22 1.55,9.65 -3.54,19.27 -6.41,27.24 -23.01,63.81 -41.43,142.52 -44.87,221.14 -4.07,92.56 17.82,176.02 46.47,254.79 13.46,37.01 27.01,75.32 36.85,113.77 10.61,41.42 21.13,84.81 24.04,128.2 0.99,14.77 3.71,52.11 1.6,64.1 -1.94,11.1 -14.3,26.57 -22.43,36.86 -16.35,20.69 -31.96,39.95 -49.68,56.09 -8.71,7.93 -22.82,13.75 -22.43,27.24 30.93,15.58 74.47,-6.53 108.97,3.21 -15.85,-15.22 -8.1,-44.94 -1.6,-62.5 3.43,-9.25 6.65,-19.91 12.82,-22.44 4.54,19.38 -10.04,43.41 -4.81,64.1 3.41,13.47 17.15,16.65 25.64,25.64 20.87,-2.94 40.76,4.67 54.48,-3.2 21.39,-12.27 5.41,-56.98 0,-84.93 -4.3,-22.25 -7.58,-45.88 -9.61,-65.7 -7.55,-73.67 -14.8,-148.69 -11.22,-227.55 5.03,-110.64 52.77,-203.91 44.87,-312.48 -2.56,-35.24 -15.74,-69.86 -24.04,-104.16 -6.54,-27.06 -11.27,-53.99 -16.02,-80.12 -1.4,-7.69 -6.51,-19.76 1.6,-25.64 8.56,3.72 5.49,19.08 11.22,25.64 2.38,-29.14 8.15,-55.26 6.41,-83.33 -2.3,-36.93 -15.28,-72.22 -12.82,-112.17 2.8,-45.62 12.15,-91.68 17.62,-139.41 13.81,-120.32 15.75,-248.26 12.82,-379.78 -6.55,2.14 -13.14,8.94 -20.83,12.82 -25.37,12.8 -55.34,15.22 -86.53,12.82 -68.25,-5.26 -131.56,-48 -133,-107.37 10.68,4.75 14.13,17.83 20.84,27.24 6.3,8.84 13.1,19.69 20.83,27.24 41.21,40.27 141.56,50.46 185.88,17.63 12.3,-9.11 17.01,-22.97 30.45,-33.65 21.77,71.66 159.75,65.07 209.92,16.03 11.69,-11.42 22.09,-29.12 30.45,-41.67 3.06,-4.59 3.77,-14.86 12.82,-12.82 -8.79,66.08 -68.44,102.51 -136.2,107.37 -41.58,2.98 -69.05,-4.83 -91.35,-17.63 -5.28,-3.04 -12.08,-9.31 -12.82,-4.81 -2.65,129 -1.14,260.38 12.82,376.58 5.82,48.35 13.52,95.07 16.02,141.02 0.44,7.91 0.58,16.11 0,24.04 -4.16,57.2 -23.95,112.97 -4.8,169.86 3.1,-9.17 1.25,-23.32 11.21,-25.64 5.11,7.43 1.48,17.52 0,25.64 -5.11,28.12 -9.63,53.7 -16.02,80.12 -8.43,34.81 -21.61,69.57 -24.05,105.76 -7.27,108.49 40,201.62 44.87,312.48 1.24,28.02 1.38,57.97 0,88.14 -3.11,68.56 -8.83,141.52 -20.83,203.51 -4.36,22.54 -12.97,47.52 -11.22,64.1 3.19,30.22 34.49,22.99 67.3,24.04 7.09,-10.58 20.58,-12 24.04,-25.64 5.5,-21.75 -11.56,-48.51 -3.21,-64.1 7.59,14.64 22.58,41.42 19.23,64.1 -1.31,8.86 -7.69,13.66 -8.01,20.83 23.22,-7.94 53.4,3.55 78.53,3.2 9.68,-0.13 22.34,-0.94 28.84,-8.01 -2.23,-11.97 -13.57,-19.06 -22.43,-27.24 -9.25,-8.53 -17.08,-17.04 -25.65,-27.24 -13.8,-16.46 -39.35,-40.17 -44.87,-60.89 -2.43,-9.15 -0.58,-17.27 0,-30.45 0.61,-13.83 -0.67,-29.08 0,-38.46 3.11,-42.76 13.58,-85.76 24.04,-126.6 9.87,-38.57 23.31,-76.54 36.85,-113.77 28.77,-79.1 50.67,-164.08 46.47,-256.4 -3.63,-79.75 -22.77,-160.07 -44.86,-221.14 -2.86,-7.89 -10.6,-18.03 -4.81,-27.24 8.21,-1.8 8.89,19.23 12.82,11.22 6.29,-45.04 15.33,-95.69 12.82,-144.22 3.2,-2.8 -12.5,-0.23 -9.62,-8.01 31.65,-57.94 52.43,-129.26 68.91,-206.72 16.08,-75.59 29.93,-157.52 33.65,-241.97 2.06,-47.05 -3.43,-86.41 1.6,-129.8 3.39,-29.19 11.85,-56.41 9.61,-83.33 -2.54,-30.48 -16.41,-53.98 -27.24,-78.52 -1.71,7.77 -1.88,24.28 -11.21,19.23 1.71,-37.87 6.15,-75.47 3.2,-113.77 -4.01,-52.13 -28.42,-97.72 -43.26,-136.21 7.19,-15.37 10.03,-38.76 11.21,-62.5 1.38,-27.62 -0.21,-59.25 -4.81,-81.73 -4.22,8.6 -3.43,22.21 -16.03,22.44 1.91,-32.38 17.9,-58.58 32.05,-84.93 28.11,-52.29 53.31,-109.18 68.9,-173.07 8.16,-33.43 8.17,-71.24 19.23,-102.56 4.72,-13.34 14.63,-26.25 19.23,-41.66 2.49,-8.31 3.01,-17.09 4.82,-25.64 1.25,-5.97 0.61,-18.27 9.61,-20.83 6.5,9.14 0.96,20.55 0,30.45 -1.08,11.23 0.06,22.89 -3.2,33.65 -2.88,9.49 -10.88,17.63 -14.43,27.24 -6.24,16.9 -8.8,42.27 -12.81,64.1 -2,10.84 -3.84,21.39 -6.41,32.05 -2.47,10.18 -7.58,22.35 -8.02,30.45 -0.41,7.7 3.4,18.07 4.81,27.24 7.57,49.32 16.93,93.46 28.84,136.21 4.96,17.77 14.24,35.34 9.61,49.68 -7.64,2.18 -8.52,-17.29 -11.22,-9.61 -28.08,75.09 -29.81,150.66 -12.82,235.56 7.4,36.92 18.28,74.08 20.83,112.17 2.76,41.24 -8.49,81.8 -11.21,123.39 -0.73,10.98 1.64,20.47 0,30.45 -2.77,16.87 -12.91,25.56 -22.44,36.86 -7.52,8.92 -18.74,18.03 -20.83,25.64 -3.34,12.18 0.58,27.36 0,40.06 -1.84,40.57 -2.4,84.36 -4.8,120.18 15.36,14.28 38.03,38.28 64.09,36.86 15.63,-0.86 17.54,-17.63 25.64,-30.45 9.15,-14.46 24.08,-22.33 28.84,-33.65 5.06,-11.99 2.23,-27.36 1.61,-41.66 -0.69,-15.78 -1.86,-32.8 -3.21,-49.68 -1.46,-18.19 -3.71,-37.91 -1.6,-52.88 1.78,-12.68 13.17,-21.35 17.62,-32.05 5.85,-14.06 5.21,-31.19 9.61,-46.47 4.03,-14 8.99,-28.26 14.42,-41.67 21.45,-52.83 44.11,-107.51 59.29,-168.26 8.02,-32.09 16.08,-65.05 17.63,-96.15 1.71,-34.33 -3.9,-69.23 -11.22,-100.96 -7.28,-31.53 -19.35,-59.21 -20.83,-92.94 -1.32,-29.97 2.14,-63.96 3.2,-88.14 3.69,-83.88 -17.7,-150.3 -41.66,-205.11 -6.37,-14.58 -15.47,-28.62 -16.02,-44.87 8.99,-4.87 9.22,13 11.21,4.81 4.42,-36.53 8.99,-76.78 6.41,-112.17 -2.88,-39.71 -17.36,-72.87 -41.66,-100.96 -10.02,-11.57 -23.03,-24.17 -35.25,-36.86 -12.45,-12.92 -25.47,-26.81 -38.47,-33.65 -22.65,-11.93 -54.1,-15.7 -80.12,-19.23 -2.67,-3.32 2.45,9.82 -6.41,8.01 -39.02,-23.02 -88.54,-54.27 -133,-78.52 -13.83,-7.55 -38.35,-17.46 -44.87,-27.24 -9.27,-13.93 -8.79,-41.58 -11.21,-64.1 -1.22,-11.24 -2.29,-22.35 -3.21,-33.65 -0.83,-10.24 -4.33,-25.36 3.21,-32.05 10.64,0.57 4.85,17.58 9.61,24.04 5.65,-20.88 12.12,-45.22 17.63,-64.1 2.03,-6.98 2.14,-16.52 9.61,-19.23 9.39,3.67 -5.64,21.83 6.41,22.43 11.18,2.82 14.78,-15.64 19.23,-27.24 8.84,-23.03 19.66,-53.68 1.6,-73.71 -7.02,29.58 -23.23,56.58 -38.45,76.92 -4.76,6.36 -11.52,18.72 -20.84,16.02 9.47,-20.97 23,-40.84 32.05,-64.1 v 0 z m -59.29,2187.36 c 1.87,-0.26 2.85,0.35 3.21,1.6 -0.61,24.77 14.34,48.84 6.41,70.51 -10.76,-19.08 -15.14,-43.75 -9.62,-72.11 z m 92.95,-33.65 c 21.16,23.34 20.28,62.3 19.23,100.96 -8.35,-4.47 -6.03,-19.6 -12.82,-25.64 0.13,-27.36 -0.45,-54.02 -6.41,-75.32 z m -253.19,33.65 c 1.87,-0.26 2.85,0.35 3.21,1.6 6.38,27.92 -0.5,49.38 -8.01,70.51 -12.24,-19.64 7.11,-47.62 4.8,-72.11 z m -91.33,-33.65 c 4.29,6.36 -2.24,10.57 -3.21,17.63 -2.3,16.7 1.36,39.13 -1.6,56.09 -0.89,5.12 -4.4,9.39 -6.41,14.42 -1.77,4.43 0.07,13.49 -6.41,12.82 -1.53,-38.79 -0.87,-75.4 17.64,-100.96 v 0 z M 580.42,1027.86 c 1.36,-0.29 1.51,0.63 1.6,1.6 -0.69,84.83 5.51,177.26 1.61,266.01 -1.24,28.07 1.11,56.67 -6.41,81.73 -10.27,-9.42 -7.76,-25.1 -8.02,-38.46 -0.83,-42.25 -2.1,-89.3 0,-134.61 2.93,-62.83 0.82,-127.34 11.22,-176.27 z m -6.41,-636.18 h 3.21 c 6.08,3.83 3.08,13.42 3.2,19.23 0.71,33.95 8.01,75.94 -1.6,104.16 -0.35,-0.21 -1.32,0.27 -1.6,0 -18.8,-17.21 3.26,-83.6 -3.21,-118.58 z m 67.3,-36.86 c -5.19,6.25 -14.65,7.77 -20.83,8.01 -13.29,0.53 -27.74,-8.92 -40.06,-9.61 -20.68,-1.18 -46.48,19.77 -67.3,3.2 2.62,-4.31 8.96,-2.21 12.82,-3.2 4.9,-1.26 9.08,-3.25 14.42,-4.81 14.38,-4.19 28.77,-12.3 46.47,-9.61 8.73,1.33 18.68,7.12 27.24,9.61 9.56,2.79 17.81,5.47 27.24,6.41 z M 83.93,1254.01 c -2.55,18.25 -13.34,32.96 -8.83,52.98 -0.39,14.52 14.52,30.21 16.48,41.79 -3.92,-6.47 -31.39,-27.08 -31.2,-37.08 3.93,-19.82 10.79,-50.82 23.54,-57.69 v 0 z m 61.22,14.72 c -6.4,10.09 -3.28,25.93 -6.03,42.23 -1.57,9.3 -15.16,5.92 -15.16,17.22 0,2.24 -0.36,11.89 0.59,11.18 13.23,-9.77 23.54,-13.49 23.54,-32.96 0,-5.94 1.51,-16.33 0,-21.78 -0.99,-3.56 -3.2,-6.55 -1.64,-9.64 3.79,-7.51 -2.03,-6.49 -1.31,-6.25 v 0 z m 859.52,0 c 6.4,10.09 3.28,25.93 6.03,42.23 1.57,9.3 15.16,5.92 15.16,17.22 0,2.24 0.36,11.89 -0.59,11.18 -13.23,-9.77 -23.54,-13.49 -23.54,-32.96 0,-5.94 -1.51,-16.33 0,-21.78 0.99,-3.56 3.2,-6.55 1.64,-9.64 -3.79,-7.51 2.03,-6.49 1.31,-6.25 v 0 z m 61.22,-14.72 c 2.55,18.25 13.34,32.96 8.83,52.98 0.39,14.52 -14.52,30.21 -16.48,41.79 3.92,-6.47 31.39,-27.08 31.2,-37.08 -3.92,-19.82 -10.79,-50.82 -23.54,-57.69 v 0 z"
       class="cls-2" />
    <path
       id="deltoid_left"
       d="m 241.08,635.6 c 12.47,-6.29 20.56,-7.18 31.51,-2.72 19.52,7.93 38.35,29.57 45.28,47.02 5.53,13.93 1.79,17.67 -11.8,24.76 -81.66,46.53 -130.32,113.25 -163.97,189.14 -7.66,21.35 -29.33,42.7 -33,-20.02 -9.59,-41.03 -8.74,-91.78 16.84,-139.13 23.28,-43.11 68.6,-84.11 115.14,-99.05 z"
       class="cls-3" />
    <path
       id="infraspinatus_left"
       d="m 219.47,805 c 1.45,-15.93 55.5,-75.47 77.59,-65.33 22.81,5.07 13.04,68.72 31.51,109.64 7.97,32.95 -50.34,47.44 -70.62,33.68 C 234.73,868.27 216.14,825.61 219.47,805 Z"
       class="cls-3" />
    <path
       id="triceps_brachii_left"
       d="m 129.92,936.27 c 35.47,-43.8 36.79,-37.04 49.93,-10.13 13.18,18.76 46.15,101.91 29.2,180.56 -8.79,39.56 -17.58,79.13 -26.38,118.69 -10.48,35.99 -20.97,59.75 -31.45,-2.03 -9.81,-28.07 -36.18,-47 -30.77,-84.2 1.68,-27.39 -21.85,-31.67 -32.13,-1.01 -3.38,22.66 -6.76,45.31 -10.14,67.97 -14.21,51.4 -21.72,49.74 -20.29,-4.06 -6.6,-137.22 23.45,-216.23 72.03,-265.79 z"
       class="cls-3" />
    <path
       id="latissimus_dorsi_left"
       d="m 238.01,952.63 c -3.13,-23.7 -30.19,-66 24.07,-46.6 23.4,6.85 59.54,-2 82.03,-20.85 10.45,-14.57 20.9,-13.93 31.35,1.9 50.76,44.63 87.65,113.05 120.67,188.12 17.9,23.44 15.96,43.39 6.65,61.76 -20.77,51.3 -42.43,100.59 -70.31,135.87 -20.27,22.09 -57.82,21.9 -78.08,-9.22 -44.82,-64.39 -103.4,-164.03 -116.38,-310.98 z"
       class="cls-3" />
    <path
       id="trapezius_bottom_left"
       d="m 301.98,627.43 c -0.47,-14.6 142.79,-42.67 221.81,-47.07 30.74,-3.14 38.11,1.95 39.53,24.06 4.68,147.27 7.06,293.45 0,435.14 -1.83,43.93 -11.84,111.55 -37.7,42.64 -32.34,-79.61 -111.64,-197.45 -178.98,-250.22 -10.25,-8.18 -21.15,-28.94 -17.33,-45.09 5.51,-26.43 45.69,-50.31 48.91,-70.23 2.61,-17.85 -8.45,-19.04 -24.83,-30.74 -19.03,-17.09 -53.23,-38.27 -51.4,-58.49 v 0 z"
       class="cls-3" />
    <path
       id="trapezius_top_left"
       d="m 366.33,580.33 c 52.86,-35.44 105.72,-40.18 112.21,-59.9 18.09,-73.74 7.12,-122.41 16.46,-131.03 7.56,-14.1 46.05,-10.97 53.11,-2.99 16.7,26.21 2.74,92.85 5.23,138.52 0,19.97 3.74,38.44 -25.43,43.43 -35.41,2.5 -80.54,5.74 -141.38,20.22 -39.9,12.98 -44.63,7.23 -20.2,-8.24 v 0 z"
       class="cls-3" />
    <path
       id="empty_left"
       d="m 414.91,1307.72 c -20.64,4.5 -26.06,58.86 8.68,68.56 33.37,14.5 65.54,33.2 93.37,66.87 21.99,27.19 29.85,17.92 31.54,-24.06 8.7,-63.04 2.9,-176.03 2.74,-275.75 -3.24,-19.54 -17.55,-14.32 -24.25,-3.92 -32.09,51.59 -54.64,157.57 -112.08,168.29 v 0 z"
       class="cls-3" />
    <path
       id="external_oblique_left"
       d="m 338.36,1316.42 c 9.13,-13.05 46.28,-18.92 44.98,0 -2.39,16.53 1.09,35.02 4.56,51.55 1.09,15.01 -38.24,50.24 -46.94,26.1 -6.52,-15.39 -11.09,-43.13 -2.61,-77.65 v 0 z"
       class="cls-3" />
    <path
       id="gluteus_medius_left"
       d="m 487.11,1496.1 c -57.89,22.9 -80.44,87.24 -119.14,129.35 -18.51,19.87 -65.29,81.18 -66.64,-5.05 0.52,-100.86 13.89,-201.33 110.05,-213.23 28.5,-3.14 134.48,60.51 75.72,88.93 v 0 z"
       class="cls-3" />
    <path
       id="gluteus_maximus_left"
       d="m 506.6,1510.43 c 50.54,-25.05 56.81,15.65 55.02,41.6 -0.9,81.41 -1.79,162.82 -2.68,244.23 -4.47,29.97 -14.31,66.65 -87.22,72.46 -107.35,12.52 -191.89,-154.77 -123.46,-194.58 60.83,-23.71 101.54,-141.35 158.34,-163.71 z"
       class="cls-3" />
    <path
       id="path308"
       d="m 119.52,1403.42 c 4.53,-42.8 16.66,-33.36 26.32,-53.8 16.47,-34.81 46.5,-57.22 55.89,-11.68 33.94,126.17 -52.99,248.57 -11.49,390.22 6.78,26.25 -2.36,97.63 -22.1,12.39 -16.21,-112.38 -47.44,-216.79 -48.62,-337.13 z"
       class="cls-3" />
    <path
       id="path310"
       d="m 39.96,1371.57 c 15.69,-47.79 41.47,-31.56 63.65,69.02 6.03,28.37 6.24,58.35 13.91,110.68 9.56,65.18 27.31,155.75 42.67,213.18 8.4,42.34 -8.69,57.67 -38.9,-15.04 C 79.9,1611.87 11.45,1487.05 39.96,1371.58 v 0 z"
       class="cls-3" />
    <path
       id="deltoid_right"
       d="m 912.98,635.6 c -12.47,-6.29 -20.56,-7.18 -31.51,-2.72 -19.52,7.93 -38.35,29.57 -45.28,47.02 -5.53,13.93 -1.79,17.67 11.8,24.76 81.66,46.53 130.32,113.25 163.97,189.14 7.66,21.35 29.33,42.7 32.99,-20.02 9.59,-41.03 8.74,-91.78 -16.84,-139.13 -23.28,-43.11 -68.6,-84.11 -115.14,-99.05 v 0 z"
       class="cls-3" />
    <path
       id="infraspinatus_right"
       d="m 934.59,805 c -1.45,-15.93 -55.5,-75.47 -77.59,-65.33 -22.81,5.07 -13.04,68.72 -31.51,109.64 -7.97,32.95 50.34,47.44 70.62,33.68 23.22,-14.72 41.82,-57.38 38.48,-77.99 z"
       class="cls-3" />
    <path
       id="triceps_brachii_right"
       d="m 1024.14,936.27 c -35.47,-43.8 -36.79,-37.04 -49.93,-10.13 -13.18,18.76 -46.15,101.91 -29.2,180.56 8.79,39.56 17.59,79.13 26.38,118.69 10.48,35.99 20.97,59.75 31.45,-2.03 9.81,-28.07 36.18,-47 30.77,-84.2 -1.68,-27.39 21.85,-31.67 32.13,-1.01 3.38,22.66 6.76,45.31 10.15,67.97 14.21,51.4 21.72,49.74 20.29,-4.06 6.6,-137.22 -23.45,-216.23 -72.03,-265.79 v 0 z"
       class="cls-3" />
    <path
       id="latissimus_dorsi_right"
       d="m 916.05,952.63 c 3.13,-23.7 30.19,-66 -24.07,-46.6 -23.4,6.85 -59.54,-2 -82.03,-20.85 -10.45,-14.57 -20.9,-13.93 -31.35,1.9 -50.76,44.63 -87.65,113.05 -120.67,188.12 -17.9,23.44 -15.96,43.39 -6.65,61.76 20.77,51.3 42.43,100.59 70.31,135.87 20.27,22.09 57.82,21.9 78.08,-9.22 44.82,-64.39 103.4,-164.03 116.38,-310.98 z"
       class="cls-3" />
    <path
       id="trapezius_bottom_right"
       d="m 852.09,627.43 c 0.46,-14.6 -140.03,-42.67 -217.53,-47.07 -30.14,-3.14 -37.37,1.95 -38.77,24.06 -4.59,147.27 -6.92,293.45 0,435.14 1.8,43.93 11.61,111.55 36.98,42.64 31.72,-79.61 109.48,-197.45 175.53,-250.22 10.05,-8.18 20.74,-28.94 17,-45.09 -5.4,-26.43 -44.81,-50.31 -47.97,-70.23 -2.56,-17.85 8.28,-19.04 24.35,-30.74 18.67,-17.09 52.2,-38.27 50.41,-58.49 z"
       class="cls-3" />
    <path
       id="trapezius_top_right"
       d="M 787.73,580.33 C 734.87,544.89 682.01,540.15 675.52,520.43 657.43,446.69 668.4,398.02 659.06,389.4 c -7.56,-14.1 -46.05,-10.97 -53.11,-2.99 -16.7,26.21 -2.74,92.85 -5.24,138.52 0,19.97 -3.74,38.44 25.43,43.43 35.41,2.5 80.54,5.74 141.38,20.22 39.9,12.98 44.63,7.23 20.2,-8.24 v 0 z"
       class="cls-3" />
    <path
       id="empty_right"
       d="m 739.28,1307.72 c 20.48,4.5 25.86,58.86 -8.61,68.56 -33.12,14.5 -65.03,33.2 -92.66,66.87 -21.82,27.19 -29.62,17.92 -31.3,-24.06 -8.63,-63.04 -2.88,-176.03 -2.72,-275.75 3.21,-19.54 17.42,-14.32 24.06,-3.92 31.84,51.59 54.22,157.57 111.23,168.29 v 0 z"
       class="cls-3" />
    <path
       id="external_oblique_right"
       d="m 815.71,1316.42 c -9.13,-13.05 -46.29,-18.92 -44.98,0 2.39,16.53 -1.09,35.02 -4.56,51.55 -1.09,15.01 38.24,50.24 46.94,26.1 6.52,-15.39 11.09,-43.13 2.61,-77.65 v 0 z"
       class="cls-3" />
    <path
       id="gluteus_medius_right"
       d="m 666.95,1496.1 c 57.89,22.9 80.43,87.24 119.14,129.35 18.51,19.87 65.29,81.18 66.64,-5.05 -0.52,-100.86 -13.89,-201.33 -110.05,-213.23 -28.5,-3.14 -134.48,60.51 -75.72,88.93 v 0 z"
       class="cls-3" />
    <path
       id="gluteus_maximus_right"
       d="m 647.46,1510.43 c -50.54,-25.05 -56.81,15.65 -55.02,41.6 0.9,81.41 1.79,162.82 2.68,244.23 4.47,29.97 14.31,66.65 87.22,72.46 107.35,12.52 191.89,-154.77 123.46,-194.58 -60.83,-23.71 -101.54,-141.35 -158.34,-163.71 z"
       class="cls-3" />
    <path
       id="path332"
       d="m 1034.54,1403.42 c -4.53,-42.8 -16.66,-33.36 -26.32,-53.8 -16.47,-34.81 -46.5,-57.22 -55.89,-11.68 -33.94,126.17 52.99,248.57 11.49,390.22 -6.78,26.25 2.36,97.63 22.1,12.39 16.21,-112.38 47.44,-216.79 48.62,-337.13 z"
       class="cls-3" />
    <path
       id="path334"
       d="m 1114.1,1371.57 c -15.69,-47.79 -41.47,-31.56 -63.65,69.02 -6.03,28.37 -6.24,58.35 -13.91,110.68 -9.56,65.18 -27.31,155.75 -42.67,213.18 -8.4,42.34 8.69,57.67 38.9,-15.04 41.39,-137.54 109.84,-262.36 81.33,-377.83 v 0 z"
       class="cls-3" />
    <path
       id="biceps_femoris_left"
       d="m 313.47,1880.16 c 2.03,-33.67 26.37,-2.38 54.1,14.09 24.47,14.53 54.46,4.22 51.36,45.06 5.51,115.57 21.21,246.51 16.52,346.72 -1.98,66.16 -24.64,103.82 -37.33,110.29 -12.69,6.47 -25.61,-14.76 -38.68,-55.9 -33.46,-135.56 -61.61,-289.21 -45.97,-460.26 z"
       class="cls-3" />
    <path
       id="semitendinosus_left"
       d="m 442.56,1917.38 c 10.39,1.11 15.1,1.33 29.9,2 14.8,0.67 28.22,-6.73 29.01,6.18 25.9,160.85 31.51,310.55 10.49,441.08 -4.64,38.86 -16.24,40.89 -25.13,36.27 -8.89,-4.62 -18.46,-31.52 -29.22,-97.42 -12.6,-167.61 -22.78,-319.91 -21.25,-370.13 0.24,-7.88 -0.55,-18.88 6.22,-17.99 v 0 z"
       class="cls-3" />
    <path
       id="gastrocnemius_soleus_left_outter"
       d="m 390.54,2579.61 c 27.16,-62.77 43.94,-49.58 43.14,32.39 -6.39,88.76 -12.78,184.71 -4.79,280.66 5.19,47.98 -66.31,70.77 -77.89,-25.19 -5.39,-105.25 6.59,-201.8 39.54,-287.86 z"
       class="cls-3" />
    <path
       id="gastrocnemius_soleus_left_inner"
       d="m 460.8,2603.07 c 14.43,-81.04 33.99,-52.79 55.87,25.14 29.03,122.92 40.2,238.08 12.11,336.16 -28.87,102.12 -75.43,5.9 -80.08,-45.63 -6.83,-113.92 -3.41,-219.14 12.11,-315.68 v 0 z"
       class="cls-3" />
    <path
       id="biceps_femoris_right"
       d="m 839.38,1880.16 c -2.03,-33.67 -26.36,-2.38 -54.1,14.09 -24.47,14.53 -54.46,4.22 -51.36,45.06 -5.51,115.57 -21.21,246.51 -16.52,346.72 1.98,66.16 24.64,103.82 37.33,110.29 12.69,6.47 25.61,-14.76 38.68,-55.9 33.46,-135.56 61.61,-289.21 45.97,-460.26 z"
       class="cls-3" />
    <path
       id="semitendinosus_right"
       d="m 710.3,1917.38 c -10.39,1.11 -15.1,1.33 -29.9,2 -14.8,0.67 -28.22,-6.73 -29.01,6.18 -25.9,160.85 -31.51,310.55 -10.49,441.08 4.64,38.86 16.24,40.89 25.13,36.27 8.89,-4.62 18.46,-31.52 29.22,-97.42 12.61,-167.61 22.78,-319.91 21.25,-370.13 -0.24,-7.88 0.55,-18.88 -6.22,-17.99 v 0 z"
       class="cls-3" />
    <path
       id="gastrocnemius_soleus_right_outter"
       d="m 762.31,2579.61 c -27.16,-62.77 -43.94,-49.58 -43.14,32.39 6.39,88.76 12.78,184.71 4.79,280.66 -5.19,47.98 66.31,70.77 77.89,-25.19 5.39,-105.25 -6.59,-201.8 -39.54,-287.86 z"
       class="cls-3" />
    <path
       id="gastrocnemius_soleus_right_inner"
       d="m 692.05,2603.07 c -14.43,-81.04 -33.99,-52.79 -55.87,25.14 -29.03,122.92 -40.2,238.08 -12.11,336.16 28.87,102.12 75.43,5.9 80.08,-45.63 6.83,-113.92 3.41,-219.14 -12.11,-315.68 v 0 z"
       class="cls-3" />
  </g>
</svg>
